<svg width="16" height="16" viewBox="0 0 16 16" fill="none" xmlns="http://www.w3.org/2000/svg">
<g id="Frame" clip-path="url(#clip0_802_6139)">
<path id="Vector" d="M0.801426 9.1997L15.1984 9.1997C15.3035 9.19969 15.4075 9.22036 15.5045 9.26055C15.6016 9.30074 15.6898 9.35965 15.7641 9.43393C15.8384 9.5082 15.8973 9.59638 15.9375 9.69342C15.9777 9.79047 15.9984 9.89449 15.9984 9.99953C15.9984 10.1046 15.9777 10.2086 15.9375 10.3056C15.8973 10.4027 15.8384 10.4909 15.7641 10.5651C15.6898 10.6394 15.6016 10.6983 15.5045 10.7385C15.4075 10.7787 15.3035 10.7994 15.1984 10.7994L0.801426 10.7994L1.36811 9.43485L6.14951 14.2339C6.29927 14.3841 6.38322 14.5877 6.38288 14.7998C6.38255 15.0119 6.29795 15.2153 6.14771 15.365C5.99747 15.5148 5.79389 15.5987 5.58176 15.5984C5.36962 15.5981 5.16631 15.5135 5.01655 15.3632L0.234744 10.5642C-0.267551 10.0595 0.0895742 9.1997 0.801426 9.1997ZM15.1968 6.8002L0.799826 6.8002C0.587717 6.80017 0.384305 6.71589 0.234331 6.5659C0.0843573 6.4159 0.000104717 6.21248 0.000104717 6.00037C0.000104717 5.78826 0.0843573 5.58483 0.234331 5.43484C0.384305 5.28484 0.587717 5.20056 0.799826 5.20053L15.1968 5.20053L14.6301 6.56505L9.84874 1.76605C9.69898 1.61576 9.61505 1.41212 9.61543 1.19995C9.6158 0.98778 9.70045 0.784448 9.85074 0.634685C10.001 0.484921 10.2047 0.400996 10.4168 0.401371C10.629 0.401746 10.8323 0.48639 10.9821 0.636683L15.7635 5.43568C16.2658 5.94038 15.9087 6.8002 15.1968 6.8002Z" fill="#F3F7FC"/>
</g>
<defs>
<clipPath id="clip0_802_6139">
<rect width="16" height="16" fill="white" transform="matrix(0 -1 1 0 0 16)"/>
</clipPath>
</defs>
</svg>
