<svg width="36" height="36" viewBox="0 0 36 36" fill="none" xmlns="http://www.w3.org/2000/svg">
<g id="Frame" clip-path="url(#clip0_802_6035)">
<path id="Vector" opacity="0.2" d="M0 18C0 22.7739 1.89642 27.3523 5.27208 30.7279C8.64773 34.1036 13.2261 36 18 36C22.7739 36 27.3523 34.1036 30.7279 30.7279C34.1036 27.3523 36 22.7739 36 18C36 13.2261 34.1036 8.64773 30.7279 5.27208C27.3523 1.89642 22.7739 0 18 0C13.2261 0 8.64773 1.89642 5.27208 5.27208C1.89642 8.64773 0 13.2261 0 18Z" fill="#1990FF"/>
<path id="Vector_2" d="M3.59961 18C3.59961 21.8191 5.11675 25.4818 7.81727 28.1823C10.5178 30.8828 14.1805 32.4 17.9996 32.4C21.8187 32.4 25.4814 30.8828 28.1819 28.1823C30.8825 25.4818 32.3996 21.8191 32.3996 18C32.3996 14.1809 30.8825 10.5182 28.1819 7.81764C25.4814 5.11711 21.8187 3.59998 17.9996 3.59998C14.1805 3.59998 10.5178 5.11711 7.81727 7.81764C5.11675 10.5182 3.59961 14.1809 3.59961 18Z" fill="#1990FF"/>
<path id="Vector_3" d="M1.75797e-08 2.63996C-3.19002e-05 2.8606 0.043399 3.07909 0.127813 3.28294C0.212226 3.4868 0.335969 3.67203 0.491975 3.82806C0.64798 3.98408 0.833193 4.10785 1.03704 4.1923C1.24088 4.27674 1.45936 4.3202 1.68 4.3202C1.90064 4.3202 2.11912 4.27674 2.32296 4.1923C2.52681 4.10785 2.71202 3.98408 2.86803 3.82806C3.02403 3.67203 3.14777 3.4868 3.23219 3.28294C3.3166 3.07909 3.36003 2.8606 3.36 2.63996C3.36003 2.41932 3.3166 2.20083 3.23219 1.99698C3.14777 1.79312 3.02403 1.60789 2.86803 1.45186C2.71202 1.29584 2.52681 1.17207 2.32296 1.08762C2.11912 1.00318 1.90064 0.959717 1.68 0.959717C1.45936 0.959717 1.24088 1.00318 1.03704 1.08762C0.833193 1.17207 0.64798 1.29584 0.491975 1.45186C0.335969 1.60789 0.212226 1.79312 0.127813 1.99698C0.043399 2.20083 -3.19002e-05 2.41932 1.75797e-08 2.63996Z" fill="#1990FF"/>
<path id="Vector_4" d="M34.5596 32.4001C34.5596 32.591 34.6354 32.7741 34.7705 32.9092C34.9055 33.0442 35.0886 33.1201 35.2796 33.1201C35.4705 33.1201 35.6537 33.0442 35.7887 32.9092C35.9237 32.7741 35.9996 32.591 35.9996 32.4001C35.9996 32.2091 35.9237 32.026 35.7887 31.8909C35.6537 31.7559 35.4705 31.6801 35.2796 31.6801C35.0886 31.6801 34.9055 31.7559 34.7705 31.8909C34.6354 32.026 34.5596 32.2091 34.5596 32.4001Z" fill="#1990FF"/>
<path id="Vector_5" d="M18.0649 24.5257C17.2098 24.5004 16.3698 24.2943 15.6001 23.9209C14.8226 23.5691 14.0835 23.138 13.3945 22.6345C12.2017 21.7461 11.2091 20.6169 10.4809 19.3201L10.4257 19.2217L9.46574 11.6521C9.45514 11.5526 9.46664 11.452 9.49944 11.3575C9.53223 11.263 9.5855 11.1768 9.65543 11.1053C9.72536 11.0338 9.81024 10.9786 9.90399 10.9436C9.99774 10.9087 10.098 10.8949 10.1977 10.9033H10.2841C11.3006 10.9099 12.3112 10.7477 13.2745 10.4233H13.2937C14.8161 9.95013 16.2575 9.24766 17.5681 8.34006C17.7101 8.24482 17.8772 8.19397 18.0481 8.19397C18.2191 8.19397 18.3862 8.24482 18.5281 8.34006C19.865 9.21438 21.2985 9.93114 22.8001 10.4761C23.4533 10.6985 24.1258 10.8592 24.8089 10.9561C25.0325 10.9863 25.2577 11.0031 25.4833 11.0065H25.7065C25.8114 10.9839 25.9201 10.9865 26.0238 11.014C26.1275 11.0416 26.2232 11.0933 26.303 11.165C26.3829 11.2366 26.4446 11.3261 26.4832 11.4262C26.5217 11.5263 26.5361 11.6342 26.5249 11.7409L25.6009 19.2025L25.5481 19.2985C24.836 20.5768 23.8658 21.6933 22.6993 22.5769C22.0179 23.087 21.2861 23.5261 20.5153 23.8873C19.7523 24.2694 18.9174 24.4869 18.0649 24.5257Z" fill="#F3F7FC"/>
<path id="Vector_6" d="M18.0385 25.6368C17.0405 25.6039 16.0601 25.3653 15.1585 24.936C14.3072 24.5483 13.4981 24.0738 12.7441 23.52C11.4223 22.5396 10.3209 21.2928 9.51131 19.86L9.36011 19.5744L8.37611 11.7888C8.34358 11.5405 8.3649 11.288 8.43861 11.0487C8.51232 10.8093 8.63671 10.5886 8.80331 10.4016C8.98215 10.205 9.20111 10.049 9.44539 9.94427C9.68967 9.83951 9.95358 9.78841 10.2193 9.79439H10.3537C11.2284 9.79709 12.0976 9.65601 12.9265 9.37679L12.9601 9.35999C14.3799 8.91922 15.7241 8.26449 16.9465 7.41839C17.2671 7.19599 17.647 7.07483 18.0372 7.07055C18.4274 7.06627 18.8099 7.17908 19.1353 7.39439C20.3958 8.22185 21.746 8.9038 23.1601 9.42719C23.7463 9.61923 24.3488 9.7574 24.9601 9.83999C25.1393 9.86267 25.3195 9.87549 25.5001 9.87839C25.5353 9.88088 25.5706 9.88088 25.6057 9.87839C25.8808 9.84609 26.1597 9.8759 26.4218 9.96561C26.6839 10.0553 26.9225 10.2027 27.1201 10.3968C27.3108 10.5853 27.4554 10.8152 27.5428 11.0687C27.6302 11.3222 27.658 11.5924 27.6241 11.8584L26.6641 19.5384L26.5105 19.8192C25.7264 21.2412 24.6539 22.4837 23.3617 23.4672C22.6131 24.0281 21.8089 24.5106 20.9617 24.9072C20.0555 25.3551 19.0653 25.6077 18.0553 25.6488H18.0193L18.0385 25.6368ZM11.5009 18.8688C12.1498 19.9936 13.0221 20.9737 14.0641 21.7488C14.6858 22.2043 15.3534 22.5937 16.0561 22.9104C16.6751 23.2142 17.3498 23.3881 18.0385 23.4216H18.0577C18.7525 23.382 19.4316 23.199 20.0521 22.884C20.7518 22.552 21.416 22.15 22.0345 21.684C23.0479 20.9104 23.8951 19.9408 24.5257 18.8328L25.3585 12.096C25.1281 12.0891 24.8982 12.0707 24.6697 12.0408C23.9185 11.9392 23.1784 11.7672 22.4593 11.5272H22.4209C20.893 10.9717 19.4319 10.2472 18.0649 9.36719C16.6985 10.2847 15.2051 10.9971 13.6321 11.4816C12.6661 11.8035 11.6573 11.9782 10.6393 12L11.5009 18.8688Z" fill="#5BC1F4"/>
<path id="Vector_7" d="M10.4404 27.84C10.4404 28.1264 11.2369 28.4011 12.6547 28.6037C14.0725 28.8062 15.9954 28.92 18.0004 28.92C20.0055 28.92 21.9284 28.8062 23.3462 28.6037C24.7639 28.4011 25.5604 28.1264 25.5604 27.84C25.5604 27.5536 24.7639 27.2789 23.3462 27.0763C21.9284 26.8738 20.0055 26.76 18.0004 26.76C15.9954 26.76 14.0725 26.8738 12.6547 27.0763C11.2369 27.2789 10.4404 27.5536 10.4404 27.84Z" fill="#70CAFF"/>
<path id="Vector_8" d="M14.7744 27.8399C14.7744 27.9622 15.1143 28.0794 15.7192 28.1658C16.3241 28.2522 17.1445 28.3008 18 28.3008C18.8555 28.3008 19.6759 28.2522 20.2809 28.1658C20.8858 28.0794 21.2256 27.9622 21.2256 27.8399C21.2256 27.7177 20.8858 27.6005 20.2809 27.5141C19.6759 27.4277 18.8555 27.3792 18 27.3792C17.1445 27.3792 16.3241 27.4277 15.7192 27.5141C15.1143 27.6005 14.7744 27.7177 14.7744 27.8399Z" fill="#5BC1F4"/>
<path id="Vector_9" d="M17.1644 18.72C16.998 18.7204 16.8377 18.6578 16.7156 18.5448L14.666 16.6584C14.5613 16.5352 14.5054 16.3778 14.509 16.2161C14.5125 16.0545 14.5754 15.8998 14.6855 15.7813C14.7956 15.6629 14.9454 15.5891 15.1064 15.5738C15.2674 15.5585 15.4284 15.6028 15.5588 15.6984L17.6108 17.5848C17.7049 17.6754 17.7699 17.7919 17.7977 17.9195C17.8256 18.0471 17.8149 18.1801 17.7671 18.3016C17.7193 18.4231 17.6365 18.5278 17.5293 18.6023C17.422 18.6767 17.295 18.7177 17.1644 18.72Z" fill="#FF9600"/>
<path id="Vector_10" d="M17.1866 18.72C17.0534 18.7203 16.9233 18.6802 16.8133 18.6051C16.7033 18.5301 16.6186 18.4235 16.5703 18.2994C16.522 18.1753 16.5124 18.0395 16.5427 17.9098C16.573 17.7801 16.6419 17.6627 16.7402 17.5728L20.441 14.16C20.5714 14.0645 20.7324 14.0201 20.8934 14.0354C21.0544 14.0507 21.2042 14.1246 21.3143 14.243C21.4244 14.3614 21.4872 14.5161 21.4908 14.6778C21.4944 14.8395 21.4385 14.9969 21.3338 15.12L17.6354 18.5448C17.5133 18.6579 17.3529 18.7205 17.1866 18.72Z" fill="#FF9600"/>
<path id="Vector_11" d="M10.6996 22.6992H10.3948C7.55562 22.6584 5.89482 22.0152 5.59482 20.8392C5.35482 19.9464 5.95002 18.9576 7.33722 17.8992C7.43843 17.8218 7.56621 17.7879 7.69246 17.8047C7.81871 17.8216 7.93308 17.888 8.01042 17.9892C8.08776 18.0904 8.12172 18.2182 8.10485 18.3444C8.08797 18.4707 8.02163 18.585 7.92042 18.6624C6.91482 19.428 6.40602 20.1336 6.52602 20.5968C6.66282 21.1224 7.75482 21.6984 10.4164 21.7392C12.9412 21.7752 16.1644 21.3192 19.5076 20.4552C27.0676 18.4992 31.2556 15.5424 30.9292 14.2824C30.802 13.8024 29.914 13.404 28.5532 13.2384C28.4902 13.2306 28.4293 13.2106 28.374 13.1793C28.3187 13.1481 28.2701 13.1062 28.231 13.0562C28.1919 13.0062 28.163 12.9489 28.1461 12.8877C28.1291 12.8265 28.1243 12.7626 28.132 12.6996C28.1397 12.6365 28.1598 12.5756 28.1911 12.5204C28.2223 12.4651 28.2642 12.4165 28.3142 12.3774C28.3642 12.3383 28.4215 12.3094 28.4827 12.2924C28.5438 12.2754 28.6078 12.2706 28.6708 12.2784C30.5428 12.5184 31.6156 13.0992 31.858 14.0352C32.5204 16.596 26.1148 19.7304 19.7476 21.3768C16.45 22.236 13.2556 22.6992 10.6996 22.6992Z" fill="#FF9600"/>
</g>
<defs>
<clipPath id="clip0_802_6035">
<rect width="36" height="36" fill="white"/>
</clipPath>
</defs>
</svg>
