<svg width="36" height="36" viewBox="0 0 36 36" fill="none" xmlns="http://www.w3.org/2000/svg">
<g id="Frame" clip-path="url(#clip0_802_5855)">
<path id="Vector" opacity="0.2" d="M0 18C0 22.7739 1.89642 27.3523 5.27208 30.7279C8.64773 34.1036 13.2261 36 18 36C22.7739 36 27.3523 34.1036 30.7279 30.7279C34.1036 27.3523 36 22.7739 36 18C36 13.2261 34.1036 8.64773 30.7279 5.27208C27.3523 1.89642 22.7739 0 18 0C13.2261 0 8.64773 1.89642 5.27208 5.27208C1.89642 8.64773 0 13.2261 0 18Z" fill="#1990FF"/>
<path id="Vector_2" d="M3.59961 18.0001C3.59961 21.8192 5.11675 25.4819 7.81727 28.1824C10.5178 30.883 14.1805 32.4001 17.9996 32.4001C21.8187 32.4001 25.4814 30.883 28.1819 28.1824C30.8825 25.4819 32.3996 21.8192 32.3996 18.0001C32.3996 14.181 30.8825 10.5183 28.1819 7.81776C25.4814 5.11724 21.8187 3.6001 17.9996 3.6001C14.1805 3.6001 10.5178 5.11724 7.81727 7.81776C5.11675 10.5183 3.59961 14.181 3.59961 18.0001Z" fill="#1990FF"/>
<path id="Vector_3" d="M1.75797e-08 2.63996C-3.19002e-05 2.8606 0.043399 3.07909 0.127813 3.28294C0.212226 3.4868 0.335969 3.67203 0.491975 3.82806C0.64798 3.98408 0.833193 4.10785 1.03704 4.1923C1.24088 4.27674 1.45936 4.3202 1.68 4.3202C1.90064 4.3202 2.11912 4.27674 2.32296 4.1923C2.52681 4.10785 2.71202 3.98408 2.86803 3.82806C3.02403 3.67203 3.14777 3.4868 3.23219 3.28294C3.3166 3.07909 3.36003 2.8606 3.36 2.63996C3.36003 2.41932 3.3166 2.20083 3.23219 1.99698C3.14777 1.79312 3.02403 1.60789 2.86803 1.45186C2.71202 1.29584 2.52681 1.17207 2.32296 1.08762C2.11912 1.00318 1.90064 0.959717 1.68 0.959717C1.45936 0.959717 1.24088 1.00318 1.03704 1.08762C0.833193 1.17207 0.64798 1.29584 0.491975 1.45186C0.335969 1.60789 0.212226 1.79312 0.127813 1.99698C0.043399 2.20083 -3.19002e-05 2.41932 1.75797e-08 2.63996Z" fill="#1990FF"/>
<path id="Vector_4" d="M34.5596 32.3999C34.5596 32.5909 34.6354 32.774 34.7705 32.909C34.9055 33.0441 35.0886 33.1199 35.2796 33.1199C35.4705 33.1199 35.6537 33.0441 35.7887 32.909C35.9237 32.774 35.9996 32.5909 35.9996 32.3999C35.9996 32.209 35.9237 32.0258 35.7887 31.8908C35.6537 31.7558 35.4705 31.6799 35.2796 31.6799C35.0886 31.6799 34.9055 31.7558 34.7705 31.8908C34.6354 32.0258 34.5596 32.209 34.5596 32.3999Z" fill="#1990FF"/>
<path id="Vector_5" d="M22.9604 24.96C24.3456 24.9723 25.7052 24.5866 26.8777 23.8489C28.0502 23.1112 28.9863 22.0525 29.5748 20.7984C29.9775 19.9205 30.1863 18.966 30.1868 18C30.175 16.6696 29.7822 15.3705 29.0548 14.2565C28.3275 13.1425 27.2961 12.2603 26.0828 11.7144C25.7972 8.11203 22.682 5.28003 18.8804 5.28003C14.8796 5.28003 11.654 8.40003 11.654 12.24C11.6547 12.4805 11.6675 12.7208 11.6924 12.96C8.35159 13.0872 5.69239 15.72 5.69239 18.96C5.6911 19.8582 5.89986 20.7442 6.30199 21.5472C6.83534 22.5829 7.64561 23.4503 8.64263 24.0528C9.63964 24.6553 10.7843 24.9694 11.9492 24.96H22.9604Z" fill="#70CAFF"/>
<path id="Vector_6" d="M11.2803 20.16C11.2803 21.1055 11.4665 22.0417 11.8283 22.9153C12.1902 23.7888 12.7205 24.5825 13.3891 25.2511C14.0577 25.9197 14.8514 26.4501 15.725 26.8119C16.5985 27.1737 17.5348 27.36 18.4803 27.36C19.4258 27.36 20.3621 27.1737 21.2356 26.8119C22.1091 26.4501 22.9029 25.9197 23.5714 25.2511C24.24 24.5825 24.7704 23.7888 25.1322 22.9153C25.494 22.0417 25.6803 21.1055 25.6803 20.16C25.6803 18.2504 24.9217 16.4191 23.5714 15.0688C22.2212 13.7185 20.3898 12.96 18.4803 12.96C16.5707 12.96 14.7394 13.7185 13.3891 15.0688C12.0388 16.4191 11.2803 18.2504 11.2803 20.16Z" fill="#F3F7FC"/>
<path id="Vector_7" d="M25.6563 29.6185C25.5578 29.6178 25.4606 29.596 25.3711 29.5546C25.2817 29.5132 25.2022 29.4531 25.1379 29.3785L22.5411 26.4673C22.4189 26.3295 22.3564 26.1488 22.3675 25.9649C22.3785 25.7811 22.4621 25.6091 22.5999 25.4869C22.7377 25.3647 22.9184 25.3022 23.1023 25.3133C23.2861 25.3243 23.4581 25.4079 23.5803 25.5457L26.1747 28.4641C26.2635 28.564 26.3216 28.6875 26.3419 28.8197C26.3622 28.9519 26.3438 29.0871 26.289 29.209C26.2343 29.331 26.1454 29.4346 26.0331 29.5072C25.9209 29.5799 25.79 29.6185 25.6563 29.6185Z" fill="#FF9600"/>
<path id="Vector_8" d="M12.4805 20.1599C12.4804 20.9479 12.6356 21.7281 12.9371 22.4561C13.2386 23.1841 13.6805 23.8456 14.2377 24.4028C14.7948 24.96 15.4563 25.402 16.1843 25.7036C16.9122 26.0051 17.6925 26.1603 18.4805 26.1603C19.2684 26.1603 20.0487 26.0051 20.7767 25.7036C21.5047 25.402 22.1661 24.96 22.7233 24.4028C23.2804 23.8456 23.7224 23.1841 24.0239 22.4561C24.3254 21.7281 24.4805 20.9479 24.4805 20.1599C24.4805 19.3719 24.3254 18.5916 24.0239 17.8636C23.7224 17.1356 23.2804 16.4741 22.7233 15.9169C22.1661 15.3597 21.5047 14.9177 20.7767 14.6162C20.0487 14.3146 19.2684 14.1594 18.4805 14.1594C17.6925 14.1594 16.9122 14.3146 16.1843 14.6162C15.4563 14.9177 14.7948 15.3597 14.2377 15.9169C13.6805 16.4741 13.2386 17.1356 12.9371 17.8636C12.6356 18.5916 12.4804 19.3719 12.4805 20.1599Z" fill="#70CAFF"/>
<path id="Vector_9" d="M15.5996 20.1599C15.5996 20.2545 15.6182 20.3481 15.6544 20.4355C15.6906 20.5228 15.7436 20.6022 15.8105 20.6691C15.8774 20.7359 15.9567 20.789 16.0441 20.8251C16.1314 20.8613 16.2251 20.8799 16.3196 20.8799C16.4142 20.8799 16.5078 20.8613 16.5951 20.8251C16.6825 20.789 16.7619 20.7359 16.8287 20.6691C16.8956 20.6022 16.9486 20.5228 16.9848 20.4355C17.021 20.3481 17.0396 20.2545 17.0396 20.1599C17.0396 20.0654 17.021 19.9718 16.9848 19.8844C16.9486 19.7971 16.8956 19.7177 16.8287 19.6508C16.7619 19.584 16.6825 19.5309 16.5951 19.4947C16.5078 19.4586 16.4142 19.4399 16.3196 19.4399C16.2251 19.4399 16.1314 19.4586 16.0441 19.4947C15.9567 19.5309 15.8774 19.584 15.8105 19.6508C15.7436 19.7177 15.6906 19.7971 15.6544 19.8844C15.6182 19.9718 15.5996 20.0654 15.5996 20.1599Z" fill="#F3F7FC"/>
<path id="Vector_10" d="M17.7598 20.1599C17.7598 20.3509 17.8356 20.534 17.9706 20.6691C18.1057 20.8041 18.2888 20.8799 18.4798 20.8799C18.6707 20.8799 18.8539 20.8041 18.9889 20.6691C19.1239 20.534 19.1998 20.3509 19.1998 20.1599C19.1998 19.969 19.1239 19.7858 18.9889 19.6508C18.8539 19.5158 18.6707 19.4399 18.4798 19.4399C18.2888 19.4399 18.1057 19.5158 17.9706 19.6508C17.8356 19.7858 17.7598 19.969 17.7598 20.1599Z" fill="#F3F7FC"/>
<path id="Vector_11" d="M19.9199 20.1599C19.9199 20.3509 19.9958 20.534 20.1308 20.6691C20.2658 20.8041 20.449 20.8799 20.6399 20.8799C20.8309 20.8799 21.014 20.8041 21.149 20.6691C21.2841 20.534 21.3599 20.3509 21.3599 20.1599C21.3599 19.969 21.2841 19.7858 21.149 19.6508C21.014 19.5158 20.8309 19.4399 20.6399 19.4399C20.449 19.4399 20.2658 19.5158 20.1308 19.6508C19.9958 19.7858 19.9199 19.969 19.9199 20.1599Z" fill="#F3F7FC"/>
</g>
<defs>
<clipPath id="clip0_802_5855">
<rect width="36" height="36" fill="white"/>
</clipPath>
</defs>
</svg>
