<svg width="36" height="36" viewBox="0 0 36 36" fill="none" xmlns="http://www.w3.org/2000/svg">
<g id="Frame" clip-path="url(#clip0_802_5890)">
<path id="Vector" opacity="0.2" d="M0 18C0 22.7739 1.89642 27.3523 5.27208 30.7279C8.64773 34.1036 13.2261 36 18 36C22.7739 36 27.3523 34.1036 30.7279 30.7279C34.1036 27.3523 36 22.7739 36 18C36 13.2261 34.1036 8.64773 30.7279 5.27208C27.3523 1.89642 22.7739 0 18 0C13.2261 0 8.64773 1.89642 5.27208 5.27208C1.89642 8.64773 0 13.2261 0 18Z" fill="#1990FF"/>
<path id="Vector_2" d="M3.59961 18.0001C3.59961 21.8192 5.11675 25.4819 7.81727 28.1824C10.5178 30.883 14.1805 32.4001 17.9996 32.4001C21.8187 32.4001 25.4814 30.883 28.1819 28.1824C30.8825 25.4819 32.3996 21.8192 32.3996 18.0001C32.3996 14.181 30.8825 10.5183 28.1819 7.81776C25.4814 5.11724 21.8187 3.6001 17.9996 3.6001C14.1805 3.6001 10.5178 5.11724 7.81727 7.81776C5.11675 10.5183 3.59961 14.181 3.59961 18.0001Z" fill="#1990FF"/>
<path id="Vector_3" d="M1.75797e-08 2.63996C-3.19002e-05 2.8606 0.043399 3.07909 0.127813 3.28294C0.212226 3.4868 0.335969 3.67203 0.491975 3.82806C0.64798 3.98408 0.833193 4.10785 1.03704 4.1923C1.24088 4.27674 1.45936 4.3202 1.68 4.3202C1.90064 4.3202 2.11912 4.27674 2.32296 4.1923C2.52681 4.10785 2.71202 3.98408 2.86803 3.82806C3.02403 3.67203 3.14777 3.4868 3.23219 3.28294C3.3166 3.07909 3.36003 2.8606 3.36 2.63996C3.36003 2.41932 3.3166 2.20083 3.23219 1.99698C3.14777 1.79312 3.02403 1.60789 2.86803 1.45186C2.71202 1.29584 2.52681 1.17207 2.32296 1.08762C2.11912 1.00318 1.90064 0.959717 1.68 0.959717C1.45936 0.959717 1.24088 1.00318 1.03704 1.08762C0.833193 1.17207 0.64798 1.29584 0.491975 1.45186C0.335969 1.60789 0.212226 1.79312 0.127813 1.99698C0.043399 2.20083 -3.19002e-05 2.41932 1.75797e-08 2.63996Z" fill="#1990FF"/>
<path id="Vector_4" d="M34.5596 32.3999C34.5596 32.5909 34.6354 32.774 34.7705 32.909C34.9055 33.0441 35.0886 33.1199 35.2796 33.1199C35.4705 33.1199 35.6537 33.0441 35.7887 32.909C35.9237 32.774 35.9996 32.5909 35.9996 32.3999C35.9996 32.209 35.9237 32.0258 35.7887 31.8908C35.6537 31.7558 35.4705 31.6799 35.2796 31.6799C35.0886 31.6799 34.9055 31.7558 34.7705 31.8908C34.6354 32.0258 34.5596 32.209 34.5596 32.3999Z" fill="#1990FF"/>
<g id="Frame_2">
<path id="Vector_5" d="M18.5993 8.90723H10.1067C9.25391 8.90723 8.5625 9.59863 8.5625 10.4515V28.9809C8.5625 29.8337 9.25391 30.5251 10.1067 30.5251H22.4598C23.3126 30.5251 24.004 29.8337 24.004 28.9809V14.3116H20.1436C19.2907 14.3116 18.5993 13.6202 18.5993 12.7674V8.90723Z" fill="#E1F5FF"/>
<path id="Vector_6" d="M24.004 14.3116L18.5996 8.90723V12.7674C18.5996 13.6202 19.291 14.3116 20.1438 14.3116H24.004Z" fill="#FF9600"/>
<path id="Vector_7" d="M13.1956 8.90732H18.6L24.0044 14.3117V25.8925H27.0926C27.9454 25.8925 28.6368 25.2011 28.6368 24.3482V5.81914C28.6368 4.96631 27.9454 4.2749 27.0926 4.2749H14.7396C13.8867 4.2749 13.1953 4.96631 13.1953 5.81914V8.90732" fill="#70CAFF"/>
<path id="Vector_8" d="M15.6686 12.9246H12.2666C11.9268 12.9246 11.6514 13.2 11.6514 13.5398C11.6514 13.8796 11.9268 14.155 12.2666 14.155H15.6686C16.0084 14.155 16.2838 13.8796 16.2838 13.5398C16.2838 13.2 16.0084 12.9246 15.6686 12.9246ZM20.301 17.5567H12.2666C11.9268 17.5567 11.6514 17.8321 11.6514 18.1719C11.6514 18.5118 11.9268 18.7872 12.2666 18.7872H20.301C20.6408 18.7872 20.9162 18.5118 20.9162 18.1719C20.9162 17.8324 20.6408 17.5567 20.301 17.5567ZM20.301 22.1891H12.2666C11.9268 22.1891 11.6514 22.4645 11.6514 22.8043C11.6514 23.1442 11.9268 23.4196 12.2666 23.4196H20.301C20.6408 23.4196 20.9162 23.1442 20.9162 22.8043C20.9162 22.4645 20.6408 22.1891 20.301 22.1891Z" fill="#70CAFF"/>
</g>
</g>
<defs>
<clipPath id="clip0_802_5890">
<rect width="36" height="36" fill="white"/>
</clipPath>
</defs>
</svg>
