<svg width="36" height="36" viewBox="0 0 36 36" fill="none" xmlns="http://www.w3.org/2000/svg">
<g id="Frame" clip-path="url(#clip0_802_5929)">
<path id="Vector" opacity="0.2" d="M0.0283203 18C0.0283203 20.3615 0.49345 22.6999 1.39715 24.8816C2.30085 27.0633 3.62543 29.0457 5.29525 30.7155C6.96508 32.3853 8.94745 33.7099 11.1292 34.6136C13.3109 35.5173 15.6493 35.9825 18.0108 35.9825C20.3722 35.9825 22.7106 35.5173 24.8923 34.6136C27.0741 33.7099 29.0564 32.3853 30.7263 30.7155C32.3961 29.0457 33.7207 27.0633 34.6244 24.8816C35.5281 22.6999 35.9932 20.3615 35.9932 18C35.9932 13.2308 34.0986 8.65687 30.7263 5.28451C27.3539 1.91215 22.78 0.0175781 18.0108 0.0175781C13.2415 0.0175781 8.66762 1.91215 5.29525 5.28451C1.92289 8.65687 0.0283203 13.2308 0.0283203 18Z" fill="#1990FF"/>
<path id="Vector_2" d="M3.625 18C3.625 21.8154 5.14066 25.4745 7.83855 28.1724C10.5364 30.8703 14.1956 32.3859 18.011 32.3859C21.8263 32.3859 25.4855 30.8703 28.1834 28.1724C30.8812 25.4745 32.3969 21.8154 32.3969 18C32.3969 14.1846 30.8812 10.5255 28.1834 7.82756C25.4855 5.12967 21.8263 3.61401 18.011 3.61401C14.1956 3.61401 10.5364 5.12967 7.83855 7.82756C5.14066 10.5255 3.625 14.1846 3.625 18Z" fill="#1990FF"/>
<path id="Vector_3" d="M1.75626e-08 2.68617C-3.18691e-05 2.9066 0.0433567 3.12487 0.127688 3.32853C0.212019 3.53218 0.335641 3.71723 0.491495 3.87311C0.647348 4.02899 0.83238 4.15263 1.03602 4.23699C1.23967 4.32136 1.45794 4.36478 1.67836 4.36478C1.89879 4.36478 2.11705 4.32136 2.3207 4.23699C2.52434 4.15263 2.70937 4.02899 2.86523 3.87311C3.02108 3.71723 3.1447 3.53218 3.22903 3.32853C3.31337 3.12487 3.35675 2.9066 3.35672 2.68617C3.35675 2.46575 3.31337 2.24747 3.22903 2.04382C3.1447 1.84016 3.02108 1.65511 2.86523 1.49923C2.70937 1.34336 2.52434 1.21971 2.3207 1.13535C2.11705 1.05099 1.89879 1.00757 1.67836 1.00757C1.45794 1.00757 1.23967 1.05099 1.03602 1.13535C0.83238 1.21971 0.647348 1.34336 0.491495 1.49923C0.335641 1.65511 0.212019 1.84016 0.127688 2.04382C0.0433567 2.24747 -3.18691e-05 2.46575 1.75626e-08 2.68617Z" fill="#1990FF"/>
<path id="Vector_4" d="M34.5811 32.3548C34.5811 32.4493 34.5997 32.5428 34.6358 32.6301C34.672 32.7173 34.7249 32.7966 34.7917 32.8634C34.8585 32.9302 34.9378 32.9832 35.0251 33.0193C35.1124 33.0555 35.2059 33.0741 35.3004 33.0741C35.3948 33.0741 35.4883 33.0555 35.5756 33.0193C35.6629 32.9832 35.7422 32.9302 35.809 32.8634C35.8758 32.7966 35.9288 32.7173 35.9649 32.6301C36.001 32.5428 36.0197 32.4493 36.0197 32.3548C36.0197 32.164 35.9439 31.9811 35.809 31.8462C35.6741 31.7113 35.4911 31.6355 35.3004 31.6355C35.1096 31.6355 34.9266 31.7113 34.7917 31.8462C34.6568 31.9811 34.5811 32.164 34.5811 32.3548Z" fill="#1990FF"/>
<path id="Vector_5" d="M12.0556 7.13135H28.7625C29.345 7.13135 29.9036 7.36274 30.3155 7.77462C30.7274 8.18649 30.9588 8.74512 30.9588 9.3276V30.1489H9.85938V9.3276C9.85938 8.74512 10.0908 8.18649 10.5026 7.77462C10.9145 7.36274 11.4731 7.13135 12.0556 7.13135Z" fill="#F3F7FC"/>
<path id="Vector_6" opacity="0.2" d="M12.6903 10.488H28.1265C28.5756 10.488 28.8002 10.7126 28.8002 11.1618V11.2529C28.8002 11.7021 28.5756 11.9266 28.1265 11.9266H12.6903C12.2412 11.9266 12.0166 11.7021 12.0166 11.2529V11.1618C12.0166 10.7126 12.2412 10.488 12.6903 10.488Z" fill="#70CAFF"/>
<path id="Vector_7" opacity="0.2" d="M12.8105 13.665H28.2466C28.6957 13.665 28.9203 13.8896 28.9203 14.3388V14.4299C28.9203 14.8791 28.6957 15.1036 28.2466 15.1036H12.8105C12.3613 15.1036 12.1367 14.8791 12.1367 14.4299V14.3388C12.1367 13.8896 12.3613 13.665 12.8105 13.665Z" fill="#70CAFF"/>
<path id="Vector_8" opacity="0.2" d="M12.8105 16.842H28.2466C28.6957 16.842 28.9203 17.0666 28.9203 17.5158V17.6069C28.9203 18.0561 28.6957 18.2806 28.2466 18.2806H12.8105C12.3613 18.2806 12.1367 18.0561 12.1367 17.6069V17.5158C12.1367 17.0666 12.3613 16.842 12.8105 16.842Z" fill="#70CAFF"/>
<path id="Vector_9" opacity="0.2" d="M12.8105 20.0188H28.2466C28.6957 20.0188 28.9203 20.2434 28.9203 20.6925V20.7837C28.9203 21.2328 28.6957 21.4574 28.2466 21.4574H12.8105C12.3613 21.4574 12.1367 21.2328 12.1367 20.7837V20.6925C12.1367 20.2434 12.3613 20.0188 12.8105 20.0188Z" fill="#70CAFF"/>
<path id="Vector_10" opacity="0.2" d="M12.6642 23.1958H21.9192C22.2708 23.1958 22.4467 23.3716 22.4467 23.7233V24.1069C22.4467 24.4586 22.2708 24.6344 21.9192 24.6344H12.6642C12.3125 24.6344 12.1367 24.4586 12.1367 24.1069V23.7233C12.1367 23.3716 12.3125 23.1958 12.6642 23.1958Z" fill="#70CAFF"/>
<path id="Vector_11" d="M8.01078 16.1154C7.9758 16.1154 7.94226 16.1015 7.91753 16.0768C7.8928 16.0521 7.87891 16.0185 7.87891 15.9836V15.715C7.88232 15.6813 7.89776 15.6498 7.92241 15.6265C7.94706 15.6032 7.97927 15.5895 8.01318 15.5879C8.04773 15.5892 8.08041 15.604 8.10418 15.6291C8.12795 15.6542 8.1409 15.6876 8.14025 15.7222V15.9836C8.14026 16.0181 8.12669 16.0513 8.10248 16.076C8.07826 16.1006 8.04533 16.1148 8.01078 16.1154ZM8.04195 15.329C8.00718 15.3259 7.97496 15.3095 7.95213 15.283C7.92931 15.2566 7.91766 15.2224 7.91967 15.1875C7.93405 15.0101 7.95323 14.8351 7.97481 14.66C7.97631 14.6423 7.98138 14.6251 7.98972 14.6093C7.99806 14.5936 8.0095 14.5797 8.02335 14.5685C8.0372 14.5574 8.05317 14.5491 8.0703 14.5442C8.08743 14.5394 8.10536 14.5381 8.12302 14.5403C8.14067 14.5426 8.15769 14.5484 8.17304 14.5574C8.18838 14.5665 8.20174 14.5785 8.21232 14.5928C8.22289 14.6071 8.23045 14.6235 8.23455 14.6408C8.23865 14.6581 8.23919 14.6761 8.23616 14.6936C8.21458 14.8638 8.1954 15.0341 8.18341 15.2067C8.18035 15.2415 8.16387 15.2737 8.13746 15.2965C8.11105 15.3194 8.0768 15.331 8.04195 15.329ZM27.9785 15.3098C27.9453 15.3105 27.9132 15.2985 27.8886 15.2762C27.8641 15.2539 27.8491 15.223 27.8466 15.1899C27.8322 15.0173 27.8154 14.8447 27.7915 14.6768C27.7874 14.6419 27.7971 14.6068 27.8186 14.579C27.8402 14.5512 27.8717 14.533 27.9065 14.5282C27.9408 14.5241 27.9753 14.5336 28.0027 14.5547C28.03 14.5757 28.048 14.6067 28.0528 14.6409C28.0768 14.8159 28.096 14.9909 28.1103 15.1684C28.1124 15.2032 28.1007 15.2375 28.0779 15.2639C28.0551 15.2903 28.0228 15.3068 27.9881 15.3098H27.9785ZM8.18101 14.2908H8.15703C8.12302 14.2838 8.09303 14.264 8.07336 14.2353C8.05369 14.2067 8.04587 14.1716 8.05154 14.1374C8.08511 13.9647 8.12107 13.7921 8.16183 13.6195C8.16608 13.6025 8.17364 13.5865 8.18407 13.5724C8.19451 13.5583 8.20761 13.5464 8.22264 13.5374C8.23767 13.5284 8.25433 13.5224 8.27166 13.5198C8.289 13.5172 8.30667 13.5181 8.32367 13.5224C8.34067 13.5266 8.35667 13.5342 8.37076 13.5446C8.38484 13.555 8.39673 13.5681 8.40574 13.5832C8.41476 13.5982 8.42073 13.6149 8.42331 13.6322C8.42589 13.6495 8.42503 13.6672 8.42078 13.6842C8.37922 13.844 8.34325 14.0119 8.31288 14.1877C8.30623 14.2175 8.28945 14.2441 8.2654 14.2629C8.24135 14.2817 8.21153 14.2915 8.18101 14.2908ZM27.8418 14.274C27.8113 14.2739 27.7818 14.263 27.7586 14.2432C27.7354 14.2235 27.7198 14.1962 27.7147 14.1661C27.6812 13.9959 27.6452 13.8281 27.6068 13.6602C27.6029 13.6435 27.6023 13.6262 27.605 13.6093C27.6078 13.5924 27.6138 13.5762 27.6229 13.5616C27.6319 13.547 27.6437 13.5343 27.6576 13.5243C27.6715 13.5143 27.6873 13.5071 27.7039 13.5032C27.7206 13.4992 27.7379 13.4986 27.7549 13.5014C27.7718 13.5041 27.788 13.5102 27.8026 13.5192C27.8172 13.5282 27.8298 13.54 27.8398 13.5539C27.8499 13.5678 27.8571 13.5836 27.861 13.6003C27.9042 13.7705 27.9401 13.9431 27.9713 14.1182C27.9776 14.1522 27.9704 14.1873 27.9511 14.216C27.9318 14.2447 27.9021 14.2647 27.8682 14.2716L27.8418 14.274ZM8.42078 13.2742H8.38241C8.34894 13.2637 8.32092 13.2405 8.30434 13.2096C8.28776 13.1786 8.28394 13.1425 8.2937 13.1088C8.34325 12.9393 8.3984 12.7715 8.45914 12.6053C8.4648 12.5889 8.47363 12.5738 8.48513 12.5608C8.49663 12.5478 8.51058 12.5373 8.52616 12.5297C8.54175 12.5221 8.55868 12.5177 8.57597 12.5167C8.59327 12.5157 8.6106 12.5181 8.62698 12.5237C8.65961 12.5356 8.68623 12.56 8.70105 12.5914C8.71587 12.6228 8.71768 12.6588 8.7061 12.6916C8.64855 12.8546 8.59581 13.0177 8.54546 13.1855C8.53648 13.2114 8.51965 13.2339 8.4973 13.2498C8.47495 13.2657 8.4482 13.2742 8.42078 13.2742ZM27.602 13.2574C27.5737 13.2569 27.5463 13.2474 27.5238 13.2301C27.5014 13.2128 27.4851 13.1888 27.4774 13.1615C27.427 12.9961 27.3743 12.833 27.3167 12.682C27.3051 12.6492 27.307 12.6132 27.3218 12.5818C27.3366 12.5504 27.3632 12.5261 27.3958 12.5141C27.412 12.5077 27.4293 12.5047 27.4467 12.5052C27.4641 12.5058 27.4812 12.5099 27.4969 12.5173C27.5127 12.5247 27.5267 12.5353 27.5382 12.5484C27.5497 12.5614 27.5583 12.5767 27.5637 12.5933C27.6244 12.7531 27.6796 12.9209 27.7291 13.0968C27.7342 13.1133 27.736 13.1307 27.7343 13.1479C27.7326 13.1651 27.7275 13.1818 27.7192 13.197C27.7109 13.2122 27.6997 13.2256 27.6862 13.2364C27.6726 13.2472 27.6571 13.2551 27.6404 13.2598C27.6276 13.2613 27.6146 13.2605 27.602 13.2574ZM8.77803 12.2984C8.76142 12.3018 8.74429 12.3018 8.72768 12.2984C8.71159 12.2918 8.69696 12.2821 8.68462 12.2698C8.67229 12.2576 8.6625 12.243 8.65582 12.227C8.64913 12.2109 8.64569 12.1937 8.64567 12.1764C8.64566 12.159 8.64909 12.1418 8.65575 12.1257C8.72288 11.9627 8.79481 11.7996 8.87154 11.6462C8.88648 11.6144 8.91344 11.5898 8.94649 11.5779C8.97954 11.566 9.01597 11.5677 9.04777 11.5827C9.07956 11.5976 9.10412 11.6246 9.11603 11.6576C9.12795 11.6907 9.12625 11.7271 9.1113 11.7589C9.03698 11.9147 8.96744 12.073 8.90031 12.2384C8.88545 12.2578 8.86541 12.2726 8.8425 12.2811C8.81959 12.2896 8.79474 12.2914 8.77084 12.2864L8.77803 12.2984ZM27.252 12.284C27.2259 12.2837 27.2004 12.2759 27.1787 12.2614C27.157 12.2469 27.14 12.2264 27.1297 12.2024C27.065 12.0442 26.993 11.8884 26.9211 11.7229C26.9137 11.7072 26.9095 11.6901 26.9087 11.6727C26.9079 11.6554 26.9105 11.638 26.9164 11.6216C26.9283 11.5886 26.9529 11.5616 26.9846 11.5467C27.0164 11.5317 27.0529 11.53 27.0859 11.542C27.119 11.5539 27.1459 11.5784 27.1609 11.6102C27.2376 11.7685 27.3095 11.9291 27.3791 12.0898C27.3919 12.1222 27.3915 12.1584 27.3781 12.1907C27.3647 12.2229 27.3392 12.2486 27.3071 12.2624C27.2875 12.2709 27.2661 12.2742 27.2448 12.272L27.252 12.284ZM9.22159 11.3417C9.19964 11.3422 9.17801 11.3363 9.15926 11.3249C9.14401 11.3169 9.13052 11.3058 9.11958 11.2925C9.10864 11.2792 9.10048 11.2638 9.09556 11.2473C9.09065 11.2308 9.08909 11.2134 9.09097 11.1963C9.09285 11.1791 9.09813 11.1625 9.10651 11.1475C9.19122 10.9876 9.27994 10.8342 9.37265 10.6871C9.3815 10.6724 9.39321 10.6595 9.40709 10.6493C9.42097 10.6391 9.43675 10.6318 9.45349 10.6278C9.47024 10.6238 9.48762 10.6231 9.50462 10.6259C9.52161 10.6287 9.53788 10.6348 9.55247 10.644C9.56733 10.653 9.58023 10.665 9.59045 10.6791C9.60067 10.6932 9.608 10.7091 9.61201 10.7261C9.61602 10.743 9.61664 10.7606 9.61383 10.7778C9.61102 10.795 9.60483 10.8114 9.59563 10.8262C9.50772 10.9716 9.4214 11.1203 9.33668 11.2722C9.3255 11.293 9.30892 11.3105 9.28867 11.3227C9.26842 11.3349 9.24525 11.3415 9.22159 11.3417ZM26.794 11.3417C26.7706 11.342 26.7475 11.3359 26.7272 11.3241C26.7069 11.3122 26.6902 11.2951 26.6789 11.2746C26.5942 11.1243 26.5079 10.9756 26.42 10.8286C26.4108 10.8138 26.4046 10.7974 26.4018 10.7802C26.399 10.763 26.3996 10.7454 26.4036 10.7285C26.4076 10.7115 26.415 10.6956 26.4252 10.6815C26.4354 10.6674 26.4483 10.6554 26.4632 10.6464C26.4778 10.6372 26.494 10.6311 26.511 10.6283C26.528 10.6255 26.5454 10.6262 26.5621 10.6302C26.5789 10.6342 26.5947 10.6415 26.6085 10.6517C26.6224 10.6619 26.6341 10.6748 26.643 10.6895C26.7365 10.8406 26.8252 10.9916 26.9091 11.1475C26.9255 11.1784 26.9292 11.2145 26.9193 11.2481C26.9095 11.2817 26.8869 11.3101 26.8564 11.3273C26.836 11.3328 26.8147 11.3336 26.794 11.3297V11.3417ZM9.77066 10.4617C9.7439 10.4623 9.71774 10.4538 9.69633 10.4378C9.682 10.4281 9.66973 10.4158 9.66026 10.4013C9.65079 10.3869 9.64429 10.3707 9.64117 10.3537C9.63804 10.3368 9.63834 10.3193 9.64205 10.3025C9.64576 10.2856 9.6528 10.2696 9.66276 10.2555C9.76107 10.1093 9.86656 9.96543 9.97446 9.82637C9.98482 9.81243 9.99789 9.80072 10.0129 9.79193C10.0279 9.78314 10.0445 9.77746 10.0617 9.77523C10.0789 9.77299 10.0964 9.77424 10.1131 9.77891C10.1299 9.78357 10.1455 9.79156 10.1591 9.80239C10.1867 9.82373 10.2047 9.85514 10.2092 9.88975C10.2137 9.92435 10.2043 9.95933 10.1831 9.98701C10.0776 10.1237 9.97686 10.2627 9.87855 10.4042C9.86507 10.4193 9.84839 10.4312 9.82973 10.4391C9.81107 10.447 9.7909 10.4506 9.77066 10.4498V10.4617ZM26.245 10.4617C26.2236 10.4618 26.2026 10.4566 26.1838 10.4465C26.165 10.4365 26.1489 10.4219 26.1371 10.4042C26.0388 10.2627 25.9381 10.1237 25.8326 9.98941C25.8113 9.96172 25.8019 9.92675 25.8064 9.89214C25.8109 9.85754 25.8289 9.82613 25.8566 9.80479C25.8701 9.79396 25.8858 9.78597 25.9025 9.78131C25.9192 9.77664 25.9367 9.77539 25.9539 9.77762C25.9712 9.77986 25.9878 9.78554 26.0028 9.79433C26.0177 9.80311 26.0308 9.81482 26.0412 9.82876C26.1491 9.96783 26.2522 10.1117 26.3529 10.2555C26.3628 10.2696 26.3699 10.2856 26.3736 10.3025C26.3773 10.3193 26.3776 10.3368 26.3745 10.3537C26.3713 10.3707 26.3648 10.3869 26.3554 10.4013C26.3459 10.4158 26.3336 10.4281 26.3193 10.4378C26.2954 10.4464 26.2694 10.4473 26.245 10.4402V10.4617ZM10.4084 9.62017C10.3835 9.61941 10.3592 9.61172 10.3384 9.59795C10.3176 9.58418 10.301 9.56489 10.2906 9.54223C10.2801 9.51957 10.2762 9.49444 10.2792 9.46967C10.2823 9.44489 10.2921 9.42145 10.3077 9.40198C10.4228 9.26771 10.5475 9.13584 10.6626 9.00877C10.6868 8.98333 10.72 8.96853 10.7551 8.96764C10.7902 8.96674 10.8242 8.97981 10.8496 9.00397C10.875 9.02813 10.8898 9.06141 10.8907 9.09649C10.8916 9.13156 10.8786 9.16555 10.8544 9.19099C10.7345 9.31567 10.6146 9.44274 10.5067 9.57221C10.495 9.58702 10.48 9.59901 10.463 9.60731C10.446 9.61561 10.4274 9.62 10.4084 9.62017ZM25.6072 9.62017C25.5885 9.61997 25.5701 9.61581 25.5531 9.60795C25.5362 9.6001 25.5211 9.58873 25.5089 9.57461C25.3962 9.44274 25.2691 9.31567 25.1612 9.19099C25.1493 9.17839 25.1399 9.16357 25.1337 9.14735C25.1274 9.13114 25.1244 9.11385 25.1249 9.09649C25.1253 9.07912 25.1292 9.06201 25.1363 9.04614C25.1433 9.03026 25.1534 9.01593 25.166 9.00397C25.1786 8.99201 25.1934 8.98264 25.2097 8.9764C25.2259 8.97017 25.2432 8.96719 25.2605 8.96764C25.2779 8.96808 25.295 8.97194 25.3109 8.979C25.3267 8.98606 25.3411 8.99617 25.353 9.00877C25.4729 9.13824 25.5928 9.26771 25.7079 9.40198C25.7193 9.41516 25.728 9.43048 25.7335 9.44704C25.739 9.46361 25.7411 9.4811 25.7398 9.49849C25.7384 9.51589 25.7336 9.53285 25.7257 9.54838C25.7178 9.56392 25.7068 9.57772 25.6935 9.589C25.6675 9.60445 25.6373 9.61117 25.6072 9.60818V9.62017ZM11.1277 8.86011C11.1098 8.86033 11.092 8.85682 11.0755 8.84981C11.059 8.84279 11.0441 8.83242 11.0318 8.81935C11.0077 8.7947 10.9941 8.76156 10.9941 8.72704C10.9941 8.69252 11.0077 8.65938 11.0318 8.63473C11.1613 8.51245 11.2932 8.39496 11.4274 8.27988C11.4543 8.26196 11.4867 8.2545 11.5187 8.25891C11.5507 8.26332 11.5799 8.2793 11.6009 8.30382C11.6219 8.32834 11.6331 8.3597 11.6325 8.39196C11.6319 8.42422 11.6195 8.45515 11.5977 8.47888C11.4658 8.59157 11.3387 8.71865 11.214 8.82415C11.1906 8.84627 11.1599 8.85907 11.1277 8.86011ZM24.8879 8.86011C24.854 8.86052 24.8213 8.8476 24.7968 8.82415C24.6721 8.70426 24.5426 8.58438 24.4132 8.47888C24.3865 8.45609 24.3698 8.42375 24.3666 8.3888C24.3635 8.35384 24.3742 8.31905 24.3964 8.29187C24.4077 8.27855 24.4215 8.26761 24.437 8.25967C24.4525 8.25174 24.4695 8.24696 24.4869 8.24562C24.5043 8.24428 24.5218 8.24641 24.5383 8.25188C24.5549 8.25735 24.5702 8.26605 24.5834 8.27748C24.7177 8.39257 24.8495 8.51725 24.9766 8.63233C24.9889 8.64459 24.9987 8.65916 25.0054 8.67521C25.0121 8.69125 25.0155 8.70846 25.0155 8.72584C25.0155 8.74322 25.0121 8.76043 25.0054 8.77648C24.9987 8.79253 24.9889 8.8071 24.9766 8.81935C24.9527 8.84223 24.921 8.8551 24.8879 8.85532V8.86011ZM11.9238 8.18157C11.8952 8.18285 11.8671 8.17483 11.8435 8.15873C11.8199 8.14263 11.8022 8.11931 11.793 8.09228C11.7838 8.06525 11.7837 8.03597 11.7925 8.00884C11.8014 7.9817 11.8188 7.95818 11.8422 7.94181C11.9837 7.83631 12.1252 7.73081 12.2714 7.63011C12.3003 7.6104 12.3359 7.60299 12.3703 7.60951C12.4047 7.61603 12.4351 7.63594 12.4548 7.66488C12.4746 7.69381 12.482 7.72939 12.4754 7.76379C12.4689 7.79819 12.449 7.82859 12.4201 7.8483C12.2794 7.9458 12.1403 8.0465 12.0029 8.1504C11.9808 8.16941 11.9529 8.18039 11.9238 8.18157ZM24.0895 8.18157C24.0609 8.18213 24.0329 8.17281 24.0104 8.1552C23.8737 8.0497 23.7346 7.949 23.5932 7.8507C23.5788 7.84107 23.5666 7.82868 23.5571 7.81425C23.5476 7.79982 23.5411 7.78363 23.538 7.76666C23.5349 7.74968 23.5352 7.73224 23.5389 7.71538C23.5426 7.69852 23.5496 7.68257 23.5596 7.66847C23.5795 7.64004 23.6097 7.62058 23.6438 7.61429C23.6779 7.60801 23.7131 7.61542 23.7418 7.63491C23.8881 7.73561 24.0295 7.83871 24.171 7.9466C24.1944 7.96298 24.2118 7.9865 24.2207 8.01363C24.2296 8.04077 24.2294 8.07005 24.2202 8.09708C24.211 8.12411 24.1933 8.14742 24.1697 8.16353C24.1462 8.17963 24.118 8.18764 24.0895 8.18637V8.18157ZM12.7845 7.58695C12.7619 7.5873 12.7396 7.58173 12.7199 7.57079C12.7001 7.55985 12.6835 7.54393 12.6718 7.52461C12.6627 7.51002 12.6565 7.49375 12.6538 7.47676C12.651 7.45976 12.6516 7.44238 12.6556 7.42564C12.6597 7.40889 12.667 7.39312 12.6772 7.37923C12.6874 7.36535 12.7002 7.35364 12.715 7.34479C12.866 7.25128 13.0195 7.16257 13.1729 7.07865C13.2047 7.0618 13.2419 7.05827 13.2763 7.06883C13.3107 7.0794 13.3395 7.1032 13.3564 7.135C13.3732 7.16679 13.3767 7.20398 13.3662 7.23837C13.3556 7.27277 13.3318 7.30156 13.3 7.31842C13.149 7.39994 13.0003 7.48625 12.8517 7.57497C12.8311 7.58595 12.8076 7.59015 12.7845 7.58695ZM23.2287 7.58695C23.2041 7.5877 23.1799 7.58101 23.1592 7.56777C23.0129 7.47906 22.8643 7.39274 22.7108 7.30883C22.6805 7.2921 22.658 7.26412 22.6481 7.23092C22.6382 7.19772 22.6418 7.16197 22.6581 7.1314C22.6664 7.11607 22.6776 7.10253 22.6911 7.09156C22.7047 7.0806 22.7203 7.07243 22.737 7.06752C22.7537 7.06262 22.7712 7.06108 22.7886 7.06299C22.8059 7.0649 22.8226 7.07022 22.8379 7.07865C22.9937 7.16257 23.1448 7.25128 23.2958 7.34239C23.3107 7.35147 23.3236 7.3634 23.3338 7.3775C23.3441 7.39159 23.3514 7.40757 23.3554 7.42451C23.3594 7.44145 23.36 7.45902 23.3572 7.4762C23.3544 7.49338 23.3482 7.50984 23.339 7.52461C23.3271 7.54286 23.3107 7.55773 23.2914 7.56781C23.2721 7.57788 23.2505 7.58282 23.2287 7.58216V7.58695ZM13.6956 7.08824C13.6709 7.0886 13.6467 7.08177 13.6258 7.06857C13.605 7.05537 13.5884 7.03638 13.5781 7.01391C13.5705 6.99837 13.566 6.98145 13.565 6.96416C13.564 6.94686 13.5665 6.92954 13.5723 6.91322C13.5781 6.89689 13.5871 6.88191 13.5989 6.86914C13.6106 6.85637 13.6247 6.84608 13.6405 6.83888C13.8003 6.76216 13.9602 6.69023 14.12 6.62309C14.1361 6.61643 14.1533 6.61301 14.1707 6.61302C14.188 6.61303 14.2052 6.61648 14.2213 6.62316C14.2373 6.62985 14.2519 6.63964 14.2641 6.65197C14.2764 6.6643 14.2861 6.67894 14.2926 6.69502C14.2993 6.71091 14.3027 6.72795 14.3026 6.74515C14.3026 6.76236 14.2991 6.77939 14.2924 6.79524C14.2857 6.81109 14.2759 6.82544 14.2636 6.83746C14.2513 6.84949 14.2367 6.85894 14.2207 6.86526C14.0625 6.93239 13.9066 7.00193 13.7412 7.07625C13.727 7.08328 13.7115 7.08736 13.6956 7.08824ZM22.3032 7.08824C22.2832 7.08805 22.2635 7.08312 22.2457 7.07385C22.0898 6.99953 21.934 6.93 21.7661 6.86526C21.7398 6.84857 21.7203 6.8231 21.7109 6.79337C21.7016 6.76363 21.7031 6.73155 21.7152 6.70282C21.7272 6.67409 21.7491 6.65056 21.7769 6.6364C21.8046 6.62225 21.8365 6.61838 21.8668 6.62549C22.0299 6.69502 22.1929 6.76695 22.3464 6.84128C22.3684 6.8562 22.3855 6.87744 22.3952 6.90221C22.405 6.92698 22.407 6.95413 22.401 6.98007C22.395 7.00602 22.3814 7.02955 22.3618 7.04757C22.3422 7.0656 22.3176 7.07727 22.2912 7.08105L22.3032 7.08824ZM14.6667 6.68783C14.6364 6.68698 14.6073 6.67573 14.5843 6.65596C14.5614 6.63619 14.5459 6.60911 14.5406 6.57928C14.5352 6.54945 14.5403 6.51869 14.555 6.49217C14.5697 6.46565 14.593 6.445 14.6211 6.43368C14.789 6.37454 14.9568 6.31939 15.1246 6.26824C15.1583 6.25848 15.1945 6.2623 15.2254 6.27888C15.2563 6.29546 15.2796 6.32349 15.2901 6.35696C15.2998 6.39034 15.2959 6.42619 15.2793 6.45673C15.2626 6.48726 15.2346 6.51 15.2014 6.52C15.0359 6.57035 14.8705 6.6231 14.7098 6.68064C14.6959 6.68534 14.6814 6.68777 14.6667 6.68783ZM21.3394 6.68783C21.3251 6.69012 21.3105 6.69012 21.2962 6.68783C21.1332 6.63029 20.9701 6.57754 20.8023 6.52719C20.7673 6.51574 20.7383 6.49087 20.7217 6.45805C20.705 6.42522 20.7021 6.38713 20.7136 6.35216C20.725 6.31719 20.7499 6.28819 20.7827 6.27155C20.8155 6.25492 20.8536 6.252 20.8886 6.26345C21.0588 6.3138 21.2291 6.36894 21.3945 6.42649C21.424 6.43666 21.449 6.45696 21.4649 6.4838C21.4809 6.51064 21.4868 6.54226 21.4816 6.57304C21.4764 6.60383 21.4605 6.63177 21.4366 6.65191C21.4128 6.67206 21.3826 6.68308 21.3513 6.68304L21.3394 6.68783ZM15.6689 6.39052C15.6392 6.3904 15.6104 6.38046 15.587 6.36224C15.5636 6.34402 15.5468 6.31855 15.5394 6.28982C15.5322 6.25585 15.5383 6.22038 15.5567 6.19088C15.575 6.16137 15.6041 6.14011 15.6377 6.13158C15.808 6.09081 15.983 6.05245 16.1556 6.02128C16.1891 6.01696 16.2229 6.02562 16.2502 6.04548C16.2774 6.06534 16.2961 6.09489 16.3022 6.12805C16.3083 6.16122 16.3015 6.19548 16.2832 6.22378C16.2648 6.25209 16.2364 6.27229 16.2036 6.28023C16.0341 6.3106 15.8663 6.34657 15.7001 6.38812L15.6689 6.39052ZM20.3347 6.39052H20.3036C20.1381 6.34976 19.9679 6.31619 19.8001 6.28503C19.7659 6.27804 19.7357 6.25826 19.7156 6.22973C19.6956 6.20121 19.6872 6.16609 19.6922 6.13158C19.6986 6.09726 19.7183 6.06689 19.7471 6.04711C19.7759 6.02734 19.8113 6.01977 19.8456 6.02608C20.0206 6.05725 20.1933 6.09321 20.3659 6.13397C20.3995 6.14248 20.4283 6.16384 20.4463 6.19345C20.4642 6.22306 20.4698 6.25853 20.4618 6.29222C20.4543 6.31984 20.4376 6.34411 20.4145 6.36108C20.3915 6.37805 20.3634 6.38674 20.3347 6.38573V6.39052ZM16.6975 6.2059C16.6654 6.20566 16.6344 6.19391 16.6102 6.1728C16.586 6.15168 16.5702 6.1226 16.5656 6.09081C16.5633 6.07361 16.5644 6.05611 16.569 6.03936C16.5735 6.0226 16.5814 6.00694 16.5922 5.99329C16.6029 5.97965 16.6163 5.9683 16.6315 5.95993C16.6467 5.95156 16.6634 5.94633 16.6807 5.94456C16.8533 5.92058 17.0308 5.9014 17.2058 5.88701C17.2408 5.88415 17.2755 5.8953 17.3022 5.91801C17.329 5.94072 17.3456 5.97312 17.3485 6.0081C17.3513 6.04307 17.3402 6.07775 17.3175 6.1045C17.2948 6.13126 17.2624 6.14789 17.2274 6.15076C17.0547 6.16514 16.8845 6.18193 16.7143 6.20351L16.6975 6.2059ZM19.3061 6.2059H19.2894C19.1191 6.18432 18.9489 6.16754 18.7763 6.15315C18.759 6.15224 18.7422 6.1479 18.7266 6.14038C18.7111 6.13286 18.6972 6.12231 18.6859 6.10936C18.6745 6.0964 18.6658 6.0813 18.6603 6.06494C18.6548 6.04858 18.6527 6.03129 18.654 6.01409C18.6552 5.99676 18.6598 5.97983 18.6676 5.96429C18.6754 5.94875 18.6861 5.93491 18.6993 5.92354C18.7124 5.91218 18.7277 5.90353 18.7442 5.89808C18.7607 5.89263 18.7781 5.8905 18.7954 5.89181C18.9729 5.90619 19.1479 5.92298 19.3229 5.94696C19.3547 5.95283 19.3831 5.97013 19.403 5.99558C19.4228 6.02103 19.4326 6.05288 19.4305 6.08508C19.4285 6.11728 19.4147 6.1476 19.3917 6.17031C19.3688 6.19302 19.3384 6.20654 19.3061 6.2083V6.2059ZM17.7405 6.12678C17.7059 6.12679 17.6727 6.11322 17.6481 6.08901C17.6234 6.06479 17.6092 6.03186 17.6086 5.99731C17.608 5.96273 17.6209 5.92929 17.6447 5.90418C17.6684 5.87906 17.7011 5.86429 17.7357 5.86304H18.2656C18.283 5.86303 18.3002 5.86653 18.3162 5.87333C18.3323 5.88014 18.3468 5.8901 18.3589 5.90264C18.3709 5.91517 18.3804 5.93002 18.3866 5.94629C18.3928 5.96255 18.3957 5.9799 18.395 5.99731C18.3932 6.03166 18.3782 6.06399 18.3533 6.08763C18.3283 6.11128 18.2952 6.12443 18.2608 6.12438H17.7429L17.7405 6.12678ZM28.0096 16.1154C27.9747 16.1154 27.9411 16.1015 27.9164 16.0768C27.8917 16.0521 27.8778 16.0185 27.8778 15.9836V15.7222C27.8771 15.6876 27.8901 15.6542 27.9138 15.6291C27.9376 15.604 27.9703 15.5892 28.0049 15.5879C28.0399 15.5879 28.0736 15.6013 28.099 15.6254C28.1245 15.6495 28.1397 15.6824 28.1415 15.7174V15.9836C28.1415 16.0185 28.1276 16.0521 28.1029 16.0768C28.0782 16.1015 28.0446 16.1154 28.0096 16.1154Z" fill="#5BC1F4"/>
<path id="Vector_12" d="M27.2205 15.9835C27.2217 14.2964 26.7595 12.6413 25.8845 11.1989C25.0094 9.75649 23.755 8.58209 22.2581 7.80382C20.7612 7.02556 19.0793 6.67332 17.3959 6.78554C15.7126 6.89776 14.0923 7.47013 12.712 8.4402C11.3317 9.41027 10.2442 10.7408 9.56838 12.2866C8.8925 13.8324 8.65413 15.5342 8.87927 17.2062C9.1044 18.8782 9.7844 20.4563 10.8451 21.7683C11.9057 23.0803 13.3064 24.0758 14.8941 24.6462L12.6307 28.5688C12.5381 28.7288 12.4892 28.9104 12.489 29.0953C12.4889 29.2802 12.5374 29.4619 12.6298 29.6221C12.7221 29.7823 12.8551 29.9153 13.0152 30.0078C13.1753 30.1003 13.3569 30.1489 13.5418 30.1489H22.4899C22.6748 30.1489 22.8565 30.1003 23.0166 30.0078C23.1767 29.9153 23.3096 29.7823 23.402 29.6221C23.4944 29.4619 23.5429 29.2802 23.5427 29.0953C23.5426 28.9104 23.4937 28.7288 23.401 28.5688L21.128 24.6462C22.9112 24.0042 24.4529 22.8278 25.5432 21.2776C26.6334 19.7274 27.2191 17.8787 27.2205 15.9835Z" fill="#5BC1F4"/>
<path id="Vector_13" d="M10.1182 15.9837C10.1182 18.077 10.9498 20.0847 12.43 21.5649C13.9102 23.0452 15.9179 23.8768 18.0113 23.8768C20.1046 23.8768 22.1123 23.0452 23.5925 21.5649C25.0728 20.0847 25.9043 18.077 25.9043 15.9837C25.9043 13.8903 25.0728 11.8827 23.5925 10.4024C22.1123 8.92217 20.1046 8.09058 18.0113 8.09058C15.9179 8.09058 13.9102 8.92217 12.43 10.4024C10.9498 11.8827 10.1182 13.8903 10.1182 15.9837Z" fill="#F3F7FC"/>
<path id="Vector_14" d="M27.9183 19.158C27.8713 19.1573 27.8246 19.1509 27.7792 19.1388C27.6445 19.1018 27.5299 19.0128 27.4607 18.8915C27.3915 18.7701 27.3732 18.6262 27.41 18.4914C27.824 16.9674 27.8553 15.3646 27.5011 13.8256C27.4693 13.6898 27.4927 13.547 27.5662 13.4285C27.6398 13.31 27.7573 13.2256 27.8931 13.1938C28.0289 13.162 28.1717 13.1854 28.2902 13.2589C28.4087 13.3325 28.4931 13.45 28.5249 13.5858C28.92 15.2954 28.8862 17.0762 28.4266 18.7695C28.3961 18.881 28.3299 18.9794 28.238 19.0496C28.1462 19.1198 28.0339 19.1578 27.9183 19.158ZM8.25028 19.6471C8.13982 19.6475 8.03205 19.613 7.94245 19.5483C7.85285 19.4837 7.78603 19.3924 7.75157 19.2874C7.39921 18.2216 7.2203 17.106 7.22169 15.9835C7.22207 15.3516 7.27823 14.7209 7.38952 14.0989C7.41432 13.9615 7.49267 13.8397 7.60733 13.7601C7.66411 13.7207 7.72809 13.6928 7.79562 13.6782C7.86315 13.6635 7.93292 13.6622 8.00093 13.6745C8.06894 13.6868 8.13386 13.7123 8.192 13.7497C8.25013 13.7871 8.30034 13.8355 8.33975 13.8923C8.37915 13.9491 8.40699 14.0131 8.42167 14.0806C8.43636 14.1481 8.43759 14.2179 8.42531 14.2859C8.1445 15.8464 8.25572 17.4521 8.749 18.959C8.79245 19.0903 8.78233 19.2335 8.72082 19.3574C8.65932 19.4813 8.5514 19.5759 8.42052 19.6207C8.36574 19.6394 8.30813 19.6483 8.25028 19.6471Z" fill="#5BC1F4"/>
<path id="Vector_15" d="M18.0113 22.6923C16.6835 22.6923 15.3855 22.2985 14.2815 21.5609C13.1775 20.8232 12.317 19.7747 11.8089 18.548C11.3008 17.3212 11.1678 15.9714 11.4269 14.6691C11.6859 13.3668 12.3253 12.1706 13.2642 11.2317C14.2031 10.2928 15.3993 9.65342 16.7016 9.39438C18.0038 9.13534 19.3537 9.26829 20.5804 9.77641C21.8071 10.2845 22.8556 11.145 23.5933 12.249C24.331 13.3531 24.7247 14.651 24.7247 15.9788C24.7247 17.7593 24.0174 19.4669 22.7584 20.7259C21.4994 21.985 19.7918 22.6923 18.0113 22.6923ZM18.0113 9.53632C16.736 9.53585 15.4893 9.91357 14.4287 10.6217C13.3681 11.3299 12.5414 12.3366 12.0531 13.5147C11.5647 14.6927 11.4367 15.9891 11.6852 17.24C11.9337 18.4908 12.5475 19.6398 13.4491 20.5417C14.3507 21.4436 15.4995 22.0579 16.7502 22.3069C18.0009 22.5558 19.2974 22.4283 20.4756 21.9404C21.6539 21.4525 22.6609 20.6261 23.3695 19.5658C24.078 18.5055 24.4562 17.2589 24.4562 15.9836C24.4543 14.2747 23.7748 12.6363 22.5666 11.4276C21.3584 10.219 19.7202 9.53886 18.0113 9.53632Z" fill="#70CAFF"/>
<path id="Vector_16" d="M18.3322 18.8798H18.2722C18.1118 18.8676 17.9595 18.8045 17.8375 18.6997C17.7154 18.5949 17.63 18.4539 17.5937 18.2972L16.7353 14.624L15.6492 16.7819C15.5866 16.9048 15.4917 17.0083 15.3747 17.0814C15.2577 17.1544 15.123 17.1943 14.9851 17.1967L12.8416 17.2374C12.7081 17.2284 12.5831 17.169 12.4917 17.0713C12.4004 16.9736 12.3496 16.8449 12.3496 16.7111C12.3496 16.5774 12.4004 16.4486 12.4917 16.3509C12.5831 16.2532 12.7081 16.1939 12.8416 16.1849L14.8076 16.1489L16.1791 13.4371C16.2497 13.2984 16.3613 13.1847 16.4986 13.1114C16.636 13.0382 16.7925 13.0088 16.9471 13.0274C17.1016 13.046 17.2467 13.1115 17.3628 13.2153C17.4789 13.319 17.5603 13.4559 17.5961 13.6074L18.4281 17.1655L18.9388 15.9091C18.9933 15.7701 19.0877 15.6504 19.2102 15.5651C19.3327 15.4797 19.4777 15.4326 19.6269 15.4296L23.2234 15.3625C23.3572 15.3687 23.4837 15.4257 23.577 15.5217C23.6704 15.6178 23.7237 15.7458 23.7262 15.8798C23.7286 16.0137 23.68 16.1436 23.5902 16.243C23.5004 16.3424 23.3761 16.4039 23.2426 16.415L19.8523 16.4774L19.0347 18.4075C18.9782 18.5474 18.8811 18.6671 18.7558 18.7513C18.6306 18.8355 18.4831 18.8803 18.3322 18.8798Z" fill="#FF9600"/>
</g>
<defs>
<clipPath id="clip0_802_5929">
<rect width="36" height="36" fill="white"/>
</clipPath>
</defs>
</svg>
