<svg width="36" height="36" viewBox="0 0 36 36" fill="none" xmlns="http://www.w3.org/2000/svg">
<g id="Frame" clip-path="url(#clip0_802_5956)">
<path id="Vector" opacity="0.2" d="M0 18C0 22.7739 1.89642 27.3523 5.27208 30.7279C8.64773 34.1036 13.2261 36 18 36C22.7739 36 27.3523 34.1036 30.7279 30.7279C34.1036 27.3523 36 22.7739 36 18C36 13.2261 34.1036 8.64773 30.7279 5.27208C27.3523 1.89642 22.7739 0 18 0C13.2261 0 8.64773 1.89642 5.27208 5.27208C1.89642 8.64773 0 13.2261 0 18Z" fill="#1990FF"/>
<path id="Vector_2" d="M3.59961 18.0001C3.59961 21.8192 5.11675 25.4819 7.81727 28.1824C10.5178 30.883 14.1805 32.4001 17.9996 32.4001C21.8187 32.4001 25.4814 30.883 28.1819 28.1824C30.8825 25.4819 32.3996 21.8192 32.3996 18.0001C32.3996 14.181 30.8825 10.5183 28.1819 7.81776C25.4814 5.11724 21.8187 3.6001 17.9996 3.6001C14.1805 3.6001 10.5178 5.11724 7.81727 7.81776C5.11675 10.5183 3.59961 14.181 3.59961 18.0001Z" fill="#1990FF"/>
<path id="Vector_3" d="M1.75797e-08 2.63996C-3.19002e-05 2.8606 0.043399 3.07909 0.127813 3.28294C0.212226 3.4868 0.335969 3.67203 0.491975 3.82806C0.64798 3.98408 0.833193 4.10785 1.03704 4.1923C1.24088 4.27674 1.45936 4.3202 1.68 4.3202C1.90064 4.3202 2.11912 4.27674 2.32296 4.1923C2.52681 4.10785 2.71202 3.98408 2.86803 3.82806C3.02403 3.67203 3.14777 3.4868 3.23219 3.28294C3.3166 3.07909 3.36003 2.8606 3.36 2.63996C3.36003 2.41932 3.3166 2.20083 3.23219 1.99698C3.14777 1.79312 3.02403 1.60789 2.86803 1.45186C2.71202 1.29584 2.52681 1.17207 2.32296 1.08762C2.11912 1.00318 1.90064 0.959717 1.68 0.959717C1.45936 0.959717 1.24088 1.00318 1.03704 1.08762C0.833193 1.17207 0.64798 1.29584 0.491975 1.45186C0.335969 1.60789 0.212226 1.79312 0.127813 1.99698C0.043399 2.20083 -3.19002e-05 2.41932 1.75797e-08 2.63996Z" fill="#1990FF"/>
<path id="Vector_4" d="M34.5596 32.3999C34.5596 32.5909 34.6354 32.774 34.7705 32.909C34.9055 33.0441 35.0886 33.1199 35.2796 33.1199C35.4705 33.1199 35.6537 33.0441 35.7887 32.909C35.9237 32.774 35.9996 32.5909 35.9996 32.3999C35.9996 32.209 35.9237 32.0258 35.7887 31.8908C35.6537 31.7558 35.4705 31.6799 35.2796 31.6799C35.0886 31.6799 34.9055 31.7558 34.7705 31.8908C34.6354 32.0258 34.5596 32.209 34.5596 32.3999Z" fill="#1990FF"/>
<path id="Vector_5" d="M8.88047 6.47998H27.1205C28.7205 6.47998 29.5205 7.27998 29.5205 8.87998V27.12C29.5205 28.72 28.7205 29.52 27.1205 29.52H8.88047C7.28047 29.52 6.48047 28.72 6.48047 27.12V8.87998C6.48047 7.27998 7.28047 6.47998 8.88047 6.47998Z" fill="#70CAFF"/>
<path id="Vector_6" d="M9.36039 8.63989H26.6404C27.2804 8.63989 27.6004 8.95989 27.6004 9.59989C27.6004 10.2399 27.2804 10.5599 26.6404 10.5599H9.36039C8.72039 10.5599 8.40039 10.2399 8.40039 9.59989C8.40039 8.95989 8.72039 8.63989 9.36039 8.63989Z" fill="#1990FF"/>
<path id="Vector_7" d="M25.3148 27.6001H10.6748C10.3972 27.6053 10.1286 27.5009 9.9274 27.3095C9.72616 27.1182 9.6084 26.8553 9.59961 26.5777L9.97161 21.8209L9.59961 15.5641V9.6001H26.3996V15.5641L26.042 21.8209L26.3996 26.5777C26.3908 26.857 26.2717 27.1214 26.0684 27.313C25.8651 27.5046 25.5941 27.6079 25.3148 27.6001Z" fill="#F3F7FC"/>
<path id="Vector_8" d="M11.8388 11.7432L11.9852 12.0432C11.9952 12.0623 12.0095 12.0787 12.027 12.0913C12.0445 12.1038 12.0648 12.112 12.086 12.1152L12.4172 12.1632C12.4445 12.1649 12.4705 12.1748 12.4919 12.1917C12.5133 12.2085 12.5291 12.2315 12.5372 12.2575C12.5453 12.2836 12.5452 12.3114 12.5371 12.3375C12.529 12.3635 12.5131 12.3864 12.4916 12.4032L12.2516 12.6432C12.2355 12.6583 12.2233 12.6772 12.2162 12.6981C12.2091 12.719 12.2073 12.7414 12.2108 12.7632L12.2684 13.092C12.2726 13.1166 12.2698 13.1419 12.2603 13.165C12.2509 13.1882 12.2352 13.2082 12.215 13.2229C12.1948 13.2376 12.171 13.2464 12.1461 13.2483C12.1212 13.2502 12.0962 13.2451 12.074 13.2336L11.7788 13.0776C11.7598 13.0669 11.7383 13.0612 11.7164 13.0612C11.6946 13.0612 11.6731 13.0669 11.654 13.0776L11.3564 13.2336C11.3343 13.2451 11.3093 13.2502 11.2844 13.2483C11.2595 13.2464 11.2356 13.2376 11.2155 13.2229C11.1953 13.2082 11.1796 13.1882 11.1701 13.165C11.1607 13.1419 11.1579 13.1166 11.162 13.092L11.2196 12.7632C11.2231 12.7416 11.2215 12.7195 11.2148 12.6986C11.2081 12.6778 11.1966 12.6588 11.1812 12.6432L10.9412 12.4032C10.9198 12.3864 10.9039 12.3635 10.8958 12.3375C10.8876 12.3114 10.8876 12.2836 10.8957 12.2575C10.9037 12.2315 10.9195 12.2085 10.941 12.1917C10.9624 12.1748 10.9884 12.1649 11.0156 12.1632L11.3444 12.1152C11.3659 12.1124 11.3862 12.1043 11.4038 12.0918C11.4214 12.0792 11.4356 12.0625 11.4452 12.0432L11.594 11.7432C11.6047 11.7197 11.6219 11.6997 11.6436 11.6857C11.6653 11.6717 11.6906 11.6643 11.7164 11.6643C11.7423 11.6643 11.7675 11.6717 11.7893 11.6857C11.811 11.6997 11.8282 11.7197 11.8388 11.7432ZM14.3588 11.7432L14.5052 12.0432C14.5152 12.0623 14.5295 12.0787 14.547 12.0913C14.5645 12.1038 14.5848 12.112 14.606 12.1152L14.9372 12.1632C14.9644 12.1649 14.9905 12.1748 15.0119 12.1917C15.0333 12.2085 15.0491 12.2315 15.0572 12.2575C15.0653 12.2836 15.0652 12.3114 15.0571 12.3375C15.049 12.3635 15.0331 12.3864 15.0116 12.4032L14.7716 12.6432C14.7555 12.6583 14.7433 12.6772 14.7362 12.6981C14.7291 12.719 14.7273 12.7414 14.7308 12.7632L14.7884 13.092C14.7926 13.1166 14.7898 13.1419 14.7803 13.165C14.7709 13.1882 14.7552 13.2082 14.735 13.2229C14.7148 13.2376 14.691 13.2464 14.6661 13.2483C14.6412 13.2502 14.6162 13.2451 14.594 13.2336L14.2988 13.0776C14.2798 13.0669 14.2583 13.0612 14.2364 13.0612C14.2146 13.0612 14.1931 13.0669 14.174 13.0776L13.8764 13.2336C13.8543 13.2451 13.8293 13.2502 13.8044 13.2483C13.7795 13.2464 13.7556 13.2376 13.7355 13.2229C13.7153 13.2082 13.6996 13.1882 13.6901 13.165C13.6807 13.1419 13.6779 13.1166 13.682 13.092L13.7396 12.7632C13.7431 12.7416 13.7415 12.7195 13.7348 12.6986C13.7281 12.6778 13.7166 12.6588 13.7012 12.6432L13.4612 12.4032C13.4398 12.3864 13.4239 12.3635 13.4158 12.3375C13.4076 12.3114 13.4076 12.2836 13.4157 12.2575C13.4237 12.2315 13.4395 12.2085 13.461 12.1917C13.4824 12.1748 13.5084 12.1649 13.5356 12.1632L13.8644 12.1152C13.8859 12.1124 13.9062 12.1043 13.9238 12.0918C13.9414 12.0792 13.9556 12.0625 13.9652 12.0432L14.114 11.7432C14.1247 11.7197 14.1419 11.6997 14.1636 11.6857C14.1853 11.6717 14.2106 11.6643 14.2364 11.6643C14.2623 11.6643 14.2875 11.6717 14.3093 11.6857C14.331 11.6997 14.3482 11.7197 14.3588 11.7432ZM16.8788 11.7432L17.0252 12.0432C17.0352 12.0623 17.0495 12.0787 17.067 12.0913C17.0845 12.1038 17.1048 12.112 17.126 12.1152L17.4572 12.1632C17.4845 12.1649 17.5105 12.1748 17.5319 12.1917C17.5533 12.2085 17.5691 12.2315 17.5772 12.2575C17.5853 12.2836 17.5853 12.3114 17.5771 12.3375C17.569 12.3635 17.5531 12.3864 17.5316 12.4032L17.2916 12.6432C17.2755 12.6583 17.2633 12.6772 17.2562 12.6981C17.2491 12.719 17.2473 12.7414 17.2508 12.7632L17.3084 13.092C17.3126 13.1166 17.3098 13.1419 17.3003 13.165C17.2909 13.1882 17.2752 13.2082 17.255 13.2229C17.2348 13.2376 17.211 13.2464 17.1861 13.2483C17.1612 13.2502 17.1362 13.2451 17.114 13.2336L16.8188 13.0776C16.7998 13.0669 16.7783 13.0612 16.7564 13.0612C16.7346 13.0612 16.7131 13.0669 16.694 13.0776L16.3964 13.2336C16.3743 13.2451 16.3493 13.2502 16.3244 13.2483C16.2995 13.2464 16.2756 13.2376 16.2555 13.2229C16.2353 13.2082 16.2196 13.1882 16.2101 13.165C16.2007 13.1419 16.1979 13.1166 16.202 13.092L16.2596 12.7632C16.2631 12.7416 16.2615 12.7195 16.2548 12.6986C16.2481 12.6778 16.2366 12.6588 16.2212 12.6432L15.9812 12.4032C15.9598 12.3864 15.9439 12.3635 15.9358 12.3375C15.9276 12.3114 15.9276 12.2836 15.9357 12.2575C15.9437 12.2315 15.9595 12.2085 15.981 12.1917C16.0024 12.1748 16.0284 12.1649 16.0556 12.1632L16.3844 12.1152C16.4059 12.1124 16.4262 12.1043 16.4438 12.0918C16.4614 12.0792 16.4756 12.0625 16.4852 12.0432L16.634 11.7432C16.6447 11.7197 16.6619 11.6997 16.6836 11.6857C16.7053 11.6717 16.7306 11.6643 16.7564 11.6643C16.7823 11.6643 16.8075 11.6717 16.8293 11.6857C16.851 11.6997 16.8682 11.7197 16.8788 11.7432Z" fill="#FF9600"/>
<path id="Vector_9" opacity="0.2" d="M9.60254 15.6001L9.95774 21.6001H26.0545L26.3977 15.6001H9.60254Z" fill="#70CAFF"/>
</g>
<defs>
<clipPath id="clip0_802_5956">
<rect width="36" height="36" fill="white"/>
</clipPath>
</defs>
</svg>
