<svg width="36" height="36" viewBox="0 0 36 36" fill="none" xmlns="http://www.w3.org/2000/svg">
<g id="Frame" clip-path="url(#clip0_802_5984)">
<path id="Vector" opacity="0.2" d="M0 18C0 22.7739 1.89642 27.3523 5.27208 30.7279C8.64773 34.1036 13.2261 36 18 36C22.7739 36 27.3523 34.1036 30.7279 30.7279C34.1036 27.3523 36 22.7739 36 18C36 13.2261 34.1036 8.64773 30.7279 5.27208C27.3523 1.89642 22.7739 0 18 0C13.2261 0 8.64773 1.89642 5.27208 5.27208C1.89642 8.64773 0 13.2261 0 18Z" fill="#1990FF"/>
<path id="Vector_2" d="M3.59961 18.0001C3.59961 21.8192 5.11675 25.4819 7.81727 28.1824C10.5178 30.883 14.1805 32.4001 17.9996 32.4001C21.8187 32.4001 25.4814 30.883 28.1819 28.1824C30.8825 25.4819 32.3996 21.8192 32.3996 18.0001C32.3996 14.181 30.8825 10.5183 28.1819 7.81776C25.4814 5.11724 21.8187 3.6001 17.9996 3.6001C14.1805 3.6001 10.5178 5.11724 7.81727 7.81776C5.11675 10.5183 3.59961 14.181 3.59961 18.0001Z" fill="#1990FF"/>
<path id="Vector_3" d="M1.75797e-08 2.63996C-3.19002e-05 2.8606 0.043399 3.07909 0.127813 3.28294C0.212226 3.4868 0.335969 3.67203 0.491975 3.82806C0.64798 3.98408 0.833193 4.10785 1.03704 4.1923C1.24088 4.27674 1.45936 4.3202 1.68 4.3202C1.90064 4.3202 2.11912 4.27674 2.32296 4.1923C2.52681 4.10785 2.71202 3.98408 2.86803 3.82806C3.02403 3.67203 3.14777 3.4868 3.23219 3.28294C3.3166 3.07909 3.36003 2.8606 3.36 2.63996C3.36003 2.41932 3.3166 2.20083 3.23219 1.99698C3.14777 1.79312 3.02403 1.60789 2.86803 1.45186C2.71202 1.29584 2.52681 1.17207 2.32296 1.08762C2.11912 1.00318 1.90064 0.959717 1.68 0.959717C1.45936 0.959717 1.24088 1.00318 1.03704 1.08762C0.833193 1.17207 0.64798 1.29584 0.491975 1.45186C0.335969 1.60789 0.212226 1.79312 0.127813 1.99698C0.043399 2.20083 -3.19002e-05 2.41932 1.75797e-08 2.63996Z" fill="#1990FF"/>
<path id="Vector_4" d="M34.5596 32.3999C34.5596 32.5909 34.6354 32.774 34.7705 32.909C34.9055 33.0441 35.0886 33.1199 35.2796 33.1199C35.4705 33.1199 35.6537 33.0441 35.7887 32.909C35.9237 32.774 35.9996 32.5909 35.9996 32.3999C35.9996 32.209 35.9237 32.0258 35.7887 31.8908C35.6537 31.7558 35.4705 31.6799 35.2796 31.6799C35.0886 31.6799 34.9055 31.7558 34.7705 31.8908C34.6354 32.0258 34.5596 32.209 34.5596 32.3999Z" fill="#1990FF"/>
<g id="Frame_2">
<path id="Vector_5" d="M26.1463 5.3252H8.03379C7.20013 5.3252 6.52441 6.00091 6.52441 6.83457V27.9658C6.52441 28.7995 7.20013 29.4752 8.03379 29.4752H29.165C29.9987 29.4752 30.6744 28.7995 30.6744 27.9658V9.85332H27.6557C26.822 9.85332 26.1463 9.17761 26.1463 8.34395V5.3252Z" fill="#5BC1F4"/>
<path id="Vector_6" d="M12.9395 5.3252H24.2598V13.6268C24.2598 14.0435 23.9218 14.3814 23.5051 14.3814H13.6941C13.2774 14.3814 12.9395 14.0435 12.9395 13.6268V5.3252Z" fill="#F3F7FC"/>
<path id="Vector_7" d="M11.0527 29.4751H26.1465V18.9095C26.1465 18.4928 25.8085 18.1548 25.3918 18.1548H11.8074C11.3907 18.1548 11.0527 18.4928 11.0527 18.9095V29.4751Z" fill="#E1F5FF"/>
<path id="Vector_8" d="M13.6941 23.9868H23.5051C23.9218 23.9868 24.2598 24.3248 24.2598 24.7415V25.1188C24.2598 25.5355 23.9218 25.8735 23.5051 25.8735H13.6941C13.2774 25.8735 12.9395 25.5355 12.9395 25.1188V24.7415C12.9395 24.3245 13.2774 23.9868 13.6941 23.9868ZM13.6941 20.2134H23.5051C23.9218 20.2134 24.2598 20.5514 24.2598 20.9681C24.2598 21.3848 23.9218 21.7228 23.5051 21.7228H13.6941C13.2774 21.7228 12.9395 21.3848 12.9395 20.9681C12.9395 20.5511 13.2774 20.2134 13.6941 20.2134Z" fill="#FF9600"/>
<path id="Vector_9" d="M21.6184 11.3625H21.241C20.8243 11.3625 20.4863 11.0245 20.4863 10.6078V9.09844C20.4863 8.68174 20.8243 8.34375 21.241 8.34375H21.6184C22.0351 8.34375 22.373 8.68174 22.373 9.09844V10.6078C22.373 11.0245 22.0351 11.3625 21.6184 11.3625Z" fill="#5BC1F4"/>
<path id="Vector_10" d="M26.1465 5.3252V8.34395C26.1465 9.17761 26.8222 9.85332 27.6559 9.85332H30.6746L26.1465 5.3252Z" fill="#E1F5FF"/>
</g>
</g>
<defs>
<clipPath id="clip0_802_5984">
<rect width="36" height="36" fill="white"/>
</clipPath>
</defs>
</svg>
