<svg width="36" height="36" viewBox="0 0 36 36" fill="none" xmlns="http://www.w3.org/2000/svg">
<g id="Frame" clip-path="url(#clip0_802_6085)">
<path id="Vector" opacity="0.2" d="M0 18C0 22.7739 1.89642 27.3523 5.27208 30.7279C8.64773 34.1036 13.2261 36 18 36C22.7739 36 27.3523 34.1036 30.7279 30.7279C34.1036 27.3523 36 22.7739 36 18C36 13.2261 34.1036 8.64773 30.7279 5.27208C27.3523 1.89642 22.7739 0 18 0C13.2261 0 8.64773 1.89642 5.27208 5.27208C1.89642 8.64773 0 13.2261 0 18Z" fill="#1990FF"/>
<path id="Vector_2" d="M3.59961 18C3.59961 21.8191 5.11675 25.4818 7.81727 28.1823C10.5178 30.8828 14.1805 32.4 17.9996 32.4C21.8187 32.4 25.4814 30.8828 28.1819 28.1823C30.8825 25.4818 32.3996 21.8191 32.3996 18C32.3996 14.1809 30.8825 10.5182 28.1819 7.81764C25.4814 5.11711 21.8187 3.59998 17.9996 3.59998C14.1805 3.59998 10.5178 5.11711 7.81727 7.81764C5.11675 10.5182 3.59961 14.1809 3.59961 18Z" fill="#1990FF"/>
<path id="Vector_3" d="M1.75797e-08 2.63996C-3.19002e-05 2.8606 0.043399 3.07909 0.127813 3.28294C0.212226 3.4868 0.335969 3.67203 0.491975 3.82806C0.64798 3.98408 0.833193 4.10785 1.03704 4.1923C1.24088 4.27674 1.45936 4.3202 1.68 4.3202C1.90064 4.3202 2.11912 4.27674 2.32296 4.1923C2.52681 4.10785 2.71202 3.98408 2.86803 3.82806C3.02403 3.67203 3.14777 3.4868 3.23219 3.28294C3.3166 3.07909 3.36003 2.8606 3.36 2.63996C3.36003 2.41932 3.3166 2.20083 3.23219 1.99698C3.14777 1.79312 3.02403 1.60789 2.86803 1.45186C2.71202 1.29584 2.52681 1.17207 2.32296 1.08762C2.11912 1.00318 1.90064 0.959717 1.68 0.959717C1.45936 0.959717 1.24088 1.00318 1.03704 1.08762C0.833193 1.17207 0.64798 1.29584 0.491975 1.45186C0.335969 1.60789 0.212226 1.79312 0.127813 1.99698C0.043399 2.20083 -3.19002e-05 2.41932 1.75797e-08 2.63996Z" fill="#1990FF"/>
<path id="Vector_4" d="M34.5596 32.4001C34.5596 32.591 34.6354 32.7741 34.7705 32.9092C34.9055 33.0442 35.0886 33.1201 35.2796 33.1201C35.4705 33.1201 35.6537 33.0442 35.7887 32.9092C35.9237 32.7741 35.9996 32.591 35.9996 32.4001C35.9996 32.2091 35.9237 32.026 35.7887 31.8909C35.6537 31.7559 35.4705 31.6801 35.2796 31.6801C35.0886 31.6801 34.9055 31.7559 34.7705 31.8909C34.6354 32.026 34.5596 32.2091 34.5596 32.4001Z" fill="#1990FF"/>
<g id="Frame_2">
<path id="Vector_5" d="M17.889 21.0305L11.7323 31.6945C11.4164 32.2415 11.8111 32.925 12.4427 32.925H24.7565C25.3878 32.925 25.7828 32.2415 25.4669 31.6945L19.3099 21.0305C18.9941 20.4835 18.2048 20.4835 17.889 21.0305Z" fill="#70CAFF"/>
<path id="Vector_6" d="M30.084 24.7219H7.11523C6.20908 24.7219 5.47461 23.9875 5.47461 23.0813V8.31567C5.47461 7.40952 6.20908 6.67505 7.11523 6.67505H30.084C30.9901 6.67505 31.7246 7.40952 31.7246 8.31567V23.0813C31.7246 23.9875 30.9901 24.7219 30.084 24.7219Z" fill="#F3F7FC"/>
<path id="Vector_7" d="M22.3406 14.7616C22.1833 14.7616 22.0257 14.7015 21.9056 14.5814C21.6653 14.3412 21.6653 13.9518 21.9056 13.7113L26.378 9.23853C26.6183 8.99829 27.0076 8.99829 27.2481 9.23853C27.4884 9.47876 27.4884 9.86812 27.2481 10.1086L22.7757 14.5814C22.7186 14.6386 22.6508 14.6839 22.5761 14.7148C22.5015 14.7458 22.4214 14.7616 22.3406 14.7616ZM22.043 18.4864C21.8856 18.4864 21.728 18.4263 21.6079 18.3062C21.3677 18.066 21.3677 17.6763 21.6079 17.4361L26.0807 12.9633C26.3209 12.7231 26.7103 12.7231 26.9508 12.9633C27.1913 13.2036 27.191 13.5932 26.9508 13.8334L22.478 18.3062C22.3579 18.4263 22.2003 18.4864 22.043 18.4864Z" fill="#FF9600"/>
</g>
</g>
<defs>
<clipPath id="clip0_802_6085">
<rect width="36" height="36" fill="white"/>
</clipPath>
</defs>
</svg>
