<svg width="36" height="36" viewBox="0 0 36 36" fill="none" xmlns="http://www.w3.org/2000/svg">
<g id="Frame" clip-path="url(#clip0_802_6064)">
<path id="Vector" opacity="0.2" d="M0 18C0 22.7739 1.89642 27.3523 5.27208 30.7279C8.64773 34.1036 13.2261 36 18 36C22.7739 36 27.3523 34.1036 30.7279 30.7279C34.1036 27.3523 36 22.7739 36 18C36 13.2261 34.1036 8.64773 30.7279 5.27208C27.3523 1.89642 22.7739 0 18 0C13.2261 0 8.64773 1.89642 5.27208 5.27208C1.89642 8.64773 0 13.2261 0 18Z" fill="#1990FF"/>
<path id="Vector_2" d="M3.59961 18C3.59961 21.8191 5.11675 25.4818 7.81727 28.1823C10.5178 30.8828 14.1805 32.4 17.9996 32.4C21.8187 32.4 25.4814 30.8828 28.1819 28.1823C30.8825 25.4818 32.3996 21.8191 32.3996 18C32.3996 14.1809 30.8825 10.5182 28.1819 7.81764C25.4814 5.11711 21.8187 3.59998 17.9996 3.59998C14.1805 3.59998 10.5178 5.11711 7.81727 7.81764C5.11675 10.5182 3.59961 14.1809 3.59961 18Z" fill="#1990FF"/>
<path id="Vector_3" d="M1.75797e-08 2.63996C-3.19002e-05 2.8606 0.043399 3.07909 0.127813 3.28294C0.212226 3.4868 0.335969 3.67203 0.491975 3.82806C0.64798 3.98408 0.833193 4.10785 1.03704 4.1923C1.24088 4.27674 1.45936 4.3202 1.68 4.3202C1.90064 4.3202 2.11912 4.27674 2.32296 4.1923C2.52681 4.10785 2.71202 3.98408 2.86803 3.82806C3.02403 3.67203 3.14777 3.4868 3.23219 3.28294C3.3166 3.07909 3.36003 2.8606 3.36 2.63996C3.36003 2.41932 3.3166 2.20083 3.23219 1.99698C3.14777 1.79312 3.02403 1.60789 2.86803 1.45186C2.71202 1.29584 2.52681 1.17207 2.32296 1.08762C2.11912 1.00318 1.90064 0.959717 1.68 0.959717C1.45936 0.959717 1.24088 1.00318 1.03704 1.08762C0.833193 1.17207 0.64798 1.29584 0.491975 1.45186C0.335969 1.60789 0.212226 1.79312 0.127813 1.99698C0.043399 2.20083 -3.19002e-05 2.41932 1.75797e-08 2.63996Z" fill="#1990FF"/>
<path id="Vector_4" d="M34.5596 32.4001C34.5596 32.591 34.6354 32.7741 34.7705 32.9092C34.9055 33.0442 35.0886 33.1201 35.2796 33.1201C35.4705 33.1201 35.6537 33.0442 35.7887 32.9092C35.9237 32.7741 35.9996 32.591 35.9996 32.4001C35.9996 32.2091 35.9237 32.026 35.7887 31.8909C35.6537 31.7559 35.4705 31.6801 35.2796 31.6801C35.0886 31.6801 34.9055 31.7559 34.7705 31.8909C34.6354 32.026 34.5596 32.2091 34.5596 32.4001Z" fill="#1990FF"/>
<g id="Frame_2">
<path id="Vector_5" d="M14.5781 31.1054L15.5247 25.7365H19.2759L20.2225 31.1054H14.5781Z" fill="#70CAFF"/>
<path id="Vector_6" d="M21.502 30.6953H13.2988C12.8459 30.6953 12.4785 31.0627 12.4785 31.5156C12.4785 31.9686 12.8459 32.3359 13.2988 32.3359H21.502C21.9549 32.3359 22.3223 31.9686 22.3223 31.5156C22.3223 31.0627 21.9549 30.6953 21.502 30.6953Z" fill="#FF9600"/>
<path id="Vector_7" d="M30.5254 23.6704H4.27539V8.90479C4.27539 7.99863 5.00986 7.26416 5.91602 7.26416H28.8848C29.7909 7.26416 30.5254 7.99863 30.5254 8.90479V23.6704Z" fill="#F3F7FC"/>
<path id="Vector_8" d="M28.8848 26.1313H5.91602C5.00986 26.1313 4.27539 25.3969 4.27539 24.4907V23.6704H30.5254V24.4907C30.5254 25.3969 29.7909 26.1313 28.8848 26.1313Z" fill="#70CAFF"/>
<path id="Vector_9" d="M23.9256 21.6255H23.9227C23.6619 21.6243 23.4305 21.4588 23.3446 21.213L20.0391 11.741L17.4648 18.6835C17.4236 18.7947 17.3511 18.8917 17.2561 18.9627C17.1611 19.0337 17.0476 19.0757 16.9292 19.0837C16.6878 19.096 16.459 18.9727 16.3453 18.7594L15.3867 16.9617L13.616 20.3704C13.5073 20.5799 13.2929 20.7217 13.0524 20.7018C12.9368 20.6985 12.8245 20.6627 12.7283 20.5985C12.6321 20.5343 12.556 20.4443 12.5086 20.3388L8.98654 12.4854C8.84767 12.1755 8.98625 11.8113 9.29621 11.6725C9.60617 11.533 9.97033 11.6719 10.1092 11.9821L13.1107 18.6741L14.8339 15.3571C14.8856 15.2577 14.9635 15.1742 15.0592 15.1157C15.1548 15.0573 15.2647 15.0261 15.3768 15.0255H15.38C15.6073 15.0255 15.8159 15.1509 15.9229 15.3513L16.7871 16.9726L19.4801 9.71045C19.5703 9.46729 19.8006 9.32139 20.0628 9.30908C20.3224 9.31172 20.5524 9.47666 20.6376 9.72158L23.9338 19.1675L24.6741 17.107C24.7896 16.7871 25.1435 16.6228 25.4613 16.7358C25.7813 16.8507 25.9471 17.2034 25.8325 17.523L24.5048 21.2186C24.4618 21.3377 24.3831 21.4407 24.2795 21.5135C24.1758 21.5863 24.0523 21.6254 23.9256 21.6255Z" fill="#FF9600"/>
</g>
</g>
<defs>
<clipPath id="clip0_802_6064">
<rect width="36" height="36" fill="white"/>
</clipPath>
</defs>
</svg>
