<svg width="36" height="36" viewBox="0 0 36 36" fill="none" xmlns="http://www.w3.org/2000/svg">
<g id="Frame" clip-path="url(#clip0_802_5867)">
<path id="Vector" opacity="0.2" d="M0 18C0 22.7739 1.89642 27.3523 5.27208 30.7279C8.64773 34.1036 13.2261 36 18 36C22.7739 36 27.3523 34.1036 30.7279 30.7279C34.1036 27.3523 36 22.7739 36 18C36 13.2261 34.1036 8.64773 30.7279 5.27208C27.3523 1.89642 22.7739 0 18 0C13.2261 0 8.64773 1.89642 5.27208 5.27208C1.89642 8.64773 0 13.2261 0 18Z" fill="#1990FF"/>
<path id="Vector_2" d="M3.59961 18.0001C3.59961 21.8192 5.11675 25.4819 7.81727 28.1824C10.5178 30.883 14.1805 32.4001 17.9996 32.4001C21.8187 32.4001 25.4814 30.883 28.1819 28.1824C30.8825 25.4819 32.3996 21.8192 32.3996 18.0001C32.3996 14.181 30.8825 10.5183 28.1819 7.81776C25.4814 5.11724 21.8187 3.6001 17.9996 3.6001C14.1805 3.6001 10.5178 5.11724 7.81727 7.81776C5.11675 10.5183 3.59961 14.181 3.59961 18.0001Z" fill="#1990FF"/>
<path id="Vector_3" d="M1.75797e-08 2.63996C-3.19002e-05 2.8606 0.043399 3.07909 0.127813 3.28294C0.212226 3.4868 0.335969 3.67203 0.491975 3.82806C0.64798 3.98408 0.833193 4.10785 1.03704 4.1923C1.24088 4.27674 1.45936 4.3202 1.68 4.3202C1.90064 4.3202 2.11912 4.27674 2.32296 4.1923C2.52681 4.10785 2.71202 3.98408 2.86803 3.82806C3.02403 3.67203 3.14777 3.4868 3.23219 3.28294C3.3166 3.07909 3.36003 2.8606 3.36 2.63996C3.36003 2.41932 3.3166 2.20083 3.23219 1.99698C3.14777 1.79312 3.02403 1.60789 2.86803 1.45186C2.71202 1.29584 2.52681 1.17207 2.32296 1.08762C2.11912 1.00318 1.90064 0.959717 1.68 0.959717C1.45936 0.959717 1.24088 1.00318 1.03704 1.08762C0.833193 1.17207 0.64798 1.29584 0.491975 1.45186C0.335969 1.60789 0.212226 1.79312 0.127813 1.99698C0.043399 2.20083 -3.19002e-05 2.41932 1.75797e-08 2.63996Z" fill="#1990FF"/>
<path id="Vector_4" d="M34.5596 32.3999C34.5596 32.5909 34.6354 32.774 34.7705 32.909C34.9055 33.0441 35.0886 33.1199 35.2796 33.1199C35.4705 33.1199 35.6537 33.0441 35.7887 32.909C35.9237 32.774 35.9996 32.5909 35.9996 32.3999C35.9996 32.209 35.9237 32.0258 35.7887 31.8908C35.6537 31.7558 35.4705 31.6799 35.2796 31.6799C35.0886 31.6799 34.9055 31.7558 34.7705 31.8908C34.6354 32.0258 34.5596 32.209 34.5596 32.3999Z" fill="#1990FF"/>
<path id="Vector_5" d="M8.4 7.43994H24.72C26.32 7.43994 27.12 8.23994 27.12 9.83994V28.0799C27.12 29.6799 26.32 30.4799 24.72 30.4799H8.4C6.8 30.4799 6 29.6799 6 28.0799V9.83994C6 8.23994 6.8 7.43994 8.4 7.43994Z" fill="#70CAFF"/>
<path id="Vector_6" d="M10.7179 5.04004H27.4411C28.0242 5.04004 28.5834 5.27166 28.9956 5.68394C29.4079 6.09622 29.6395 6.65539 29.6395 7.23844V28.08H8.51953V7.23844C8.51953 6.65539 8.75115 6.09622 9.16343 5.68394C9.57571 5.27166 10.1349 5.04004 10.7179 5.04004Z" fill="#F3F7FC"/>
<path id="Vector_7" d="M8.51953 28.08L24.6259 22.3752C25.3987 22.1016 26.2003 22.5792 26.4043 23.436C26.7787 27.84 29.6395 28.08 29.6395 28.08H8.51953Z" fill="#5BC1F4"/>
<path id="Vector_8" opacity="0.2" d="M11.3541 8.3999H26.8053C27.2549 8.3999 27.4797 8.6247 27.4797 9.0743V9.1655C27.4797 9.6151 27.2549 9.8399 26.8053 9.8399H11.3541C10.9045 9.8399 10.6797 9.6151 10.6797 9.1655V9.0743C10.6797 8.6247 10.9045 8.3999 11.3541 8.3999Z" fill="#70CAFF"/>
<path id="Vector_9" opacity="0.2" d="M11.4742 11.5801H26.9254C27.375 11.5801 27.5998 11.8049 27.5998 12.2545V12.3457C27.5998 12.7953 27.375 13.0201 26.9254 13.0201H11.4742C11.0246 13.0201 10.7998 12.7953 10.7998 12.3457V12.2545C10.7998 11.8049 11.0246 11.5801 11.4742 11.5801Z" fill="#70CAFF"/>
<path id="Vector_10" opacity="0.2" d="M11.4742 14.76H26.9254C27.375 14.76 27.5998 14.9848 27.5998 15.4344V15.5256C27.5998 15.9752 27.375 16.2 26.9254 16.2H11.4742C11.0246 16.2 10.7998 15.9752 10.7998 15.5256V15.4344C10.7998 14.9848 11.0246 14.76 11.4742 14.76Z" fill="#70CAFF"/>
<path id="Vector_11" opacity="0.2" d="M11.4742 17.9399H26.9254C27.375 17.9399 27.5998 18.1647 27.5998 18.6143V18.7055C27.5998 19.1551 27.375 19.3799 26.9254 19.3799H11.4742C11.0246 19.3799 10.7998 19.1551 10.7998 18.7055V18.6143C10.7998 18.1647 11.0246 17.9399 11.4742 17.9399Z" fill="#70CAFF"/>
<path id="Vector_12" opacity="0.2" d="M11.3278 21.1201H20.5918C20.9438 21.1201 21.1198 21.2961 21.1198 21.6481V22.0321C21.1198 22.3841 20.9438 22.5601 20.5918 22.5601H11.3278C10.9758 22.5601 10.7998 22.3841 10.7998 22.0321V21.6481C10.7998 21.2961 10.9758 21.1201 11.3278 21.1201Z" fill="#70CAFF"/>
<path id="Vector_13" d="M32.4716 20.8008L27.7916 20.5296C27.744 20.5267 27.6964 20.5353 27.6527 20.5545C27.609 20.5737 27.5706 20.6031 27.5405 20.6402C27.5105 20.6773 27.4897 20.721 27.48 20.7677C27.4702 20.8144 27.4717 20.8628 27.4844 20.9088L28.73 25.44C28.7447 25.4933 28.7738 25.5414 28.8142 25.5792C28.8545 25.617 28.9045 25.6429 28.9586 25.6541C29.0127 25.6652 29.0689 25.6612 29.1208 25.6425C29.1728 25.6238 29.2186 25.5911 29.2532 25.548L30.2468 24.3168C30.2717 24.2862 30.3024 24.2608 30.3371 24.2421C30.3718 24.2233 30.4098 24.2116 30.4491 24.2076C30.4883 24.2036 30.5279 24.2074 30.5657 24.2187C30.6035 24.23 30.6387 24.2487 30.6692 24.2736L33.9812 26.952C34.0119 26.9768 34.0472 26.9953 34.0851 27.0064C34.123 27.0175 34.1626 27.0211 34.2019 27.0168C34.2411 27.0126 34.2791 27.0007 34.3138 26.9817C34.3484 26.9628 34.3789 26.9372 34.4036 26.9064L35.0924 26.0544C35.1177 26.024 35.1366 25.9888 35.1481 25.951C35.1596 25.9132 35.1634 25.8735 35.1594 25.8341C35.1554 25.7948 35.1436 25.7567 35.1247 25.722C35.1057 25.6873 35.0801 25.6567 35.0492 25.632L31.7372 22.944C31.7064 22.9193 31.6807 22.8887 31.6618 22.854C31.6429 22.8193 31.6311 22.7812 31.627 22.7419C31.623 22.7025 31.6269 22.6628 31.6384 22.625C31.6499 22.5872 31.6688 22.552 31.694 22.5216L32.6876 21.2904C32.7227 21.2475 32.7453 21.1957 32.7527 21.1408C32.7602 21.0859 32.7523 21.03 32.73 20.9793C32.7076 20.9286 32.6716 20.885 32.626 20.8535C32.5804 20.822 32.527 20.8038 32.4716 20.8008Z" fill="#FF9600"/>
</g>
<defs>
<clipPath id="clip0_802_5867">
<rect width="36" height="36" fill="white"/>
</clipPath>
</defs>
</svg>
