<svg width="36" height="36" viewBox="0 0 36 36" fill="none" xmlns="http://www.w3.org/2000/svg">
<g id="Frame" clip-path="url(#clip0_802_5723)">
<path id="Vector" opacity="0.2" d="M0 18C0 22.7739 1.89642 27.3523 5.27208 30.7279C8.64773 34.1036 13.2261 36 18 36C22.7739 36 27.3523 34.1036 30.7279 30.7279C34.1036 27.3523 36 22.7739 36 18C36 13.2261 34.1036 8.64773 30.7279 5.27208C27.3523 1.89642 22.7739 0 18 0C13.2261 0 8.64773 1.89642 5.27208 5.27208C1.89642 8.64773 0 13.2261 0 18Z" fill="#1990FF"/>
<path id="Vector_2" d="M3.59961 18.0001C3.59961 21.8192 5.11675 25.4819 7.81727 28.1824C10.5178 30.883 14.1805 32.4001 17.9996 32.4001C21.8187 32.4001 25.4814 30.883 28.1819 28.1824C30.8825 25.4819 32.3996 21.8192 32.3996 18.0001C32.3996 14.181 30.8825 10.5183 28.1819 7.81776C25.4814 5.11724 21.8187 3.6001 17.9996 3.6001C14.1805 3.6001 10.5178 5.11724 7.81727 7.81776C5.11675 10.5183 3.59961 14.181 3.59961 18.0001Z" fill="#1990FF"/>
<path id="Vector_3" d="M16.7998 18.4803C16.7998 18.7009 16.8432 18.9194 16.9276 19.1233C17.012 19.3271 17.1358 19.5124 17.2918 19.6684C17.4478 19.8244 17.633 19.9482 17.8368 20.0326C18.0407 20.1171 18.2592 20.1605 18.4798 20.1605C18.7004 20.1605 18.9189 20.1171 19.1228 20.0326C19.3266 19.9482 19.5118 19.8244 19.6678 19.6684C19.8238 19.5124 19.9476 19.3271 20.032 19.1233C20.1164 18.9194 20.1598 18.7009 20.1598 18.4803C20.1598 18.2597 20.1164 18.0412 20.032 17.8373C19.9476 17.6335 19.8238 17.4482 19.6678 17.2922C19.5118 17.1362 19.3266 17.0124 19.1228 16.928C18.9189 16.8435 18.7004 16.8 18.4798 16.8C18.2592 16.8 18.0407 16.8435 17.8368 16.928C17.633 17.0124 17.4478 17.1362 17.2918 17.2922C17.1358 17.4482 17.012 17.6335 16.9276 17.8373C16.8432 18.0412 16.7998 18.2597 16.7998 18.4803Z" fill="#1990FF"/>
<path id="Vector_4" d="M16.7998 17.52C16.7998 17.711 16.8757 17.8941 17.0107 18.0292C17.1457 18.1642 17.3289 18.24 17.5198 18.24C17.7108 18.24 17.8939 18.1642 18.0289 18.0292C18.1639 17.8941 18.2398 17.711 18.2398 17.52C18.2398 17.3291 18.1639 17.146 18.0289 17.0109C17.8939 16.8759 17.7108 16.8 17.5198 16.8C17.3289 16.8 17.1457 16.8759 17.0107 17.0109C16.8757 17.146 16.7998 17.3291 16.7998 17.52Z" fill="#1990FF"/>
<g id="Frame_2">
<path id="Vector_5" d="M5.39941 27.45C5.39941 27.8637 5.48089 28.2733 5.63919 28.6555C5.7975 29.0377 6.02952 29.3849 6.32203 29.6774C6.61453 29.9699 6.96179 30.202 7.34396 30.3603C7.72614 30.5186 8.13575 30.6 8.54941 30.6C8.96308 30.6 9.37269 30.5186 9.75487 30.3603C10.137 30.202 10.4843 29.9699 10.7768 29.6774C11.0693 29.3849 11.3013 29.0377 11.4596 28.6555C11.6179 28.2733 11.6994 27.8637 11.6994 27.45C11.6994 27.0364 11.6179 26.6268 11.4596 26.2446C11.3013 25.8624 11.0693 25.5152 10.7768 25.2227C10.4843 24.9302 10.137 24.6981 9.75487 24.5398C9.37269 24.3815 8.96308 24.3 8.54941 24.3C8.13575 24.3 7.72614 24.3815 7.34396 24.5398C6.96179 24.6981 6.61453 24.9302 6.32203 25.2227C6.02952 25.5152 5.7975 25.8624 5.63919 26.2446C5.48089 26.6268 5.39941 27.0364 5.39941 27.45Z" fill="#F3F7FC"/>
<path id="Vector_6" d="M14.8496 27.45C14.8496 28.2855 15.1815 29.0867 15.7722 29.6774C16.363 30.2682 17.1642 30.6 17.9996 30.6C18.835 30.6 19.6363 30.2682 20.227 29.6774C20.8177 29.0867 21.1496 28.2855 21.1496 27.45C21.1496 26.6146 20.8177 25.8134 20.227 25.2227C19.6363 24.6319 18.835 24.3 17.9996 24.3C17.1642 24.3 16.363 24.6319 15.7722 25.2227C15.1815 25.8134 14.8496 26.6146 14.8496 27.45Z" fill="#F3F7FC"/>
<path id="Vector_7" d="M24.2998 27.45C24.2998 28.2855 24.6317 29.0867 25.2224 29.6774C25.8132 30.2682 26.6144 30.6 27.4498 30.6C28.2852 30.6 29.0865 30.2682 29.6772 29.6774C30.2679 29.0867 30.5998 28.2855 30.5998 27.45C30.5998 26.6146 30.2679 25.8134 29.6772 25.2227C29.0865 24.6319 28.2852 24.3 27.4498 24.3C26.6144 24.3 25.8132 24.6319 25.2224 25.2227C24.6317 25.8134 24.2998 26.6146 24.2998 27.45Z" fill="#F3F7FC"/>
<path id="Vector_8" d="M27.4496 23.3154C27.1236 23.3154 26.859 23.0508 26.859 22.7248V19.5748C26.859 19.032 26.4174 18.5904 25.8746 18.5904H10.1246C9.5818 18.5904 9.14023 19.032 9.14023 19.5748V22.7248C9.14023 23.0508 8.87586 23.3154 8.54961 23.3154C8.22336 23.3154 7.95898 23.0508 7.95898 22.7248V19.5748C7.95898 18.3809 8.93042 17.4092 10.1246 17.4092H25.8746C27.0685 17.4092 28.0402 18.3809 28.0402 19.5748V22.7248C28.0402 23.0511 27.7759 23.3154 27.4496 23.3154Z" fill="#70CAFF"/>
<path id="Vector_9" d="M17.9998 23.3155C17.6738 23.3155 17.4092 23.0508 17.4092 22.7249V14.8501C17.4092 14.5239 17.6738 14.2595 17.9998 14.2595C18.3258 14.2595 18.5904 14.5239 18.5904 14.8501V22.7249C18.5904 23.0511 18.3261 23.3155 17.9998 23.3155Z" fill="#70CAFF"/>
<path id="Vector_10" d="M13.2744 10.1251C13.2744 11.3783 13.7722 12.5801 14.6583 13.4662C15.5444 14.3523 16.7463 14.8501 17.9994 14.8501C19.2526 14.8501 20.4544 14.3523 21.3405 13.4662C22.2266 12.5801 22.7244 11.3783 22.7244 10.1251C22.7244 8.872 22.2266 7.67018 21.3405 6.78407C20.4544 5.89796 19.2526 5.40015 17.9994 5.40015C16.7463 5.40015 15.5444 5.89796 14.6583 6.78407C13.7722 7.67018 13.2744 8.872 13.2744 10.1251Z" fill="#FF9600"/>
</g>
<path id="Vector_11" d="M1.75797e-08 2.68024C-3.19002e-05 2.90088 0.043399 3.11937 0.127813 3.32323C0.212226 3.52708 0.335969 3.71231 0.491975 3.86834C0.64798 4.02437 0.833193 4.14814 1.03704 4.23258C1.24088 4.31702 1.45936 4.36049 1.68 4.36049C1.90064 4.36049 2.11912 4.31702 2.32296 4.23258C2.52681 4.14814 2.71202 4.02437 2.86803 3.86834C3.02403 3.71231 3.14777 3.52708 3.23219 3.32323C3.3166 3.11937 3.36003 2.90088 3.36 2.68024C3.36003 2.4596 3.3166 2.24112 3.23219 2.03726C3.14777 1.83341 3.02403 1.64817 2.86803 1.49215C2.71202 1.33612 2.52681 1.21235 2.32296 1.12791C2.11912 1.04346 1.90064 1 1.68 1C1.45936 1 1.24088 1.04346 1.03704 1.12791C0.833193 1.21235 0.64798 1.33612 0.491975 1.49215C0.335969 1.64817 0.212226 1.83341 0.127813 2.03726C0.043399 2.24112 -3.19002e-05 2.4596 1.75797e-08 2.68024Z" fill="#1990FF"/>
<path id="Vector_12" d="M34.5596 32.4402C34.5596 32.6312 34.6354 32.8143 34.7705 32.9493C34.9055 33.0844 35.0886 33.1602 35.2796 33.1602C35.4705 33.1602 35.6537 33.0844 35.7887 32.9493C35.9237 32.8143 35.9996 32.6312 35.9996 32.4402C35.9996 32.2493 35.9237 32.0661 35.7887 31.9311C35.6537 31.7961 35.4705 31.7202 35.2796 31.7202C35.0886 31.7202 34.9055 31.7961 34.7705 31.9311C34.6354 32.0661 34.5596 32.2493 34.5596 32.4402Z" fill="#1990FF"/>
</g>
<defs>
<clipPath id="clip0_802_5723">
<rect width="36" height="36" fill="white"/>
</clipPath>
</defs>
</svg>
