<svg width="36" height="37" viewBox="0 0 36 37" fill="none" xmlns="http://www.w3.org/2000/svg">
<g id="Frame" clip-path="url(#clip0_802_5628)">
<path id="Vector" opacity="0.2" d="M0 18.5601C0 23.334 1.89642 27.9123 5.27208 31.288C8.64773 34.6636 13.2261 36.5601 18 36.5601C22.7739 36.5601 27.3523 34.6636 30.7279 31.288C34.1036 27.9123 36 23.334 36 18.5601C36 13.7862 34.1036 9.20779 30.7279 5.83214C27.3523 2.45648 22.7739 0.560059 18 0.560059C13.2261 0.560059 8.64773 2.45648 5.27208 5.83214C1.89642 9.20779 0 13.7862 0 18.5601Z" fill="#1990FF"/>
<path id="Vector_2" d="M3.59961 18.5433C3.59961 22.3624 5.11675 26.0251 7.81727 28.7256C10.5178 31.4262 14.1805 32.9433 17.9996 32.9433C21.8187 32.9433 25.4814 31.4262 28.1819 28.7256C30.8825 26.0251 32.3996 22.3624 32.3996 18.5433C32.3996 14.7242 30.8825 11.0615 28.1819 8.36097C25.4814 5.66045 21.8187 4.14331 17.9996 4.14331C14.1805 4.14331 10.5178 5.66045 7.81727 8.36097C5.11675 11.0615 3.59961 14.7242 3.59961 18.5433Z" fill="#1990FF"/>
<path id="Vector_3" d="M1.75797e-08 3.18329C-3.19002e-05 3.40394 0.043399 3.62242 0.127813 3.82628C0.212226 4.03013 0.335969 4.21536 0.491975 4.37139C0.64798 4.52742 0.833193 4.65119 1.03704 4.73563C1.24088 4.82008 1.45936 4.86354 1.68 4.86354C1.90064 4.86354 2.11912 4.82008 2.32296 4.73563C2.52681 4.65119 2.71202 4.52742 2.86803 4.37139C3.02403 4.21536 3.14777 4.03013 3.23219 3.82628C3.3166 3.62242 3.36003 3.40394 3.36 3.18329C3.36003 2.96265 3.3166 2.74417 3.23219 2.54031C3.14777 2.33646 3.02403 2.15123 2.86803 1.9952C2.71202 1.83917 2.52681 1.7154 2.32296 1.63096C2.11912 1.54651 1.90064 1.50305 1.68 1.50305C1.45936 1.50305 1.24088 1.54651 1.03704 1.63096C0.833193 1.7154 0.64798 1.83917 0.491975 1.9952C0.335969 2.15123 0.212226 2.33646 0.127813 2.54031C0.043399 2.74417 -3.19002e-05 2.96265 1.75797e-08 3.18329Z" fill="#1990FF"/>
<path id="Vector_4" d="M34.5596 32.9433C34.5596 33.1342 34.6354 33.3174 34.7705 33.4524C34.9055 33.5874 35.0886 33.6633 35.2796 33.6633C35.4705 33.6633 35.6537 33.5874 35.7887 33.4524C35.9237 33.3174 35.9996 33.1342 35.9996 32.9433C35.9996 32.7523 35.9237 32.5692 35.7887 32.4341C35.6537 32.2991 35.4705 32.2233 35.2796 32.2233C35.0886 32.2233 34.9055 32.2991 34.7705 32.4341C34.6354 32.5692 34.5596 32.7523 34.5596 32.9433Z" fill="#1990FF"/>
<path id="Vector_5" d="M7.67972 27.6537L9.96932 16.1025H29.2389V13.3305C29.2357 12.7642 29.0081 12.2222 28.6058 11.8236C28.2036 11.425 27.6596 11.2021 27.0933 11.2041H16.8645L15.3597 8.74886C15.1674 8.43548 14.8978 8.17683 14.5767 7.99778C14.2556 7.81873 13.8938 7.72529 13.5261 7.72646H9.37412C9.09361 7.7252 8.81561 7.7792 8.55597 7.88538C8.29634 7.99155 8.06016 8.14783 7.86092 8.34529C7.66168 8.54274 7.50328 8.77751 7.39478 9.03618C7.28627 9.29485 7.22977 9.57236 7.22852 9.85286V26.8761C7.22814 27.3745 7.40509 27.8569 7.72772 28.2369C7.65896 28.0504 7.64236 27.8488 7.67972 27.6537Z" fill="#5BC1F4"/>
<path id="Vector_6" d="M27.0938 25.4169L8.00419 26.9961L5.24659 16.8585C5.18783 16.6403 5.1727 16.4125 5.20207 16.1884C5.23145 15.9643 5.30475 15.7482 5.41779 15.5524C5.53082 15.3567 5.68135 15.1852 5.86078 15.0477C6.0402 14.9102 6.24498 14.8095 6.46339 14.7513L21.3818 10.7529C21.8232 10.6349 22.2934 10.6971 22.689 10.9257C23.0846 11.1543 23.3732 11.5307 23.4914 11.9721L27.0938 25.4169Z" fill="#F3F7FC"/>
<path id="Vector_7" d="M29.8508 16.0905H9.97636L7.67955 27.6537C7.63945 27.8489 7.65356 28.0514 7.72035 28.2393C7.92435 28.8153 8.61315 29.2209 9.51555 29.2209H27.2396C28.4252 29.2209 29.5244 28.5177 29.6972 27.6537L31.6796 17.6577C31.8572 16.7913 31.0364 16.0905 29.8508 16.0905Z" fill="#70CAFF"/>
<path id="Vector_8" d="M12.9671 25.6281H26.4071C26.8871 25.6281 27.1271 25.8681 27.1271 26.3481C27.1271 26.8281 26.8871 27.0681 26.4071 27.0681H12.9671C12.4871 27.0681 12.2471 26.8281 12.2471 26.3481C12.2471 25.8681 12.4871 25.6281 12.9671 25.6281Z" fill="#FF9600"/>
</g>
<defs>
<clipPath id="clip0_802_5628">
<rect width="36" height="36" fill="white" transform="translate(0 0.560059)"/>
</clipPath>
</defs>
</svg>
