<svg width="36" height="36" viewBox="0 0 36 36" fill="none" xmlns="http://www.w3.org/2000/svg">
<g id="Frame" clip-path="url(#clip0_802_5841)">
<path id="Vector" opacity="0.2" d="M0 18C0 22.7739 1.89642 27.3523 5.27208 30.7279C8.64773 34.1036 13.2261 36 18 36C22.7739 36 27.3523 34.1036 30.7279 30.7279C34.1036 27.3523 36 22.7739 36 18C36 13.2261 34.1036 8.64773 30.7279 5.27208C27.3523 1.89642 22.7739 0 18 0C13.2261 0 8.64773 1.89642 5.27208 5.27208C1.89642 8.64773 0 13.2261 0 18Z" fill="#1990FF"/>
<path id="Vector_2" d="M3.59961 18.0001C3.59961 21.8192 5.11675 25.4819 7.81727 28.1824C10.5178 30.883 14.1805 32.4001 17.9996 32.4001C21.8187 32.4001 25.4814 30.883 28.1819 28.1824C30.8825 25.4819 32.3996 21.8192 32.3996 18.0001C32.3996 14.181 30.8825 10.5183 28.1819 7.81776C25.4814 5.11724 21.8187 3.6001 17.9996 3.6001C14.1805 3.6001 10.5178 5.11724 7.81727 7.81776C5.11675 10.5183 3.59961 14.181 3.59961 18.0001Z" fill="#1990FF"/>
<path id="Vector_3" d="M1.75797e-08 2.63996C-3.19002e-05 2.8606 0.043399 3.07909 0.127813 3.28294C0.212226 3.4868 0.335969 3.67203 0.491975 3.82806C0.64798 3.98408 0.833193 4.10785 1.03704 4.1923C1.24088 4.27674 1.45936 4.3202 1.68 4.3202C1.90064 4.3202 2.11912 4.27674 2.32296 4.1923C2.52681 4.10785 2.71202 3.98408 2.86803 3.82806C3.02403 3.67203 3.14777 3.4868 3.23219 3.28294C3.3166 3.07909 3.36003 2.8606 3.36 2.63996C3.36003 2.41932 3.3166 2.20083 3.23219 1.99698C3.14777 1.79312 3.02403 1.60789 2.86803 1.45186C2.71202 1.29584 2.52681 1.17207 2.32296 1.08762C2.11912 1.00318 1.90064 0.959717 1.68 0.959717C1.45936 0.959717 1.24088 1.00318 1.03704 1.08762C0.833193 1.17207 0.64798 1.29584 0.491975 1.45186C0.335969 1.60789 0.212226 1.79312 0.127813 1.99698C0.043399 2.20083 -3.19002e-05 2.41932 1.75797e-08 2.63996Z" fill="#1990FF"/>
<path id="Vector_4" d="M34.5596 32.3999C34.5596 32.5909 34.6354 32.774 34.7705 32.909C34.9055 33.0441 35.0886 33.1199 35.2796 33.1199C35.4705 33.1199 35.6537 33.0441 35.7887 32.909C35.9237 32.774 35.9996 32.5909 35.9996 32.3999C35.9996 32.209 35.9237 32.0258 35.7887 31.8908C35.6537 31.7558 35.4705 31.6799 35.2796 31.6799C35.0886 31.6799 34.9055 31.7558 34.7705 31.8908C34.6354 32.0258 34.5596 32.209 34.5596 32.3999Z" fill="#1990FF"/>
<path id="Vector_5" d="M5.68848 11.4624V26.4216C5.68816 26.7747 5.75747 27.1244 5.89245 27.4506C6.02742 27.7769 6.2254 28.0733 6.47507 28.323C6.72474 28.5727 7.02119 28.7707 7.34745 28.9056C7.67372 29.0406 8.0234 29.1099 8.37648 29.1096H27.6245C27.9776 29.1099 28.3272 29.0406 28.6535 28.9056C28.9798 28.7707 29.2762 28.5727 29.5259 28.323C29.7756 28.0733 29.9735 27.7769 30.1085 27.4506C30.2435 27.1244 30.3128 26.7747 30.3125 26.4216V11.4624H5.68848Z" fill="#F3F7FC"/>
<path id="Vector_6" d="M30.3125 9.57838C30.3128 9.2253 30.2435 8.87562 30.1085 8.54936C29.9735 8.22309 29.7756 7.92664 29.5259 7.67697C29.2762 7.42731 28.9798 7.22932 28.6535 7.09435C28.3272 6.95938 27.9776 6.89007 27.6245 6.89038H8.37648C8.0234 6.89007 7.67372 6.95938 7.34745 7.09435C7.02119 7.22932 6.72474 7.42731 6.47507 7.67697C6.2254 7.92664 6.02742 8.22309 5.89245 8.54936C5.75747 8.87562 5.68816 9.2253 5.68848 9.57838V11.4624H30.3125V9.57838ZM20.6717 25.02C19.5821 25.02 18.5405 24.5016 17.5661 23.4768C16.4285 22.2768 15.1421 21.6624 13.7429 21.6312H13.6325C10.9925 21.6312 8.77968 23.724 8.75808 23.7456C8.7288 23.7765 8.69354 23.8011 8.65446 23.818C8.61537 23.8349 8.57326 23.8436 8.53069 23.8437C8.48812 23.8439 8.44596 23.8353 8.40679 23.8187C8.36761 23.802 8.33222 23.7775 8.30278 23.7468C8.27333 23.7161 8.25044 23.6796 8.23548 23.6398C8.22053 23.5999 8.21382 23.5574 8.21578 23.5149C8.21773 23.4724 8.2283 23.4307 8.24685 23.3924C8.2654 23.3541 8.29154 23.3199 8.32368 23.292C8.41968 23.1984 10.7237 21.0024 13.6301 21.0024H13.7525C15.3269 21.036 16.7621 21.7224 18.0197 23.0424C18.9605 24.0312 19.9397 24.4824 20.9645 24.3744C23.1077 24.1512 24.7253 21.5784 24.7421 21.552C24.7626 21.5148 24.7905 21.4821 24.8241 21.456C24.8576 21.4299 24.8961 21.4108 24.9372 21.4C24.9783 21.3892 25.0212 21.3868 25.0632 21.393C25.1053 21.3992 25.1456 21.4139 25.1818 21.4361C25.2181 21.4584 25.2494 21.4878 25.2739 21.5225C25.2985 21.5572 25.3157 21.5965 25.3247 21.638C25.3336 21.6796 25.334 21.7226 25.3258 21.7643C25.3177 21.806 25.3012 21.8456 25.2773 21.8808C25.2029 21.9984 23.4773 24.7464 21.0293 25.0008C20.9093 25.0128 20.7893 25.02 20.6717 25.02Z" fill="#70CAFF"/>
<path id="Vector_7" opacity="0.2" d="M23.1338 13.9272H27.6938C28.3338 13.9272 28.6538 14.2472 28.6538 14.8872V25.6872C28.6538 26.3272 28.3338 26.6472 27.6938 26.6472H23.1338C22.4938 26.6472 22.1738 26.3272 22.1738 25.6872V14.8872C22.1738 14.2472 22.4938 13.9272 23.1338 13.9272Z" fill="#70CAFF"/>
<path id="Vector_8" d="M24.5904 13.3823H14.46C14.3339 13.3823 14.2091 13.4072 14.0926 13.4554C13.9762 13.5037 13.8703 13.5744 13.7812 13.6635C13.692 13.7527 13.6213 13.8585 13.5731 13.975C13.5248 14.0914 13.5 14.2163 13.5 14.3423V18.7727C13.5 19.0273 13.6011 19.2715 13.7812 19.4516C13.9612 19.6316 14.2054 19.7327 14.46 19.7327H18.06L19.2144 20.8799C19.2967 20.9617 19.408 21.0076 19.524 21.0076C19.64 21.0076 19.7513 20.9617 19.8336 20.8799L20.9952 19.7255H24.5952C24.8498 19.7255 25.094 19.6244 25.274 19.4444C25.4541 19.2643 25.5552 19.0201 25.5552 18.7655V14.3375C25.5546 14.2115 25.5291 14.0868 25.4803 13.9705C25.4315 13.8543 25.3602 13.7488 25.2706 13.6601C25.181 13.5714 25.0749 13.5012 24.9581 13.4536C24.8414 13.4059 24.7165 13.3817 24.5904 13.3823Z" fill="#5BC1F4"/>
<path id="Vector_9" d="M24.8135 9.17751C24.8135 9.24054 24.8259 9.30296 24.85 9.3612C24.8741 9.41943 24.9095 9.47235 24.9541 9.51692C24.9986 9.56149 25.0516 9.59685 25.1098 9.62097C25.168 9.64509 25.2304 9.65751 25.2935 9.65751C25.3565 9.65751 25.4189 9.64509 25.4772 9.62097C25.5354 9.59685 25.5883 9.56149 25.6329 9.51692C25.6775 9.47235 25.7128 9.41943 25.7369 9.3612C25.7611 9.30296 25.7735 9.24054 25.7735 9.17751C25.7735 9.11448 25.7611 9.05206 25.7369 8.99382C25.7128 8.93559 25.6775 8.88267 25.6329 8.8381C25.5883 8.79353 25.5354 8.75817 25.4772 8.73405C25.4189 8.70993 25.3565 8.69751 25.2935 8.69751C25.2304 8.69751 25.168 8.70993 25.1098 8.73405C25.0516 8.75817 24.9986 8.79353 24.9541 8.8381C24.9095 8.88267 24.8741 8.93559 24.85 8.99382C24.8259 9.05206 24.8135 9.11448 24.8135 9.17751Z" fill="#F3F7FC"/>
<path id="Vector_10" d="M26.2539 9.17751C26.2539 9.30481 26.3045 9.4269 26.3945 9.51692C26.4845 9.60694 26.6066 9.65751 26.7339 9.65751C26.8612 9.65751 26.9833 9.60694 27.0733 9.51692C27.1633 9.4269 27.2139 9.30481 27.2139 9.17751C27.2139 9.05021 27.1633 8.92812 27.0733 8.8381C26.9833 8.74808 26.8612 8.69751 26.7339 8.69751C26.6066 8.69751 26.4845 8.74808 26.3945 8.8381C26.3045 8.92812 26.2539 9.05021 26.2539 9.17751Z" fill="#F3F7FC"/>
<path id="Vector_11" d="M27.6934 9.17751C27.6934 9.30481 27.7439 9.4269 27.8339 9.51692C27.924 9.60694 28.0461 9.65751 28.1734 9.65751C28.3007 9.65751 28.4228 9.60694 28.5128 9.51692C28.6028 9.4269 28.6534 9.30481 28.6534 9.17751C28.6534 9.05021 28.6028 8.92812 28.5128 8.8381C28.4228 8.74808 28.3007 8.69751 28.1734 8.69751C28.0461 8.69751 27.924 8.74808 27.8339 8.8381C27.7439 8.92812 27.6934 9.05021 27.6934 9.17751Z" fill="#F3F7FC"/>
<path id="Vector_12" d="M15.2324 14.7456H23.8148C24.154 14.7456 24.3236 14.9152 24.3236 15.2544V15.6768C24.3236 16.016 24.154 16.1856 23.8148 16.1856H15.2324C14.8932 16.1856 14.7236 16.016 14.7236 15.6768V15.2544C14.7236 14.9152 14.8932 14.7456 15.2324 14.7456Z" fill="#FF9600"/>
<path id="Vector_13" d="M15.134 16.7256H20.5532C20.8268 16.7256 20.9636 16.8624 20.9636 17.136V17.7552C20.9636 18.0288 20.8268 18.1656 20.5532 18.1656H15.134C14.8604 18.1656 14.7236 18.0288 14.7236 17.7552V17.136C14.7236 16.8624 14.8604 16.7256 15.134 16.7256Z" fill="#FF9600"/>
</g>
<defs>
<clipPath id="clip0_802_5841">
<rect width="36" height="36" fill="white"/>
</clipPath>
</defs>
</svg>
