<svg width="36" height="37" viewBox="0 0 36 37" fill="none" xmlns="http://www.w3.org/2000/svg">
<g id="Frame" clip-path="url(#clip0_802_5652)">
<path id="Vector" opacity="0.2" d="M0.000976563 18.5601C0.000976563 23.334 1.8974 27.9123 5.27305 31.288C8.64871 34.6636 13.2271 36.5601 18.001 36.5601C22.7749 36.5601 27.3532 34.6636 30.7289 31.288C34.1046 27.9123 36.001 23.334 36.001 18.5601C36.001 13.7862 34.1046 9.20779 30.7289 5.83214C27.3532 2.45648 22.7749 0.560059 18.001 0.560059C13.2271 0.560059 8.64871 2.45648 5.27305 5.83214C1.8974 9.20779 0.000976563 13.7862 0.000976563 18.5601Z" fill="#1990FF"/>
<path id="Vector_2" d="M3.60059 18.56C3.60059 22.3792 5.11772 26.0418 7.81825 28.7424C10.5188 31.4429 14.1815 32.96 18.0006 32.96C21.8197 32.96 25.4824 31.4429 28.1829 28.7424C30.8834 26.0418 32.4006 22.3792 32.4006 18.56C32.4006 14.7409 30.8834 11.0782 28.1829 8.3777C25.4824 5.67717 21.8197 4.16003 18.0006 4.16003C14.1815 4.16003 10.5188 5.67717 7.81825 8.3777C5.11772 11.0782 3.60059 14.7409 3.60059 18.56Z" fill="#1990FF"/>
<path id="Vector_3" d="M0.00097658 3.20002C0.000944662 3.42066 0.0443756 3.63915 0.128789 3.843C0.213203 4.04686 0.336946 4.23209 0.492951 4.38811C0.648957 4.54414 0.834169 4.66791 1.03801 4.75236C1.24186 4.8368 1.46034 4.88026 1.68098 4.88026C1.90162 4.88026 2.1201 4.8368 2.32394 4.75236C2.52778 4.66791 2.713 4.54414 2.869 4.38811C3.02501 4.23209 3.14875 4.04686 3.23316 3.843C3.31758 3.63915 3.36101 3.42066 3.36098 3.20002C3.36101 2.97938 3.31758 2.76089 3.23316 2.55704C3.14875 2.35318 3.02501 2.16795 2.869 2.01192C2.713 1.85589 2.52778 1.73212 2.32394 1.64768C2.1201 1.56324 1.90162 1.51978 1.68098 1.51978C1.46034 1.51978 1.24186 1.56324 1.03801 1.64768C0.834169 1.73212 0.648957 1.85589 0.492951 2.01192C0.336946 2.16795 0.213203 2.35318 0.128789 2.55704C0.0443756 2.76089 0.000944662 2.97938 0.00097658 3.20002Z" fill="#1990FF"/>
<path id="Vector_4" d="M34.5605 32.9601C34.5605 33.1511 34.6364 33.3342 34.7714 33.4692C34.9065 33.6043 35.0896 33.6801 35.2805 33.6801C35.4715 33.6801 35.6546 33.6043 35.7897 33.4692C35.9247 33.3342 36.0005 33.1511 36.0005 32.9601C36.0005 32.7692 35.9247 32.586 35.7897 32.451C35.6546 32.316 35.4715 32.2401 35.2805 32.2401C35.0896 32.2401 34.9065 32.316 34.7714 32.451C34.6364 32.586 34.5605 32.7692 34.5605 32.9601Z" fill="#1990FF"/>
<path id="Vector_5" d="M12.5049 10.1409V16.6593L18.0009 19.9185L23.4969 16.6593V10.1409L18.0009 6.88171L12.5049 10.1409Z" fill="#F3F7FC"/>
<path id="Vector_6" d="M12.5049 10.1409L18.0009 13.4001L23.4969 10.1409L18.0009 6.88171L12.5049 10.1409Z" fill="#70CAFF"/>
<path id="Vector_7" d="M12.5049 10.1409V16.6593L18.0009 19.9185V13.4001L12.5049 10.1409Z" fill="#5BC1F4"/>
<path id="Vector_8" d="M12.5049 10.1409V16.6593L18.0009 19.9185V13.4001L12.5049 10.1409Z" fill="#5BC1F4"/>
<path id="Vector_9" d="M6.74512 20.4609V26.9793L12.2411 30.2385L17.7371 26.9793V20.4609L12.2411 17.2017L6.74512 20.4609Z" fill="#F3F7FC"/>
<path id="Vector_10" d="M6.74512 20.4609L12.2411 23.7201L17.7371 20.4609L12.2411 17.2017L6.74512 20.4609Z" fill="#70CAFF"/>
<path id="Vector_11" d="M6.74512 20.4608V26.9792L12.2411 30.2384V23.72L6.74512 20.4608Z" fill="#5BC1F4"/>
<path id="Vector_12" d="M18.2646 20.4609V26.9793L23.7606 30.2385L29.2566 26.9793V20.4609L23.7606 17.2017L18.2646 20.4609Z" fill="#F3F7FC"/>
<path id="Vector_13" d="M18.2646 20.4609L23.7606 23.7201L29.2566 20.4609L23.7606 17.2017L18.2646 20.4609Z" fill="#70CAFF"/>
<path id="Vector_14" d="M18.2646 20.4608V26.9792L23.7606 30.2384V23.72L18.2646 20.4608Z" fill="#5BC1F4"/>
<path id="Vector_15" d="M9.04685 22.376L8.74925 22.3088C5.98205 21.6656 4.49645 20.684 4.44845 19.472C4.41245 18.548 5.19485 17.7056 6.77645 16.9688C6.83366 16.9422 6.89555 16.9271 6.95859 16.9244C7.02163 16.9217 7.08459 16.9314 7.14387 16.953C7.20315 16.9746 7.25759 17.0077 7.30409 17.0504C7.35058 17.093 7.38822 17.1444 7.41485 17.2016C7.44149 17.2588 7.45659 17.3207 7.4593 17.3838C7.46202 17.4468 7.45229 17.5098 7.43067 17.569C7.40905 17.6283 7.37597 17.6828 7.33331 17.7293C7.29066 17.7757 7.23926 17.8134 7.18205 17.84C6.03485 18.3752 5.38925 18.9584 5.40845 19.436C5.43005 19.9784 6.36845 20.7728 8.96525 21.3776C11.4277 21.9488 14.6749 22.1888 18.1237 22.052C25.9261 21.7448 30.6469 19.7456 30.6037 18.452C30.5845 17.9504 29.7997 17.3792 28.5037 16.928C28.4435 16.9085 28.3877 16.8773 28.3396 16.8362C28.2914 16.7951 28.2518 16.7449 28.2231 16.6885C28.1943 16.6322 28.177 16.5707 28.172 16.5076C28.167 16.4445 28.1745 16.381 28.1941 16.3208C28.2136 16.2606 28.2448 16.2049 28.2859 16.1567C28.327 16.1086 28.3771 16.069 28.4335 16.0403C28.5474 15.9822 28.6797 15.9718 28.8013 16.0112C30.5845 16.6328 31.5061 17.4512 31.5445 18.4112C31.6477 21.0512 24.7213 22.7576 18.1525 23.0168C14.7637 23.144 11.5429 22.9184 9.04685 22.376Z" fill="#FF9600"/>
</g>
<defs>
<clipPath id="clip0_802_5652">
<rect width="36" height="36" fill="white" transform="translate(0.000976562 0.560059)"/>
</clipPath>
</defs>
</svg>
