<svg width="36" height="36" viewBox="0 0 36 36" fill="none" xmlns="http://www.w3.org/2000/svg">
<g id="Frame" clip-path="url(#clip0_802_5793)">
<path id="Vector" opacity="0.2" d="M0 18C0 22.7739 1.89642 27.3523 5.27208 30.7279C8.64773 34.1036 13.2261 36 18 36C22.7739 36 27.3523 34.1036 30.7279 30.7279C34.1036 27.3523 36 22.7739 36 18C36 13.2261 34.1036 8.64773 30.7279 5.27208C27.3523 1.89642 22.7739 0 18 0C13.2261 0 8.64773 1.89642 5.27208 5.27208C1.89642 8.64773 0 13.2261 0 18Z" fill="#1990FF"/>
<path id="Vector_2" d="M3.59961 18.0001C3.59961 21.8192 5.11675 25.4819 7.81727 28.1824C10.5178 30.883 14.1805 32.4001 17.9996 32.4001C21.8187 32.4001 25.4814 30.883 28.1819 28.1824C30.8825 25.4819 32.3996 21.8192 32.3996 18.0001C32.3996 14.181 30.8825 10.5183 28.1819 7.81776C25.4814 5.11724 21.8187 3.6001 17.9996 3.6001C14.1805 3.6001 10.5178 5.11724 7.81727 7.81776C5.11675 10.5183 3.59961 14.181 3.59961 18.0001Z" fill="#1990FF"/>
<path id="Vector_3" d="M29.5205 16.0799H6.48047L9.07967 13.6799H26.9213L29.5205 16.0799Z" fill="#5BC1F4"/>
<path id="Vector_4" d="M10.2002 24.9433H25.5602V24.9601H10.2002V24.9433ZM10.2002 24.4705H25.5602V24.9433H10.2002V24.4705Z" fill="#DCF1FF"/>
<path id="Vector_5" d="M10.2002 23.9976H25.5602V24.4704H10.2002V23.9976Z" fill="#DDF1FF"/>
<path id="Vector_6" d="M10.2002 23.5249H25.5602V23.9977H10.2002V23.5249Z" fill="#DEF2FF"/>
<path id="Vector_7" d="M10.2002 23.052H25.5602V23.5248H10.2002V23.052Z" fill="#DFF2FF"/>
<path id="Vector_8" d="M10.2002 22.5791H25.5602V23.0519H10.2002V22.5791Z" fill="#E0F3FF"/>
<path id="Vector_9" d="M10.2002 22.1064H25.5602V22.5792H10.2002V22.1064Z" fill="#E1F3FF"/>
<path id="Vector_10" d="M10.2002 21.6335H25.5602V22.1063H10.2002V21.6335Z" fill="#E2F3FF"/>
<path id="Vector_11" d="M10.2002 21.1609H25.5602V21.6337H10.2002V21.1609Z" fill="#E3F4FF"/>
<path id="Vector_12" d="M10.2002 20.688H25.5602V21.1608H10.2002V20.688Z" fill="#E4F4FF"/>
<path id="Vector_13" d="M10.2002 20.2151H25.5602V20.6879H10.2002V20.2151Z" fill="#E5F5FF"/>
<path id="Vector_14" d="M10.2002 19.7424H25.5602V20.2152H10.2002V19.7424Z" fill="#E6F5FF"/>
<path id="Vector_15" d="M10.2002 19.2695H25.5602V19.7423H10.2002V19.2695Z" fill="#E7F6FF"/>
<path id="Vector_16" d="M10.2002 18.7969H25.5602V19.2697H10.2002V18.7969Z" fill="#E8F6FF"/>
<path id="Vector_17" d="M10.2002 18.3264H25.5602V18.7992H10.2002V18.3264Z" fill="#E9F6FF"/>
<path id="Vector_18" d="M10.2002 17.8535H25.5602V18.3263H10.2002V17.8535Z" fill="#EAF7FF"/>
<path id="Vector_19" d="M10.2002 17.3809H25.5602V17.8537H10.2002V17.3809Z" fill="#EBF7FF"/>
<path id="Vector_20" d="M10.2002 16.908H25.5602V17.3808H10.2002V16.908Z" fill="#ECF8FF"/>
<path id="Vector_21" d="M10.2002 16.4353H25.5602V16.9081H10.2002V16.4353Z" fill="#EEF8FF"/>
<path id="Vector_22" d="M10.2002 15.9624H25.5602V16.4352H10.2002V15.9624Z" fill="#EFF8FF"/>
<path id="Vector_23" d="M10.2002 15.4895H25.5602V15.9623H10.2002V15.4895Z" fill="#F0F9FF"/>
<path id="Vector_24" d="M10.2002 15.0168H25.5602V15.4896H10.2002V15.0168Z" fill="#F1F9FF"/>
<path id="Vector_25" d="M10.2002 14.5439H25.5602V15.0167H10.2002V14.5439Z" fill="#F2FAFF"/>
<path id="Vector_26" d="M10.2002 14.0713H25.5602V14.5441H10.2002V14.0713Z" fill="#F3FAFF"/>
<path id="Vector_27" d="M10.2002 13.5984H25.5602V14.0712H10.2002V13.5984Z" fill="#F4FAFF"/>
<path id="Vector_28" d="M10.2002 13.1255H25.5602V13.5983H10.2002V13.1255Z" fill="#F5FBFF"/>
<path id="Vector_29" d="M10.2002 12.6528H25.5602V13.1256H10.2002V12.6528Z" fill="#F6FBFF"/>
<path id="Vector_30" d="M10.2002 12.1799H25.5602V12.6527H10.2002V12.1799Z" fill="#F7FCFF"/>
<path id="Vector_31" d="M10.2002 11.7097H25.5602V12.1825H10.2002V11.7097Z" fill="#F8FCFF"/>
<path id="Vector_32" d="M10.2002 11.2368H25.5602V11.7096H10.2002V11.2368Z" fill="#F9FDFF"/>
<path id="Vector_33" d="M10.2002 10.7639H25.5602V11.2367H10.2002V10.7639Z" fill="#FAFDFF"/>
<path id="Vector_34" d="M10.2002 10.2913H25.5602V10.7641H10.2002V10.2913Z" fill="#FBFDFF"/>
<path id="Vector_35" d="M10.2002 9.81836H25.5602V10.2912H10.2002V9.81836Z" fill="#FCFEFF"/>
<path id="Vector_36" d="M10.2002 9.3457H25.5602V9.8185H10.2002V9.3457Z" fill="#FDFEFF"/>
<path id="Vector_37" d="M10.2002 8.8728H25.5602V9.3456H10.2002V8.8728Z" fill="#FEFFFF"/>
<path id="Vector_38" d="M10.2002 8.3999H25.5602V8.8727H10.2002V8.3999Z" fill="#F3F7FC"/>
<path id="Vector_39" d="M14.5078 12.1201H14.5318C15.0038 12.1201 15.2398 12.3561 15.2398 12.8281V18.6121C15.2398 19.0841 15.0038 19.3201 14.5318 19.3201H14.5078C14.0358 19.3201 13.7998 19.0841 13.7998 18.6121V12.8281C13.7998 12.3561 14.0358 12.1201 14.5078 12.1201Z" fill="#FF9600"/>
<path id="Vector_40" d="M17.8682 11.52H17.8922C18.3642 11.52 18.6002 11.756 18.6002 12.228V18.012C18.6002 18.484 18.3642 18.72 17.8922 18.72H17.8682C17.3962 18.72 17.1602 18.484 17.1602 18.012V12.228C17.1602 11.756 17.3962 11.52 17.8682 11.52Z" fill="#FF9600"/>
<path id="Vector_41" d="M21.2275 10.8H21.2515C21.7235 10.8 21.9595 11.036 21.9595 11.508V17.292C21.9595 17.764 21.7235 18 21.2515 18H21.2275C20.7555 18 20.5195 17.764 20.5195 17.292V11.508C20.5195 11.036 20.7555 10.8 21.2275 10.8Z" fill="#FF9600"/>
<path id="Vector_42" d="M6.48047 16.0801H29.5205V27.9265C29.5205 28.2618 29.4544 28.5939 29.3261 28.9037C29.1978 29.2135 29.0097 29.495 28.7725 29.7321C28.5354 29.9693 28.2539 30.1574 27.9441 30.2857C27.6343 30.414 27.3022 30.4801 26.9669 30.4801H9.03407C8.69872 30.4801 8.36667 30.414 8.05685 30.2857C7.74703 30.1574 7.46552 29.9693 7.2284 29.7321C6.99128 29.495 6.80318 29.2135 6.67485 28.9037C6.54652 28.5939 6.48047 28.2618 6.48047 27.9265V16.0801Z" fill="#70CAFF"/>
<path id="Vector_43" d="M21.9557 21.6624L18.4301 22.9896C18.1535 23.0956 17.8475 23.0956 17.5709 22.9896L14.0453 21.6624C13.9777 21.641 13.9188 21.5986 13.8769 21.5414C13.8351 21.4842 13.8125 21.4152 13.8125 21.3444C13.8125 21.2735 13.8351 21.2045 13.8769 21.1473C13.9188 21.0901 13.9777 21.0478 14.0453 21.0264L17.5709 19.6968C17.848 19.5936 18.153 19.5936 18.4301 19.6968L21.9557 21.0264C22.0232 21.0478 22.0822 21.0901 22.124 21.1473C22.1659 21.2045 22.1885 21.2735 22.1885 21.3444C22.1885 21.4152 22.1659 21.4842 22.124 21.5414C22.0822 21.5986 22.0232 21.641 21.9557 21.6624Z" fill="#F3F7FC"/>
<path id="Vector_44" d="M17.9998 25.1519C17.8128 25.1518 17.6274 25.1176 17.4526 25.0511L13.9198 23.7239C13.8383 23.6921 13.7728 23.6292 13.7377 23.5491C13.7026 23.469 13.7007 23.3782 13.7326 23.2967C13.7644 23.2152 13.8273 23.1498 13.9074 23.1146C13.9875 23.0795 14.0783 23.0777 14.1598 23.1095L17.683 24.4367C17.886 24.5111 18.1088 24.5111 18.3118 24.4367L21.8398 23.1095C21.9212 23.0777 22.012 23.0795 22.0921 23.1146C22.1723 23.1498 22.2351 23.2152 22.267 23.2967C22.2988 23.3782 22.2969 23.469 22.2618 23.5491C22.2267 23.6292 22.1612 23.6921 22.0798 23.7239L18.5542 25.0511C18.3773 25.1189 18.1892 25.1531 17.9998 25.1519Z" fill="#F3F7FC"/>
<path id="Vector_45" d="M17.9998 26.94C17.813 26.9395 17.6278 26.9062 17.4526 26.8416L13.9198 25.5144C13.8383 25.4826 13.7728 25.4197 13.7377 25.3396C13.7026 25.2595 13.7007 25.1687 13.7326 25.0872C13.7644 25.0057 13.8273 24.9402 13.9074 24.9051C13.9875 24.87 14.0783 24.8682 14.1598 24.9L17.683 26.2272C17.886 26.3015 18.1088 26.3015 18.3118 26.2272L21.8398 24.8976C21.9212 24.8658 22.012 24.8676 22.0921 24.9027C22.1723 24.9378 22.2351 25.0033 22.267 25.0848C22.2988 25.1663 22.2969 25.2571 22.2618 25.3372C22.2267 25.4173 22.1612 25.4802 22.0798 25.512L18.5542 26.8416C18.3768 26.9075 18.189 26.9408 17.9998 26.94Z" fill="#F3F7FC"/>
<path id="Vector_46" d="M1.75797e-08 2.63996C-3.19002e-05 2.8606 0.043399 3.07909 0.127813 3.28294C0.212226 3.4868 0.335969 3.67203 0.491975 3.82806C0.64798 3.98408 0.833193 4.10785 1.03704 4.1923C1.24088 4.27674 1.45936 4.3202 1.68 4.3202C1.90064 4.3202 2.11912 4.27674 2.32296 4.1923C2.52681 4.10785 2.71202 3.98408 2.86803 3.82806C3.02403 3.67203 3.14777 3.4868 3.23219 3.28294C3.3166 3.07909 3.36003 2.8606 3.36 2.63996C3.36003 2.41932 3.3166 2.20083 3.23219 1.99698C3.14777 1.79312 3.02403 1.60789 2.86803 1.45186C2.71202 1.29584 2.52681 1.17207 2.32296 1.08762C2.11912 1.00318 1.90064 0.959717 1.68 0.959717C1.45936 0.959717 1.24088 1.00318 1.03704 1.08762C0.833193 1.17207 0.64798 1.29584 0.491975 1.45186C0.335969 1.60789 0.212226 1.79312 0.127813 1.99698C0.043399 2.20083 -3.19002e-05 2.41932 1.75797e-08 2.63996Z" fill="#1990FF"/>
<path id="Vector_47" d="M34.5596 32.3999C34.5596 32.5909 34.6354 32.774 34.7705 32.909C34.9055 33.0441 35.0886 33.1199 35.2796 33.1199C35.4705 33.1199 35.6537 33.0441 35.7887 32.909C35.9237 32.774 35.9996 32.5909 35.9996 32.3999C35.9996 32.209 35.9237 32.0258 35.7887 31.8908C35.6537 31.7558 35.4705 31.6799 35.2796 31.6799C35.0886 31.6799 34.9055 31.7558 34.7705 31.8908C34.6354 32.0258 34.5596 32.209 34.5596 32.3999Z" fill="#1990FF"/>
</g>
<defs>
<clipPath id="clip0_802_5793">
<rect width="36" height="36" fill="white"/>
</clipPath>
</defs>
</svg>
