<svg width="36" height="36" viewBox="0 0 36 36" fill="none" xmlns="http://www.w3.org/2000/svg">
<g id="Frame" clip-path="url(#clip0_802_5966)">
<path id="Vector" opacity="0.2" d="M0 18C0 22.7739 1.89642 27.3523 5.27208 30.7279C8.64773 34.1036 13.2261 36 18 36C22.7739 36 27.3523 34.1036 30.7279 30.7279C34.1036 27.3523 36 22.7739 36 18C36 13.2261 34.1036 8.64773 30.7279 5.27208C27.3523 1.89642 22.7739 0 18 0C13.2261 0 8.64773 1.89642 5.27208 5.27208C1.89642 8.64773 0 13.2261 0 18Z" fill="#1990FF"/>
<path id="Vector_2" d="M3.59961 18.0001C3.59961 21.8192 5.11675 25.4819 7.81727 28.1824C10.5178 30.883 14.1805 32.4001 17.9996 32.4001C21.8187 32.4001 25.4814 30.883 28.1819 28.1824C30.8825 25.4819 32.3996 21.8192 32.3996 18.0001C32.3996 14.181 30.8825 10.5183 28.1819 7.81776C25.4814 5.11724 21.8187 3.6001 17.9996 3.6001C14.1805 3.6001 10.5178 5.11724 7.81727 7.81776C5.11675 10.5183 3.59961 14.181 3.59961 18.0001Z" fill="#1990FF"/>
<path id="Vector_3" d="M1.75797e-08 2.63996C-3.19002e-05 2.8606 0.043399 3.07909 0.127813 3.28294C0.212226 3.4868 0.335969 3.67203 0.491975 3.82806C0.64798 3.98408 0.833193 4.10785 1.03704 4.1923C1.24088 4.27674 1.45936 4.3202 1.68 4.3202C1.90064 4.3202 2.11912 4.27674 2.32296 4.1923C2.52681 4.10785 2.71202 3.98408 2.86803 3.82806C3.02403 3.67203 3.14777 3.4868 3.23219 3.28294C3.3166 3.07909 3.36003 2.8606 3.36 2.63996C3.36003 2.41932 3.3166 2.20083 3.23219 1.99698C3.14777 1.79312 3.02403 1.60789 2.86803 1.45186C2.71202 1.29584 2.52681 1.17207 2.32296 1.08762C2.11912 1.00318 1.90064 0.959717 1.68 0.959717C1.45936 0.959717 1.24088 1.00318 1.03704 1.08762C0.833193 1.17207 0.64798 1.29584 0.491975 1.45186C0.335969 1.60789 0.212226 1.79312 0.127813 1.99698C0.043399 2.20083 -3.19002e-05 2.41932 1.75797e-08 2.63996Z" fill="#1990FF"/>
<path id="Vector_4" d="M34.5596 32.3999C34.5596 32.5909 34.6354 32.774 34.7705 32.909C34.9055 33.0441 35.0886 33.1199 35.2796 33.1199C35.4705 33.1199 35.6537 33.0441 35.7887 32.909C35.9237 32.774 35.9996 32.5909 35.9996 32.3999C35.9996 32.209 35.9237 32.0258 35.7887 31.8908C35.6537 31.7558 35.4705 31.6799 35.2796 31.6799C35.0886 31.6799 34.9055 31.7558 34.7705 31.8908C34.6354 32.0258 34.5596 32.209 34.5596 32.3999Z" fill="#1990FF"/>
<path id="Vector_5" d="M5.58913 15.1487L5.51953 15.1991L10.2355 29.7119L18.1051 19.6799L5.58913 15.1487ZM30.4795 15.1991L18.1051 19.6799L25.6435 29.8679H25.7131L30.4795 15.1991Z" fill="#70CAFF"/>
<path id="Vector_6" d="M18.1055 6.2063V19.6799L30.4799 15.1991L18.1055 6.2063Z" fill="#F3F7FC"/>
<path id="Vector_7" d="M18.1058 6.20648L18.0002 6.13208L5.58984 15.1489L18.1058 19.6801V6.20648ZM10.2362 29.7121L10.2866 29.8681H25.6442L18.1058 19.6801L10.2362 29.7121Z" fill="#5BC1F4"/>
<path id="Vector_8" d="M18.0793 9.6577L18.0001 9.6001L8.71446 16.3465L8.66406 16.3849L12.1921 27.2425L12.2305 27.3601H23.7697L27.3361 16.3849L18.0793 9.6577Z" fill="#F3F7FC"/>
<path id="Vector_9" d="M23.8585 27.48H12.1417L8.52246 16.3368L8.64486 16.2504L18.0001 9.45117L27.4753 16.3368L27.4513 16.4184L23.8585 27.48ZM12.3169 27.24H23.6833L27.1969 16.44L18.0001 9.74877L8.80326 16.4304L12.3169 27.24Z" fill="#5BC1F4"/>
<path id="Vector_10" d="M21.5162 22.9392C21.4356 22.9391 21.3552 22.9472 21.2762 22.9632L19.6803 20.6112C19.9226 20.2571 20.0366 19.8309 20.0034 19.4031C19.9702 18.9753 19.7919 18.5717 19.4978 18.2592C19.5265 18.2321 19.5515 18.2015 19.5722 18.168L21.1202 15.6C21.1476 15.556 21.1664 15.5071 21.1754 15.456H21.1923C21.4928 15.4774 21.7913 15.3931 22.0364 15.2178C22.2814 15.0426 22.4576 14.7872 22.5345 14.4959C22.6115 14.2047 22.5843 13.8956 22.4577 13.6222C22.3312 13.3488 22.1131 13.1282 21.8413 12.9983C21.5694 12.8685 21.2607 12.8377 20.9685 12.9111C20.6763 12.9845 20.4189 13.1576 20.2407 13.4006C20.0625 13.6435 19.9747 13.941 19.9925 14.2418C20.0102 14.5426 20.1323 14.8277 20.3379 15.048C20.3379 15.0672 20.3115 15.0816 20.2994 15.1008L18.7538 17.6736C18.7395 17.7011 18.7282 17.7301 18.7202 17.76C18.4679 17.6801 18.2015 17.6547 17.9387 17.6855C17.6758 17.7164 17.4225 17.8027 17.1956 17.9389C16.9686 18.0751 16.7732 18.2579 16.6223 18.4753C16.4714 18.6928 16.3684 18.9398 16.3202 19.2C16.2859 19.1963 16.2513 19.1963 16.2171 19.2L13.2962 19.344C13.1917 19.0635 12.9927 18.8281 12.7335 18.6783C12.4743 18.5285 12.1711 18.4736 11.8758 18.523C11.5805 18.5725 11.3117 18.7232 11.1154 18.9492C10.9191 19.1753 10.8077 19.4626 10.8002 19.7619C10.7927 20.0612 10.8897 20.3538 11.0744 20.5894C11.2591 20.825 11.5201 20.9889 11.8125 21.053C12.105 21.1172 12.4106 21.0775 12.677 20.9408C12.9433 20.8041 13.1538 20.579 13.2723 20.304H13.2866L16.2531 20.16C16.2922 20.1579 16.331 20.1507 16.3683 20.1384C16.4495 20.3932 16.5848 20.6274 16.7648 20.8251C16.9448 21.0228 17.1653 21.1794 17.4113 21.2842C17.6574 21.389 17.9231 21.4395 18.1904 21.4323C18.4576 21.4251 18.7202 21.3603 18.9602 21.2424L20.4866 23.4768C20.3203 23.7107 20.2373 23.9937 20.2513 24.2804C20.2652 24.5671 20.3751 24.8408 20.5634 25.0574C20.7516 25.2741 21.0073 25.4212 21.2892 25.4749C21.5711 25.5287 21.863 25.4862 22.1178 25.354C22.3726 25.2219 22.5756 25.0079 22.6941 24.7465C22.8126 24.4851 22.8397 24.1914 22.7711 23.9127C22.7025 23.634 22.5422 23.3864 22.3159 23.2099C22.0896 23.0333 21.8105 22.938 21.5234 22.9392H21.5162Z" fill="#FF9600"/>
</g>
<defs>
<clipPath id="clip0_802_5966">
<rect width="36" height="36" fill="white"/>
</clipPath>
</defs>
</svg>
