<svg width="36" height="36" viewBox="0 0 36 36" fill="none" xmlns="http://www.w3.org/2000/svg">
<g id="Frame" clip-path="url(#clip0_841_800)">
<path id="Vector" opacity="0.2" d="M0 18C0 22.7739 1.89642 27.3523 5.27208 30.7279C8.64773 34.1036 13.2261 36 18 36C22.7739 36 27.3523 34.1036 30.7279 30.7279C34.1036 27.3523 36 22.7739 36 18C36 13.2261 34.1036 8.64773 30.7279 5.27208C27.3523 1.89642 22.7739 0 18 0C13.2261 0 8.64773 1.89642 5.27208 5.27208C1.89642 8.64773 0 13.2261 0 18Z" fill="#1990FF"/>
<path id="Vector_2" d="M3.59961 18.0001C3.59961 21.8192 5.11675 25.4819 7.81727 28.1824C10.5178 30.883 14.1805 32.4001 17.9996 32.4001C21.8187 32.4001 25.4814 30.883 28.1819 28.1824C30.8825 25.4819 32.3996 21.8192 32.3996 18.0001C32.3996 14.181 30.8825 10.5183 28.1819 7.81776C25.4814 5.11724 21.8187 3.6001 17.9996 3.6001C14.1805 3.6001 10.5178 5.11724 7.81727 7.81776C5.11675 10.5183 3.59961 14.181 3.59961 18.0001Z" fill="#1990FF"/>
<path id="Vector_3" d="M16.7998 18.4803C16.7998 18.7009 16.8432 18.9194 16.9276 19.1233C17.012 19.3271 17.1358 19.5124 17.2918 19.6684C17.4478 19.8244 17.633 19.9482 17.8368 20.0326C18.0407 20.1171 18.2592 20.1605 18.4798 20.1605C18.7004 20.1605 18.9189 20.1171 19.1228 20.0326C19.3266 19.9482 19.5118 19.8244 19.6678 19.6684C19.8238 19.5124 19.9476 19.3271 20.032 19.1233C20.1164 18.9194 20.1598 18.7009 20.1598 18.4803C20.1598 18.2597 20.1164 18.0412 20.032 17.8373C19.9476 17.6335 19.8238 17.4482 19.6678 17.2922C19.5118 17.1362 19.3266 17.0124 19.1228 16.928C18.9189 16.8435 18.7004 16.8 18.4798 16.8C18.2592 16.8 18.0407 16.8435 17.8368 16.928C17.633 17.0124 17.4478 17.1362 17.2918 17.2922C17.1358 17.4482 17.012 17.6335 16.9276 17.8373C16.8432 18.0412 16.7998 18.2597 16.7998 18.4803Z" fill="#1990FF"/>
<path id="Vector_4" d="M16.7998 17.52C16.7998 17.711 16.8757 17.8941 17.0107 18.0292C17.1457 18.1642 17.3289 18.24 17.5198 18.24C17.7108 18.24 17.8939 18.1642 18.0289 18.0292C18.1639 17.8941 18.2398 17.711 18.2398 17.52C18.2398 17.3291 18.1639 17.146 18.0289 17.0109C17.8939 16.8759 17.7108 16.8 17.5198 16.8C17.3289 16.8 17.1457 16.8759 17.0107 17.0109C16.8757 17.146 16.7998 17.3291 16.7998 17.52Z" fill="#1990FF"/>
<g id="Frame_2">
<path id="Vector_5" d="M28.9556 30.45H7.04609C6.1037 30.45 5.33984 29.6861 5.33984 28.7437V10.6672H30.6615V28.7437C30.6618 29.6861 29.8977 30.45 28.9556 30.45Z" fill="#F3F7FC"/>
<path id="Vector_6" d="M30.6618 10.6671H5.33984V6.83418C5.33984 5.89178 6.1037 5.12793 7.04609 5.12793H28.9553C29.8977 5.12793 30.6615 5.89178 30.6615 6.83418V10.6671H30.6618Z" fill="#E1F5FF"/>
<path id="Vector_7" d="M14.0441 7.10657C13.6907 7.10657 13.4043 6.82017 13.4043 6.46673V3.78975C13.4043 3.43631 13.6907 3.1499 14.0441 3.1499C14.3976 3.1499 14.684 3.43631 14.684 3.78975V6.46673C14.684 6.81986 14.3976 7.10657 14.0441 7.10657ZM21.9575 7.10657C21.604 7.10657 21.3176 6.82017 21.3176 6.46673V3.78975C21.3176 3.43631 21.604 3.1499 21.9575 3.1499C22.3109 3.1499 22.5973 3.43631 22.5973 3.78975V6.46673C22.5973 6.81986 22.3106 7.10657 21.9575 7.10657Z" fill="#70CAFF"/>
<path id="Vector_8" d="M23.54 16.2063C23.54 16.626 23.7068 17.0286 24.0036 17.3254C24.3003 17.6221 24.7029 17.7889 25.1226 17.7889C25.5423 17.7889 25.9448 17.6221 26.2416 17.3254C26.5384 17.0286 26.7051 16.626 26.7051 16.2063C26.7051 15.7866 26.5384 15.3841 26.2416 15.0873C25.9448 14.7905 25.5423 14.6238 25.1226 14.6238C24.7029 14.6238 24.3003 14.7905 24.0036 15.0873C23.7068 15.3841 23.54 15.7866 23.54 16.2063Z" fill="#FF9600"/>
<path id="Vector_9" d="M16.418 16.2063C16.418 16.626 16.5847 17.0286 16.8815 17.3254C17.1783 17.6221 17.5808 17.7889 18.0005 17.7889C18.4202 17.7889 18.8228 17.6221 19.1195 17.3254C19.4163 17.0286 19.5831 16.626 19.5831 16.2063C19.5831 15.7866 19.4163 15.3841 19.1195 15.0873C18.8228 14.7905 18.4202 14.6238 18.0005 14.6238C17.5808 14.6238 17.1783 14.7905 16.8815 15.0873C16.5847 15.3841 16.418 15.7866 16.418 16.2063Z" fill="#FF9600"/>
<path id="Vector_10" d="M16.418 22.5369C16.418 22.9566 16.5847 23.3591 16.8815 23.6559C17.1783 23.9527 17.5808 24.1194 18.0005 24.1194C18.4202 24.1194 18.8228 23.9527 19.1195 23.6559C19.4163 23.3591 19.5831 22.9566 19.5831 22.5369C19.5831 22.1172 19.4163 21.7146 19.1195 21.4179C18.8228 21.1211 18.4202 20.9543 18.0005 20.9543C17.5808 20.9543 17.1783 21.1211 16.8815 21.4179C16.5847 21.7146 16.418 22.1172 16.418 22.5369Z" fill="#5BC1F4"/>
<path id="Vector_11" d="M9.2959 16.2063C9.2959 16.626 9.46263 17.0286 9.75942 17.3254C10.0562 17.6221 10.4587 17.7889 10.8784 17.7889C11.2982 17.7889 11.7007 17.6221 11.9975 17.3254C12.2943 17.0286 12.461 16.626 12.461 16.2063C12.461 15.7866 12.2943 15.3841 11.9975 15.0873C11.7007 14.7905 11.2982 14.6238 10.8784 14.6238C10.4587 14.6238 10.0562 14.7905 9.75942 15.0873C9.46263 15.3841 9.2959 15.7866 9.2959 16.2063Z" fill="#FF9600"/>
<path id="Vector_12" d="M9.2959 22.5369C9.2959 22.9566 9.46263 23.3591 9.75942 23.6559C10.0562 23.9527 10.4587 24.1194 10.8784 24.1194C11.2982 24.1194 11.7007 23.9527 11.9975 23.6559C12.2943 23.3591 12.461 22.9566 12.461 22.5369C12.461 22.1172 12.2943 21.7146 11.9975 21.4179C11.7007 21.1211 11.2982 20.9543 10.8784 20.9543C10.4587 20.9543 10.0562 21.1211 9.75942 21.4179C9.46263 21.7146 9.2959 22.1172 9.2959 22.5369Z" fill="#FF9600"/>
</g>
<path id="Vector_13" d="M1.75797e-08 2.68024C-3.19002e-05 2.90088 0.043399 3.11937 0.127813 3.32323C0.212226 3.52708 0.335969 3.71231 0.491975 3.86834C0.64798 4.02437 0.833193 4.14814 1.03704 4.23258C1.24088 4.31702 1.45936 4.36049 1.68 4.36049C1.90064 4.36049 2.11912 4.31702 2.32296 4.23258C2.52681 4.14814 2.71202 4.02437 2.86803 3.86834C3.02403 3.71231 3.14777 3.52708 3.23219 3.32323C3.3166 3.11937 3.36003 2.90088 3.36 2.68024C3.36003 2.4596 3.3166 2.24112 3.23219 2.03726C3.14777 1.83341 3.02403 1.64817 2.86803 1.49215C2.71202 1.33612 2.52681 1.21235 2.32296 1.12791C2.11912 1.04346 1.90064 1 1.68 1C1.45936 1 1.24088 1.04346 1.03704 1.12791C0.833193 1.21235 0.64798 1.33612 0.491975 1.49215C0.335969 1.64817 0.212226 1.83341 0.127813 2.03726C0.043399 2.24112 -3.19002e-05 2.4596 1.75797e-08 2.68024Z" fill="#1990FF"/>
<path id="Vector_14" d="M34.5596 32.4402C34.5596 32.6312 34.6354 32.8143 34.7705 32.9493C34.9055 33.0844 35.0886 33.1602 35.2796 33.1602C35.4705 33.1602 35.6537 33.0844 35.7887 32.9493C35.9237 32.8143 35.9996 32.6312 35.9996 32.4402C35.9996 32.2493 35.9237 32.0661 35.7887 31.9311C35.6537 31.7961 35.4705 31.7202 35.2796 31.7202C35.0886 31.7202 34.9055 31.7961 34.7705 31.9311C34.6354 32.0661 34.5596 32.2493 34.5596 32.4402Z" fill="#1990FF"/>
</g>
<defs>
<clipPath id="clip0_841_800">
<rect width="36" height="36" fill="white"/>
</clipPath>
</defs>
</svg>
