<svg width="36" height="36" viewBox="0 0 36 36" fill="none" xmlns="http://www.w3.org/2000/svg">
<g id="Frame" clip-path="url(#clip0_802_5682)">
<path id="Vector" opacity="0.2" d="M0 18C0 22.7739 1.89642 27.3523 5.27208 30.7279C8.64773 34.1036 13.2261 36 18 36C22.7739 36 27.3523 34.1036 30.7279 30.7279C34.1036 27.3523 36 22.7739 36 18C36 13.2261 34.1036 8.64773 30.7279 5.27208C27.3523 1.89642 22.7739 0 18 0C13.2261 0 8.64773 1.89642 5.27208 5.27208C1.89642 8.64773 0 13.2261 0 18Z" fill="#1990FF"/>
<path id="Vector_2" d="M3.59961 18.0001C3.59961 21.8192 5.11675 25.4819 7.81727 28.1824C10.5178 30.883 14.1805 32.4001 17.9996 32.4001C21.8187 32.4001 25.4814 30.883 28.1819 28.1824C30.8825 25.4819 32.3996 21.8192 32.3996 18.0001C32.3996 14.181 30.8825 10.5183 28.1819 7.81776C25.4814 5.11724 21.8187 3.6001 17.9996 3.6001C14.1805 3.6001 10.5178 5.11724 7.81727 7.81776C5.11675 10.5183 3.59961 14.181 3.59961 18.0001Z" fill="#1990FF"/>
<path id="Vector_3" d="M1.75797e-08 2.63996C-3.19002e-05 2.8606 0.043399 3.07909 0.127813 3.28294C0.212226 3.4868 0.335969 3.67203 0.491975 3.82806C0.64798 3.98408 0.833193 4.10785 1.03704 4.1923C1.24088 4.27674 1.45936 4.3202 1.68 4.3202C1.90064 4.3202 2.11912 4.27674 2.32296 4.1923C2.52681 4.10785 2.71202 3.98408 2.86803 3.82806C3.02403 3.67203 3.14777 3.4868 3.23219 3.28294C3.3166 3.07909 3.36003 2.8606 3.36 2.63996C3.36003 2.41932 3.3166 2.20083 3.23219 1.99698C3.14777 1.79312 3.02403 1.60789 2.86803 1.45186C2.71202 1.29584 2.52681 1.17207 2.32296 1.08762C2.11912 1.00318 1.90064 0.959717 1.68 0.959717C1.45936 0.959717 1.24088 1.00318 1.03704 1.08762C0.833193 1.17207 0.64798 1.29584 0.491975 1.45186C0.335969 1.60789 0.212226 1.79312 0.127813 1.99698C0.043399 2.20083 -3.19002e-05 2.41932 1.75797e-08 2.63996Z" fill="#1990FF"/>
<path id="Vector_4" d="M34.5596 32.3999C34.5596 32.5909 34.6354 32.774 34.7705 32.909C34.9055 33.0441 35.0886 33.1199 35.2796 33.1199C35.4705 33.1199 35.6537 33.0441 35.7887 32.909C35.9237 32.774 35.9996 32.5909 35.9996 32.3999C35.9996 32.209 35.9237 32.0258 35.7887 31.8908C35.6537 31.7558 35.4705 31.6799 35.2796 31.6799C35.0886 31.6799 34.9055 31.7558 34.7705 31.8908C34.6354 32.0258 34.5596 32.209 34.5596 32.3999Z" fill="#1990FF"/>
<g id="Frame_2">
<path id="Vector_5" d="M11.583 28.1062V13.027C11.583 12.2296 12.2293 11.5833 13.0268 11.5833H28.106C28.9034 11.5833 29.5497 12.2296 29.5497 13.027V28.1062C29.5497 28.9036 28.9034 29.5499 28.106 29.5499H13.0268C12.2293 29.5499 11.583 28.9036 11.583 28.1062Z" fill="#F3F7FC"/>
<path id="Vector_6" d="M29.5497 15.5136H11.583V13.0272C11.583 12.2298 12.2293 11.5835 13.0268 11.5835H28.106C28.9034 11.5835 29.5497 12.2298 29.5497 13.0272V15.5136Z" fill="#FF9600"/>
<path id="Vector_7" d="M13.2676 13.5483C13.2676 13.6973 13.3267 13.8401 13.432 13.9454C13.5373 14.0507 13.6802 14.1098 13.8291 14.1098C13.978 14.1098 14.1208 14.0507 14.2261 13.9454C14.3314 13.8401 14.3906 13.6973 14.3906 13.5483C14.3906 13.3994 14.3314 13.2566 14.2261 13.1513C14.1208 13.046 13.978 12.9868 13.8291 12.9868C13.6802 12.9868 13.5373 13.046 13.432 13.1513C13.3267 13.2566 13.2676 13.3994 13.2676 13.5483Z" fill="#FF4343"/>
<path id="Vector_8" d="M14.9521 13.5483C14.9521 13.6973 15.0113 13.8401 15.1166 13.9454C15.2219 14.0507 15.3647 14.1098 15.5137 14.1098C15.6626 14.1098 15.8054 14.0507 15.9107 13.9454C16.016 13.8401 16.0752 13.6973 16.0752 13.5483C16.0752 13.3994 16.016 13.2566 15.9107 13.1513C15.8054 13.046 15.6626 12.9868 15.5137 12.9868C15.3647 12.9868 15.2219 13.046 15.1166 13.1513C15.0113 13.2566 14.9521 13.3994 14.9521 13.5483Z" fill="#FFD600"/>
<path id="Vector_9" d="M16.6367 13.5483C16.6367 13.6973 16.6959 13.8401 16.8012 13.9454C16.9065 14.0507 17.0493 14.1098 17.1982 14.1098C17.3472 14.1098 17.49 14.0507 17.5953 13.9454C17.7006 13.8401 17.7598 13.6973 17.7598 13.5483C17.7598 13.3994 17.7006 13.2566 17.5953 13.1513C17.49 13.046 17.3472 12.9868 17.1982 12.9868C17.0493 12.9868 16.9065 13.046 16.8012 13.1513C16.6959 13.2566 16.6367 13.3994 16.6367 13.5483Z" fill="#65FF40"/>
<path id="Vector_10" d="M11.5834 12.8668C11.5834 12.158 12.158 11.5834 12.8668 11.5834H26.9836V10.3C26.9836 9.59127 26.4089 9.0166 25.7002 9.0166H10.3C9.59127 9.0166 9.0166 9.59127 9.0166 10.3V25.7002C9.0166 26.4089 9.59127 26.9836 10.3 26.9836H11.5834V12.8668Z" fill="#5BC1F4"/>
<path id="Vector_11" d="M9.01698 10.2999C9.01698 9.59115 9.59164 9.01649 10.3004 9.01649H24.4171V7.7331C24.4171 7.02437 23.8425 6.44971 23.1338 6.44971H7.73359C7.02486 6.44996 6.4502 7.02463 6.4502 7.73336V23.1335C6.4502 23.8423 7.02486 24.4169 7.73359 24.4169H9.01698V10.2999ZM22.0107 19.2591H15.6582C15.1797 19.2591 14.792 19.6469 14.792 20.1254C14.792 20.6039 15.1797 20.9916 15.6582 20.9916H22.0107C22.4892 20.9916 22.877 20.6039 22.877 20.1254C22.877 19.6471 22.489 19.2591 22.0107 19.2591ZM25.4757 24.0717H15.6582C15.1797 24.0717 14.792 24.4595 14.792 24.938C14.792 25.4165 15.1797 25.8042 15.6582 25.8042H25.4757C25.9542 25.8042 26.342 25.4165 26.342 24.938C26.342 24.4595 25.954 24.0717 25.4757 24.0717Z" fill="#E1F5FF"/>
</g>
</g>
<defs>
<clipPath id="clip0_802_5682">
<rect width="36" height="36" fill="white"/>
</clipPath>
</defs>
</svg>
