<svg width="36" height="36" viewBox="0 0 36 36" fill="none" xmlns="http://www.w3.org/2000/svg">
<g id="Frame" clip-path="url(#clip0_802_6094)">
<path id="Vector" opacity="0.2" d="M0 18C0 22.7739 1.89642 27.3523 5.27208 30.7279C8.64773 34.1036 13.2261 36 18 36C22.7739 36 27.3523 34.1036 30.7279 30.7279C34.1036 27.3523 36 22.7739 36 18C36 13.2261 34.1036 8.64773 30.7279 5.27208C27.3523 1.89642 22.7739 0 18 0C13.2261 0 8.64773 1.89642 5.27208 5.27208C1.89642 8.64773 0 13.2261 0 18Z" fill="#1990FF"/>
<path id="Vector_2" d="M3.59961 18.0001C3.59961 21.8192 5.11675 25.4819 7.81727 28.1824C10.5178 30.883 14.1805 32.4001 17.9996 32.4001C21.8187 32.4001 25.4814 30.883 28.1819 28.1824C30.8825 25.4819 32.3996 21.8192 32.3996 18.0001C32.3996 14.181 30.8825 10.5183 28.1819 7.81776C25.4814 5.11724 21.8187 3.6001 17.9996 3.6001C14.1805 3.6001 10.5178 5.11724 7.81727 7.81776C5.11675 10.5183 3.59961 14.181 3.59961 18.0001Z" fill="#1990FF"/>
<path id="Vector_3" d="M1.75797e-08 2.63996C-3.19002e-05 2.8606 0.043399 3.07909 0.127813 3.28294C0.212226 3.4868 0.335969 3.67203 0.491975 3.82806C0.64798 3.98408 0.833193 4.10785 1.03704 4.1923C1.24088 4.27674 1.45936 4.3202 1.68 4.3202C1.90064 4.3202 2.11912 4.27674 2.32296 4.1923C2.52681 4.10785 2.71202 3.98408 2.86803 3.82806C3.02403 3.67203 3.14777 3.4868 3.23219 3.28294C3.3166 3.07909 3.36003 2.8606 3.36 2.63996C3.36003 2.41932 3.3166 2.20083 3.23219 1.99698C3.14777 1.79312 3.02403 1.60789 2.86803 1.45186C2.71202 1.29584 2.52681 1.17207 2.32296 1.08762C2.11912 1.00318 1.90064 0.959717 1.68 0.959717C1.45936 0.959717 1.24088 1.00318 1.03704 1.08762C0.833193 1.17207 0.64798 1.29584 0.491975 1.45186C0.335969 1.60789 0.212226 1.79312 0.127813 1.99698C0.043399 2.20083 -3.19002e-05 2.41932 1.75797e-08 2.63996Z" fill="#1990FF"/>
<path id="Vector_4" d="M34.5596 32.3999C34.5596 32.5909 34.6354 32.774 34.7705 32.909C34.9055 33.0441 35.0886 33.1199 35.2796 33.1199C35.4705 33.1199 35.6537 33.0441 35.7887 32.909C35.9237 32.774 35.9996 32.5909 35.9996 32.3999C35.9996 32.209 35.9237 32.0258 35.7887 31.8908C35.6537 31.7558 35.4705 31.6799 35.2796 31.6799C35.0886 31.6799 34.9055 31.7558 34.7705 31.8908C34.6354 32.0258 34.5596 32.209 34.5596 32.3999Z" fill="#1990FF"/>
<g id="Frame_2">
<path id="Vector_5" d="M15.9746 21.45L8.09961 13.575L18.5996 3.07495L29.0996 13.575L21.2246 21.45H15.9746Z" fill="#70CAFF"/>
<path id="Vector_6" d="M26.4746 22.4314H10.7246V6.76636C10.7246 6.53989 10.9083 6.3562 11.1348 6.3562H26.0645C26.2909 6.3562 26.4746 6.53989 26.4746 6.76636V22.4314Z" fill="#F3F7FC"/>
<path id="Vector_7" d="M20.8965 10.2937H16.3027C15.759 10.2937 15.3184 9.85308 15.3184 9.30933C15.3184 8.76558 15.759 8.32495 16.3027 8.32495H20.8965C21.4402 8.32495 21.8809 8.76558 21.8809 9.30933C21.8809 9.85308 21.4402 10.2937 20.8965 10.2937Z" fill="#FF9600"/>
<path id="Vector_8" d="M24.1777 12.9187H13.0215C12.8401 12.9187 12.6934 12.7719 12.6934 12.5906C12.6934 12.4092 12.8401 12.2625 13.0215 12.2625H24.1777C24.3591 12.2625 24.5059 12.4092 24.5059 12.5906C24.5059 12.7719 24.3591 12.9187 24.1777 12.9187ZM24.1777 14.8875H13.0215C12.8401 14.8875 12.6934 14.7407 12.6934 14.5593C12.6934 14.378 12.8401 14.2312 13.0215 14.2312H24.1777C24.3591 14.2312 24.5059 14.378 24.5059 14.5593C24.5059 14.7407 24.3591 14.8875 24.1777 14.8875ZM24.1777 16.8562H13.0215C12.8401 16.8562 12.6934 16.7094 12.6934 16.5281C12.6934 16.3467 12.8401 16.2 13.0215 16.2H24.1777C24.3591 16.2 24.5059 16.3467 24.5059 16.5281C24.5059 16.7094 24.3591 16.8562 24.1777 16.8562ZM24.1777 18.825H13.0215C12.8401 18.825 12.6934 18.6782 12.6934 18.4968C12.6934 18.3155 12.8401 18.1687 13.0215 18.1687H24.1777C24.3591 18.1687 24.5059 18.3155 24.5059 18.4968C24.5059 18.6782 24.3591 18.825 24.1777 18.825Z" fill="#70CAFF"/>
<path id="Vector_9" d="M21.2246 21.45L29.0996 29.325V13.575L21.2246 21.45ZM15.9746 21.45L8.09961 29.325V13.575L15.9746 21.45Z" fill="#5BC1F4"/>
<path id="Vector_10" d="M8.09961 29.325L15.9746 21.45H21.2246L29.0996 29.325H8.09961Z" fill="#E1F5FF"/>
</g>
</g>
<defs>
<clipPath id="clip0_802_6094">
<rect width="36" height="36" fill="white"/>
</clipPath>
</defs>
</svg>
