<svg width="36" height="37" viewBox="0 0 36 37" fill="none" xmlns="http://www.w3.org/2000/svg">
<g id="Frame" clip-path="url(#clip0_802_5640)">
<path id="Vector" opacity="0.2" d="M0 18.5601C0 23.334 1.89642 27.9123 5.27208 31.288C8.64773 34.6636 13.2261 36.5601 18 36.5601C22.7739 36.5601 27.3523 34.6636 30.7279 31.288C34.1036 27.9123 36 23.334 36 18.5601C36 13.7862 34.1036 9.20779 30.7279 5.83214C27.3523 2.45648 22.7739 0.560059 18 0.560059C13.2261 0.560059 8.64773 2.45648 5.27208 5.83214C1.89642 9.20779 0 13.7862 0 18.5601Z" fill="#1990FF"/>
<path id="Vector_2" d="M3.59961 18.56C3.59961 22.3792 5.11675 26.0418 7.81727 28.7424C10.5178 31.4429 14.1805 32.96 17.9996 32.96C21.8187 32.96 25.4814 31.4429 28.1819 28.7424C30.8825 26.0418 32.3996 22.3792 32.3996 18.56C32.3996 14.7409 30.8825 11.0782 28.1819 8.3777C25.4814 5.67717 21.8187 4.16003 17.9996 4.16003C14.1805 4.16003 10.5178 5.67717 7.81727 8.3777C5.11675 11.0782 3.59961 14.7409 3.59961 18.56Z" fill="#1990FF"/>
<path id="Vector_3" d="M1.75797e-08 3.20002C-3.19002e-05 3.42066 0.043399 3.63915 0.127813 3.843C0.212226 4.04686 0.335969 4.23209 0.491975 4.38811C0.64798 4.54414 0.833193 4.66791 1.03704 4.75236C1.24088 4.8368 1.45936 4.88026 1.68 4.88026C1.90064 4.88026 2.11912 4.8368 2.32296 4.75236C2.52681 4.66791 2.71202 4.54414 2.86803 4.38811C3.02403 4.23209 3.14777 4.04686 3.23219 3.843C3.3166 3.63915 3.36003 3.42066 3.36 3.20002C3.36003 2.97938 3.3166 2.76089 3.23219 2.55704C3.14777 2.35318 3.02403 2.16795 2.86803 2.01192C2.71202 1.85589 2.52681 1.73212 2.32296 1.64768C2.11912 1.56324 1.90064 1.51978 1.68 1.51978C1.45936 1.51978 1.24088 1.56324 1.03704 1.64768C0.833193 1.73212 0.64798 1.85589 0.491975 2.01192C0.335969 2.16795 0.212226 2.35318 0.127813 2.55704C0.043399 2.76089 -3.19002e-05 2.97938 1.75797e-08 3.20002Z" fill="#1990FF"/>
<path id="Vector_4" d="M34.5596 32.9601C34.5596 33.1511 34.6354 33.3342 34.7705 33.4692C34.9055 33.6043 35.0886 33.6801 35.2796 33.6801C35.4705 33.6801 35.6537 33.6043 35.7887 33.4692C35.9237 33.3342 35.9996 33.1511 35.9996 32.9601C35.9996 32.7692 35.9237 32.586 35.7887 32.451C35.6537 32.316 35.4705 32.2401 35.2796 32.2401C35.0886 32.2401 34.9055 32.316 34.7705 32.451C34.6354 32.586 34.5596 32.7692 34.5596 32.9601Z" fill="#1990FF"/>
<path id="Vector_5" d="M5.30859 18.5601C5.30859 20.2267 5.63686 21.877 6.27465 23.4168C6.91245 24.9566 7.84727 26.3556 9.02576 27.5341C10.2042 28.7126 11.6033 29.6474 13.1431 30.2852C14.6828 30.923 16.3332 31.2513 17.9998 31.2513C19.6664 31.2513 21.3167 30.923 22.8565 30.2852C24.3963 29.6474 25.7953 28.7126 26.9738 27.5341C28.1523 26.3556 29.0871 24.9566 29.7249 23.4168C30.3627 21.877 30.691 20.2267 30.691 18.5601C30.691 15.1942 29.3539 11.9661 26.9738 9.58606C24.5938 7.206 21.3657 5.8689 17.9998 5.8689C14.6339 5.8689 11.4058 7.206 9.02576 9.58606C6.6457 11.9661 5.30859 15.1942 5.30859 18.5601Z" fill="#F3F7FC"/>
<path id="Vector_6" d="M27.0023 14.0408C26.2795 12.4547 25.1463 11.0904 23.7198 10.0888C22.2933 9.08715 20.6252 8.48454 18.8879 8.34322C18.729 8.32869 18.569 8.354 18.4223 8.41685C18.2757 8.47971 18.147 8.57813 18.0479 8.70322C16.9919 10.0592 16.2983 11.6168 18.6695 11.6168C22.8623 11.6168 21.7727 14.7056 17.0759 14.9264C12.3791 15.1472 13.7015 18.4568 16.3511 18.8C19.0007 19.1432 18.8903 21.1184 18.8903 21.8888C18.8903 22.6592 21.2087 22.208 22.3199 20.552C23.4311 18.896 24.6383 17.132 24.5255 16.028C24.4799 15.548 25.2455 15.4112 26.1551 15.3944C26.313 15.3898 26.4673 15.3463 26.6043 15.2677C26.7413 15.1892 26.8569 15.078 26.9407 14.9442C27.0245 14.8103 27.0739 14.6578 27.0847 14.5002C27.0954 14.3426 27.0671 14.1848 27.0023 14.0408Z" fill="#70CAFF"/>
<path id="Vector_7" d="M6.30273 30.2337H10.5315C10.5315 30.2337 14.1579 31.8849 17.2515 31.9137C21.4827 31.9473 26.1603 29.1417 26.3715 28.9737C27.3507 28.2105 27.7371 26.0169 23.9067 26.9409C20.0763 27.8649 17.4555 27.8385 16.4211 26.6697C15.6579 25.8081 18.1011 25.5609 19.4403 25.4889C20.0763 25.4553 21.4731 24.9321 21.4731 24.1689C21.4731 23.2401 20.1723 22.9689 18.3363 22.9689C15.0507 22.9689 15.9579 22.3113 14.0451 22.4121C12.1323 22.5129 10.3203 24.5601 10.3203 24.5601H6.30273V30.2337Z" fill="#FF9600"/>
<path id="Vector_8" d="M17.3259 10.1025C17.0769 9.85758 16.7415 9.72051 16.3923 9.72086C16.22 9.7196 16.0491 9.75232 15.8895 9.81716C15.7299 9.88199 15.5846 9.97767 15.462 10.0987C15.3394 10.2198 15.2419 10.3638 15.175 10.5226C15.1081 10.6814 15.0732 10.8518 15.0723 11.0241C15.0723 11.9217 16.0827 12.8457 16.0827 12.8457C16.1221 12.8871 16.1696 12.9201 16.2222 12.9427C16.2748 12.9652 16.3314 12.9769 16.3887 12.9769C16.4459 12.9769 16.5025 12.9652 16.5551 12.9427C16.6077 12.9201 16.6552 12.8871 16.6947 12.8457C16.6947 12.8457 17.7123 11.9697 17.7123 11.0241C17.7122 10.8525 17.678 10.6827 17.6117 10.5244C17.5453 10.3662 17.4482 10.2228 17.3259 10.1025ZM16.3923 11.5833C16.2546 11.5826 16.1227 11.5275 16.0256 11.4299C15.9284 11.3323 15.8739 11.2002 15.8739 11.0625C15.8743 10.96 15.9051 10.86 15.9624 10.7751C16.0196 10.6902 16.1008 10.6241 16.1955 10.5852C16.2903 10.5464 16.3945 10.5364 16.4949 10.5567C16.5953 10.577 16.6874 10.6266 16.7597 10.6991C16.8319 10.7717 16.8811 10.8641 16.9009 10.9646C16.9207 11.0651 16.9103 11.1692 16.871 11.2638C16.8317 11.3584 16.7652 11.4392 16.68 11.4961C16.5948 11.5529 16.4947 11.5833 16.3923 11.5833Z" fill="#FF9600"/>
</g>
<defs>
<clipPath id="clip0_802_5640">
<rect width="36" height="36" fill="white" transform="translate(0 0.560059)"/>
</clipPath>
</defs>
</svg>
