<svg width="36" height="36" viewBox="0 0 36 36" fill="none" xmlns="http://www.w3.org/2000/svg">
<g id="Frame" clip-path="url(#clip0_802_5946)">
<path id="Vector" opacity="0.2" d="M0 18C0 22.7739 1.89642 27.3523 5.27208 30.7279C8.64773 34.1036 13.2261 36 18 36C22.7739 36 27.3523 34.1036 30.7279 30.7279C34.1036 27.3523 36 22.7739 36 18C36 13.2261 34.1036 8.64773 30.7279 5.27208C27.3523 1.89642 22.7739 0 18 0C13.2261 0 8.64773 1.89642 5.27208 5.27208C1.89642 8.64773 0 13.2261 0 18Z" fill="#1990FF"/>
<path id="Vector_2" d="M3.59961 18.0001C3.59961 21.8192 5.11675 25.4819 7.81727 28.1824C10.5178 30.883 14.1805 32.4001 17.9996 32.4001C21.8187 32.4001 25.4814 30.883 28.1819 28.1824C30.8825 25.4819 32.3996 21.8192 32.3996 18.0001C32.3996 14.181 30.8825 10.5183 28.1819 7.81776C25.4814 5.11724 21.8187 3.6001 17.9996 3.6001C14.1805 3.6001 10.5178 5.11724 7.81727 7.81776C5.11675 10.5183 3.59961 14.181 3.59961 18.0001Z" fill="#1990FF"/>
<path id="Vector_3" d="M1.75797e-08 2.63996C-3.19002e-05 2.8606 0.043399 3.07909 0.127813 3.28294C0.212226 3.4868 0.335969 3.67203 0.491975 3.82806C0.64798 3.98408 0.833193 4.10785 1.03704 4.1923C1.24088 4.27674 1.45936 4.3202 1.68 4.3202C1.90064 4.3202 2.11912 4.27674 2.32296 4.1923C2.52681 4.10785 2.71202 3.98408 2.86803 3.82806C3.02403 3.67203 3.14777 3.4868 3.23219 3.28294C3.3166 3.07909 3.36003 2.8606 3.36 2.63996C3.36003 2.41932 3.3166 2.20083 3.23219 1.99698C3.14777 1.79312 3.02403 1.60789 2.86803 1.45186C2.71202 1.29584 2.52681 1.17207 2.32296 1.08762C2.11912 1.00318 1.90064 0.959717 1.68 0.959717C1.45936 0.959717 1.24088 1.00318 1.03704 1.08762C0.833193 1.17207 0.64798 1.29584 0.491975 1.45186C0.335969 1.60789 0.212226 1.79312 0.127813 1.99698C0.043399 2.20083 -3.19002e-05 2.41932 1.75797e-08 2.63996Z" fill="#1990FF"/>
<path id="Vector_4" d="M34.5596 32.3999C34.5596 32.5909 34.6354 32.774 34.7705 32.909C34.9055 33.0441 35.0886 33.1199 35.2796 33.1199C35.4705 33.1199 35.6537 33.0441 35.7887 32.909C35.9237 32.774 35.9996 32.5909 35.9996 32.3999C35.9996 32.209 35.9237 32.0258 35.7887 31.8908C35.6537 31.7558 35.4705 31.6799 35.2796 31.6799C35.0886 31.6799 34.9055 31.7558 34.7705 31.8908C34.6354 32.0258 34.5596 32.209 34.5596 32.3999Z" fill="#1990FF"/>
<path id="Vector_5" d="M9.66929 6.95996H26.3301C27.6565 6.95996 28.3197 7.62316 28.3197 8.94956V21.5304C28.3197 22.8568 27.6565 23.52 26.3301 23.52H9.66929C8.34289 23.52 7.67969 22.8568 7.67969 21.5304V8.94956C7.67969 7.62316 8.34289 6.95996 9.66929 6.95996Z" fill="#F3F7FC"/>
<path id="Vector_6" d="M26.9669 29.0399H9.03407C7.62287 29.0399 6.48047 28.0319 6.48047 26.7863V16.3391L17.4965 19.3175L29.5205 16.3391V26.7863C29.5205 28.0319 28.3781 29.0399 26.9669 29.0399Z" fill="#70CAFF"/>
<path id="Vector_7" d="M11.0396 9.85913H24.9596C25.2796 9.85913 25.4396 10.0191 25.4396 10.3391C25.4396 10.6591 25.2796 10.8191 24.9596 10.8191H11.0396C10.7196 10.8191 10.5596 10.6591 10.5596 10.3391C10.5596 10.0191 10.7196 9.85913 11.0396 9.85913Z" fill="#FF9600"/>
<path id="Vector_8" d="M11.0396 12.4895H24.9596C25.2796 12.4895 25.4396 12.6495 25.4396 12.9695C25.4396 13.2895 25.2796 13.4495 24.9596 13.4495H11.0396C10.7196 13.4495 10.5596 13.2895 10.5596 12.9695C10.5596 12.6495 10.7196 12.4895 11.0396 12.4895Z" fill="#FF9600"/>
<path id="Vector_9" d="M11.0396 15.1201H24.9596C25.2796 15.1201 25.4396 15.2801 25.4396 15.6001C25.4396 15.9201 25.2796 16.0801 24.9596 16.0801H11.0396C10.7196 16.0801 10.5596 15.9201 10.5596 15.6001C10.5596 15.2801 10.7196 15.1201 11.0396 15.1201Z" fill="#FF9600"/>
</g>
<defs>
<clipPath id="clip0_802_5946">
<rect width="36" height="36" fill="white"/>
</clipPath>
</defs>
</svg>
