<svg width="36" height="36" viewBox="0 0 36 36" fill="none" xmlns="http://www.w3.org/2000/svg">
<g id="Frame" clip-path="url(#clip0_841_820)">
<path id="Vector" opacity="0.2" d="M0 18C0 22.7739 1.89642 27.3523 5.27208 30.7279C8.64773 34.1036 13.2261 36 18 36C22.7739 36 27.3523 34.1036 30.7279 30.7279C34.1036 27.3523 36 22.7739 36 18C36 13.2261 34.1036 8.64773 30.7279 5.27208C27.3523 1.89642 22.7739 0 18 0C13.2261 0 8.64773 1.89642 5.27208 5.27208C1.89642 8.64773 0 13.2261 0 18Z" fill="#1990FF"/>
<path id="Vector_2" d="M3.59961 18.0001C3.59961 21.8192 5.11675 25.4819 7.81727 28.1824C10.5178 30.883 14.1805 32.4001 17.9996 32.4001C21.8187 32.4001 25.4814 30.883 28.1819 28.1824C30.8825 25.4819 32.3996 21.8192 32.3996 18.0001C32.3996 14.181 30.8825 10.5183 28.1819 7.81776C25.4814 5.11724 21.8187 3.6001 17.9996 3.6001C14.1805 3.6001 10.5178 5.11724 7.81727 7.81776C5.11675 10.5183 3.59961 14.181 3.59961 18.0001Z" fill="#1990FF"/>
<path id="Vector_3" d="M16.7998 18.4803C16.7998 18.7009 16.8432 18.9194 16.9276 19.1233C17.012 19.3271 17.1358 19.5124 17.2918 19.6684C17.4478 19.8244 17.633 19.9482 17.8368 20.0326C18.0407 20.1171 18.2592 20.1605 18.4798 20.1605C18.7004 20.1605 18.9189 20.1171 19.1228 20.0326C19.3266 19.9482 19.5118 19.8244 19.6678 19.6684C19.8238 19.5124 19.9476 19.3271 20.032 19.1233C20.1164 18.9194 20.1598 18.7009 20.1598 18.4803C20.1598 18.2597 20.1164 18.0412 20.032 17.8373C19.9476 17.6335 19.8238 17.4482 19.6678 17.2922C19.5118 17.1362 19.3266 17.0124 19.1228 16.928C18.9189 16.8435 18.7004 16.8 18.4798 16.8C18.2592 16.8 18.0407 16.8435 17.8368 16.928C17.633 17.0124 17.4478 17.1362 17.2918 17.2922C17.1358 17.4482 17.012 17.6335 16.9276 17.8373C16.8432 18.0412 16.7998 18.2597 16.7998 18.4803Z" fill="#1990FF"/>
<path id="Vector_4" d="M16.7998 17.52C16.7998 17.711 16.8757 17.8941 17.0107 18.0292C17.1457 18.1642 17.3289 18.24 17.5198 18.24C17.7108 18.24 17.8939 18.1642 18.0289 18.0292C18.1639 17.8941 18.2398 17.711 18.2398 17.52C18.2398 17.3291 18.1639 17.146 18.0289 17.0109C17.8939 16.8759 17.7108 16.8 17.5198 16.8C17.3289 16.8 17.1457 16.8759 17.0107 17.0109C16.8757 17.146 16.7998 17.3291 16.7998 17.52Z" fill="#1990FF"/>
<path id="Vector_5" d="M29.0254 30.5999H6.97539C6.10548 30.5999 5.40039 29.8948 5.40039 29.0249V6.9749C5.40039 6.105 6.10548 5.3999 6.97539 5.3999H29.0254C29.8953 5.3999 30.6004 6.105 30.6004 6.9749V29.0249C30.6004 29.8948 29.8953 30.5999 29.0254 30.5999Z" fill="#F3F7FC"/>
<path id="Vector_6" d="M25.0879 26.6624H10.9129C10.043 26.6624 9.33789 25.9573 9.33789 25.0874V10.9124C9.33789 10.0425 10.043 9.3374 10.9129 9.3374H25.0879C25.9578 9.3374 26.6629 10.0425 26.6629 10.9124V25.0874C26.6629 25.9573 25.9578 26.6624 25.0879 26.6624Z" fill="#E2F4FF"/>
<path id="Vector_7" d="M14.0625 18C14.0625 18.5171 14.1643 19.0291 14.3622 19.5068C14.5601 19.9845 14.8501 20.4186 15.2158 20.7842C15.5814 21.1499 16.0155 21.4399 16.4932 21.6378C16.9709 21.8357 17.4829 21.9375 18 21.9375C18.5171 21.9375 19.0291 21.8357 19.5068 21.6378C19.9845 21.4399 20.4186 21.1499 20.7842 20.7842C21.1499 20.4186 21.4399 19.9845 21.6378 19.5068C21.8357 19.0291 21.9375 18.5171 21.9375 18C21.9375 17.4829 21.8357 16.9709 21.6378 16.4932C21.4399 16.0155 21.1499 15.5814 20.7842 15.2158C20.4186 14.8501 19.9845 14.5601 19.5068 14.3622C19.0291 14.1643 18.5171 14.0625 18 14.0625C17.4829 14.0625 16.9709 14.1643 16.4932 14.3622C16.0155 14.5601 15.5814 14.8501 15.2158 15.2158C14.8501 15.5814 14.5601 16.0155 14.3622 16.4932C14.1643 16.9709 14.0625 17.4829 14.0625 18Z" fill="#FF9600"/>
<path id="Vector_8" d="M12.4877 18.5905C12.1617 18.5905 11.8971 18.3262 11.8971 17.9999C11.8971 17.6739 12.1617 17.4093 12.4877 17.4093L14.8502 17.4096L17.2127 17.4093C17.5387 17.4093 17.8033 17.6737 17.8033 17.9999V18.0002C17.8033 18.3219 17.546 18.5832 17.2262 18.5905H17.2254H17.2242C17.2242 18.5905 17.2239 18.5908 17.2234 18.5908H17.22H17.2172H17.2169H17.2127L12.4877 18.5905ZM7.36895 16.228C7.0427 16.228 6.77832 15.9637 6.77832 15.6374V10.9124C6.77832 10.5862 7.0427 10.3218 7.36895 10.3218C7.6952 10.3218 7.95957 10.5862 7.95957 10.9124V15.6374C7.95957 15.9637 7.6952 16.228 7.36895 16.228ZM7.36895 25.678C7.0427 25.678 6.77832 25.4134 6.77832 25.0874V20.3624C6.77832 20.0364 7.0427 19.7718 7.36895 19.7718C7.6952 19.7718 7.95957 20.0364 7.95957 20.3624V25.0874C7.95957 25.4134 7.6952 25.678 7.36895 25.678Z" fill="#70CAFF"/>
<path id="Vector_9" d="M1.75797e-08 2.68024C-3.19002e-05 2.90088 0.043399 3.11937 0.127813 3.32323C0.212226 3.52708 0.335969 3.71231 0.491975 3.86834C0.64798 4.02437 0.833193 4.14814 1.03704 4.23258C1.24088 4.31702 1.45936 4.36049 1.68 4.36049C1.90064 4.36049 2.11912 4.31702 2.32296 4.23258C2.52681 4.14814 2.71202 4.02437 2.86803 3.86834C3.02403 3.71231 3.14777 3.52708 3.23219 3.32323C3.3166 3.11937 3.36003 2.90088 3.36 2.68024C3.36003 2.4596 3.3166 2.24112 3.23219 2.03726C3.14777 1.83341 3.02403 1.64817 2.86803 1.49215C2.71202 1.33612 2.52681 1.21235 2.32296 1.12791C2.11912 1.04346 1.90064 1 1.68 1C1.45936 1 1.24088 1.04346 1.03704 1.12791C0.833193 1.21235 0.64798 1.33612 0.491975 1.49215C0.335969 1.64817 0.212226 1.83341 0.127813 2.03726C0.043399 2.24112 -3.19002e-05 2.4596 1.75797e-08 2.68024Z" fill="#1990FF"/>
<path id="Vector_10" d="M34.5596 32.4402C34.5596 32.6312 34.6354 32.8143 34.7705 32.9493C34.9055 33.0844 35.0886 33.1602 35.2796 33.1602C35.4705 33.1602 35.6537 33.0844 35.7887 32.9493C35.9237 32.8143 35.9996 32.6312 35.9996 32.4402C35.9996 32.2493 35.9237 32.0661 35.7887 31.9311C35.6537 31.7961 35.4705 31.7202 35.2796 31.7202C35.0886 31.7202 34.9055 31.7961 34.7705 31.9311C34.6354 32.0661 34.5596 32.2493 34.5596 32.4402Z" fill="#1990FF"/>
</g>
<defs>
<clipPath id="clip0_841_820">
<rect width="36" height="36" fill="white"/>
</clipPath>
</defs>
</svg>
