<svg width="36" height="36" viewBox="0 0 36 36" fill="none" xmlns="http://www.w3.org/2000/svg">
<g id="Frame" clip-path="url(#clip0_802_5881)">
<path id="Vector" opacity="0.2" d="M0 18C0 22.7739 1.89642 27.3523 5.27208 30.7279C8.64773 34.1036 13.2261 36 18 36C22.7739 36 27.3523 34.1036 30.7279 30.7279C34.1036 27.3523 36 22.7739 36 18C36 13.2261 34.1036 8.64773 30.7279 5.27208C27.3523 1.89642 22.7739 0 18 0C13.2261 0 8.64773 1.89642 5.27208 5.27208C1.89642 8.64773 0 13.2261 0 18Z" fill="#1990FF"/>
<path id="Vector_2" d="M3.59961 18.0001C3.59961 21.8192 5.11675 25.4819 7.81727 28.1824C10.5178 30.883 14.1805 32.4001 17.9996 32.4001C21.8187 32.4001 25.4814 30.883 28.1819 28.1824C30.8825 25.4819 32.3996 21.8192 32.3996 18.0001C32.3996 14.181 30.8825 10.5183 28.1819 7.81776C25.4814 5.11724 21.8187 3.6001 17.9996 3.6001C14.1805 3.6001 10.5178 5.11724 7.81727 7.81776C5.11675 10.5183 3.59961 14.181 3.59961 18.0001Z" fill="#1990FF"/>
<path id="Vector_3" d="M1.75797e-08 2.63996C-3.19002e-05 2.8606 0.043399 3.07909 0.127813 3.28294C0.212226 3.4868 0.335969 3.67203 0.491975 3.82806C0.64798 3.98408 0.833193 4.10785 1.03704 4.1923C1.24088 4.27674 1.45936 4.3202 1.68 4.3202C1.90064 4.3202 2.11912 4.27674 2.32296 4.1923C2.52681 4.10785 2.71202 3.98408 2.86803 3.82806C3.02403 3.67203 3.14777 3.4868 3.23219 3.28294C3.3166 3.07909 3.36003 2.8606 3.36 2.63996C3.36003 2.41932 3.3166 2.20083 3.23219 1.99698C3.14777 1.79312 3.02403 1.60789 2.86803 1.45186C2.71202 1.29584 2.52681 1.17207 2.32296 1.08762C2.11912 1.00318 1.90064 0.959717 1.68 0.959717C1.45936 0.959717 1.24088 1.00318 1.03704 1.08762C0.833193 1.17207 0.64798 1.29584 0.491975 1.45186C0.335969 1.60789 0.212226 1.79312 0.127813 1.99698C0.043399 2.20083 -3.19002e-05 2.41932 1.75797e-08 2.63996Z" fill="#1990FF"/>
<path id="Vector_4" d="M34.5596 32.3999C34.5596 32.5909 34.6354 32.774 34.7705 32.909C34.9055 33.0441 35.0886 33.1199 35.2796 33.1199C35.4705 33.1199 35.6537 33.0441 35.7887 32.909C35.9237 32.774 35.9996 32.5909 35.9996 32.3999C35.9996 32.209 35.9237 32.0258 35.7887 31.8908C35.6537 31.7558 35.4705 31.6799 35.2796 31.6799C35.0886 31.6799 34.9055 31.7558 34.7705 31.8908C34.6354 32.0258 34.5596 32.209 34.5596 32.3999Z" fill="#1990FF"/>
<path id="Vector_5" d="M23.5703 19.9561L20.5991 8.86569C20.4702 8.38581 20.1563 7.97661 19.7262 7.72781C19.2961 7.47901 18.7849 7.41093 18.3047 7.53849L3.23026 11.5777C2.75028 11.707 2.34123 12.0215 2.09286 12.4521C1.84449 12.8827 1.77709 13.3943 1.90546 13.8745L4.87666 24.9601C5.006 25.4401 5.32048 25.8491 5.75108 26.0975C6.18168 26.3459 6.69322 26.4133 7.17346 26.2849L12.4271 24.8785L14.7095 26.1889C14.8713 26.2812 15.063 26.3057 15.2429 26.2571C15.4227 26.2086 15.5761 26.0909 15.6695 25.9297L16.9919 23.6545L22.2455 22.2457C22.7245 22.1174 23.1331 21.8042 23.3815 21.3749C23.6299 20.9457 23.6978 20.4354 23.5703 19.9561Z" fill="#F3F7FC"/>
<path id="Vector_6" d="M7.13509 17.4193C6.90102 17.4827 6.69102 17.6141 6.53162 17.7969C6.37222 17.9797 6.27059 18.2056 6.23957 18.4461C6.20855 18.6866 6.24953 18.9309 6.35733 19.1482C6.46514 19.3654 6.63493 19.5458 6.84524 19.6665C7.05555 19.7873 7.29694 19.843 7.53889 19.8266C7.78084 19.8102 8.0125 19.7224 8.20458 19.5743C8.39666 19.4263 8.54053 19.2246 8.61801 18.9948C8.69549 18.765 8.70311 18.5174 8.63989 18.2833C8.55449 17.9694 8.34813 17.7022 8.06605 17.5403C7.78398 17.3783 7.4492 17.3348 7.13509 17.4193ZM12.4799 15.9841C12.2461 16.0478 12.0364 16.1793 11.8773 16.3621C11.7182 16.5448 11.6168 16.7706 11.5859 17.011C11.555 17.2513 11.596 17.4954 11.7037 17.7125C11.8115 17.9295 11.9811 18.1098 12.1911 18.2306C12.4012 18.3513 12.6423 18.4072 12.8841 18.391C13.1259 18.3748 13.3575 18.2874 13.5496 18.1398C13.7417 17.9921 13.8858 17.7909 13.9637 17.5614C14.0416 17.3319 14.0497 17.0846 13.9871 16.8505C13.9451 16.6946 13.8727 16.5485 13.7742 16.4206C13.6757 16.2927 13.553 16.1854 13.413 16.105C13.2731 16.0245 13.1186 15.9724 12.9585 15.9517C12.7984 15.9309 12.6357 15.9419 12.4799 15.9841ZM19.3487 15.4153C19.2865 15.1795 19.1557 14.9675 18.9729 14.8061C18.79 14.6448 18.5634 14.5413 18.3217 14.509C18.08 14.4766 17.8342 14.5167 17.6153 14.6242C17.3965 14.7317 17.2144 14.9018 17.0924 15.1129C16.9703 15.324 16.9137 15.5666 16.9296 15.8099C16.9456 16.0532 17.0335 16.2863 17.1821 16.4797C17.3307 16.673 17.5334 16.8178 17.7645 16.8958C17.9955 16.9738 18.2445 16.9814 18.4799 16.9177C18.7941 16.8333 19.062 16.6277 19.2249 16.3461C19.3877 16.0644 19.4323 15.7297 19.3487 15.4153Z" fill="#5BC1F4"/>
<path id="Vector_7" d="M17.2613 21.6169L19.5101 13.2169C19.5582 13.037 19.6414 12.8683 19.7548 12.7206C19.8683 12.5728 20.0098 12.4489 20.1712 12.356C20.3326 12.263 20.5108 12.2028 20.6955 12.1788C20.8802 12.1548 21.0678 12.1675 21.2477 12.2161L32.6548 15.2713C33.0179 15.3691 33.3273 15.6071 33.5149 15.9329C33.7026 16.2588 33.7532 16.6458 33.6556 17.0089L31.4068 25.4089C31.3095 25.7719 31.0721 26.0814 30.7468 26.2695C30.4215 26.4576 30.0348 26.5089 29.6716 26.4121L25.6948 25.3465L23.9669 26.3377C23.8453 26.406 23.7018 26.4238 23.5672 26.3875C23.4326 26.3511 23.3176 26.2635 23.2469 26.1433L22.2461 24.4201L18.2645 23.3521C18.0846 23.3042 17.9159 23.2213 17.7681 23.1081C17.6202 22.9949 17.4962 22.8537 17.403 22.6926C17.3098 22.5314 17.2494 22.3534 17.225 22.1689C17.2007 21.9843 17.213 21.7967 17.2613 21.6169Z" fill="#FF9600"/>
<path id="Vector_8" d="M29.6978 19.6968C29.8745 19.7448 30.033 19.844 30.1533 19.9819C30.2737 20.1199 30.3505 20.2904 30.374 20.4719C30.3975 20.6535 30.3667 20.8379 30.2855 21.002C30.2043 21.166 30.0763 21.3023 29.9176 21.3937C29.759 21.4851 29.5768 21.5274 29.3942 21.5153C29.2115 21.5032 29.0365 21.4373 28.8913 21.3259C28.7461 21.2144 28.6371 21.0625 28.5782 20.8891C28.5193 20.7158 28.513 20.5289 28.5602 20.352C28.5917 20.2342 28.6461 20.1237 28.7203 20.027C28.7946 19.9302 28.8872 19.849 28.9929 19.7882C29.0986 19.7273 29.2153 19.6879 29.3363 19.6722C29.4572 19.6565 29.5801 19.6649 29.6978 19.6968ZM25.6466 18.6096C25.8238 18.6577 25.9828 18.7572 26.1035 18.8956C26.2242 19.034 26.3012 19.205 26.3247 19.3871C26.3482 19.5692 26.3172 19.7542 26.2356 19.9187C26.1541 20.0832 26.0256 20.2199 25.8664 20.3113C25.7072 20.4028 25.5244 20.4451 25.3412 20.4328C25.158 20.4205 24.9826 20.3541 24.837 20.2421C24.6915 20.1301 24.5825 19.9775 24.5237 19.8036C24.4649 19.6296 24.4589 19.4422 24.5066 19.2648C24.5383 19.1469 24.593 19.0364 24.6675 18.9396C24.742 18.8428 24.8348 18.7617 24.9407 18.7008C25.0466 18.6399 25.1635 18.6006 25.2846 18.5849C25.4057 18.5693 25.5287 18.5777 25.6466 18.6096ZM20.4554 18.18C20.5022 18.002 20.6008 17.8418 20.7386 17.7197C20.8765 17.5976 21.0474 17.5191 21.2298 17.4942C21.4123 17.4692 21.598 17.4989 21.7636 17.5795C21.9291 17.6601 22.0671 17.788 22.16 17.947C22.2529 18.1059 22.2966 18.2889 22.2855 18.4727C22.2745 18.6565 22.2092 18.8329 22.0979 18.9796C21.9866 19.1263 21.8343 19.2367 21.6603 19.2969C21.4863 19.357 21.2983 19.3643 21.1202 19.3176C21.0018 19.2867 20.8907 19.2326 20.7932 19.1587C20.6957 19.0847 20.6138 18.9923 20.552 18.8866C20.4903 18.781 20.45 18.6642 20.4334 18.543C20.4168 18.4217 20.4243 18.2984 20.4554 18.18Z" fill="#F3F7FC"/>
</g>
<defs>
<clipPath id="clip0_802_5881">
<rect width="36" height="36" fill="white"/>
</clipPath>
</defs>
</svg>
