<svg width="36" height="36" viewBox="0 0 36 36" fill="none" xmlns="http://www.w3.org/2000/svg">
<g id="Frame" clip-path="url(#clip0_802_6047)">
<path id="Vector" opacity="0.2" d="M0 18C0 22.7739 1.89642 27.3523 5.27208 30.7279C8.64773 34.1036 13.2261 36 18 36C22.7739 36 27.3523 34.1036 30.7279 30.7279C34.1036 27.3523 36 22.7739 36 18C36 13.2261 34.1036 8.64773 30.7279 5.27208C27.3523 1.89642 22.7739 0 18 0C13.2261 0 8.64773 1.89642 5.27208 5.27208C1.89642 8.64773 0 13.2261 0 18Z" fill="#1990FF"/>
<path id="Vector_2" d="M3.59961 17.9833C3.59961 21.8024 5.11675 25.4651 7.81727 28.1656C10.5178 30.8661 14.1805 32.3833 17.9996 32.3833C21.8187 32.3833 25.4814 30.8661 28.1819 28.1656C30.8825 25.4651 32.3996 21.8024 32.3996 17.9833C32.3996 14.1641 30.8825 10.5014 28.1819 7.80091C25.4814 5.10039 21.8187 3.58325 17.9996 3.58325C14.1805 3.58325 10.5178 5.10039 7.81727 7.80091C5.11675 10.5014 3.59961 14.1641 3.59961 17.9833Z" fill="#1990FF"/>
<path id="Vector_3" d="M1.75797e-08 2.62311C-3.19002e-05 2.84376 0.043399 3.06224 0.127813 3.2661C0.212226 3.46995 0.335969 3.65518 0.491975 3.81121C0.64798 3.96724 0.833193 4.09101 1.03704 4.17545C1.24088 4.25989 1.45936 4.30336 1.68 4.30336C1.90064 4.30336 2.11912 4.25989 2.32296 4.17545C2.52681 4.09101 2.71202 3.96724 2.86803 3.81121C3.02403 3.65518 3.14777 3.46995 3.23219 3.2661C3.3166 3.06224 3.36003 2.84376 3.36 2.62311C3.36003 2.40247 3.3166 2.18399 3.23219 1.98013C3.14777 1.77628 3.02403 1.59105 2.86803 1.43502C2.71202 1.27899 2.52681 1.15522 2.32296 1.07078C2.11912 0.986334 1.90064 0.942871 1.68 0.942871C1.45936 0.942871 1.24088 0.986334 1.03704 1.07078C0.833193 1.15522 0.64798 1.27899 0.491975 1.43502C0.335969 1.59105 0.212226 1.77628 0.127813 1.98013C0.043399 2.18399 -3.19002e-05 2.40247 1.75797e-08 2.62311Z" fill="#1990FF"/>
<path id="Vector_4" d="M34.5596 32.3831C34.5596 32.574 34.6354 32.7572 34.7705 32.8922C34.9055 33.0272 35.0886 33.1031 35.2796 33.1031C35.4705 33.1031 35.6537 33.0272 35.7887 32.8922C35.9237 32.7572 35.9996 32.574 35.9996 32.3831C35.9996 32.1921 35.9237 32.009 35.7887 31.874C35.6537 31.7389 35.4705 31.6631 35.2796 31.6631C35.0886 31.6631 34.9055 31.7389 34.7705 31.874C34.6354 32.009 34.5596 32.1921 34.5596 32.3831Z" fill="#1990FF"/>
<path id="Vector_5" d="M7.02767 8.02808H23.7605C24.3435 8.02808 24.9027 8.25969 25.315 8.67197C25.7273 9.08425 25.9589 9.64342 25.9589 10.2265V31.0681H4.83887V10.2265C4.83886 9.64508 5.06916 9.08736 5.47937 8.67536C5.88957 8.26335 6.44628 8.03062 7.02767 8.02808Z" fill="#F3F7FC"/>
<path id="Vector_6" opacity="0.2" d="M7.66366 11.3879H23.1149C23.5645 11.3879 23.7893 11.6127 23.7893 12.0623V12.1535C23.7893 12.6031 23.5645 12.8279 23.1149 12.8279H7.66366C7.21406 12.8279 6.98926 12.6031 6.98926 12.1535V12.0623C6.98926 11.6127 7.21406 11.3879 7.66366 11.3879Z" fill="#70CAFF"/>
<path id="Vector_7" opacity="0.2" d="M7.7828 14.5681H23.234C23.6836 14.5681 23.9084 14.7929 23.9084 15.2425V15.3337C23.9084 15.7833 23.6836 16.0081 23.234 16.0081H7.7828C7.3332 16.0081 7.1084 15.7833 7.1084 15.3337V15.2425C7.1084 14.7929 7.3332 14.5681 7.7828 14.5681Z" fill="#70CAFF"/>
<path id="Vector_8" opacity="0.2" d="M7.7828 17.748H23.234C23.6836 17.748 23.9084 17.9728 23.9084 18.4224V18.5136C23.9084 18.9632 23.6836 19.188 23.234 19.188H7.7828C7.3332 19.188 7.1084 18.9632 7.1084 18.5136V18.4224C7.1084 17.9728 7.3332 17.748 7.7828 17.748Z" fill="#70CAFF"/>
<path id="Vector_9" opacity="0.2" d="M7.7828 20.928H23.234C23.6836 20.928 23.9084 21.1528 23.9084 21.6024V21.6936C23.9084 22.1432 23.6836 22.368 23.234 22.368H7.7828C7.3332 22.368 7.1084 22.1432 7.1084 21.6936V21.6024C7.1084 21.1528 7.3332 20.928 7.7828 20.928Z" fill="#70CAFF"/>
<path id="Vector_10" opacity="0.2" d="M7.6364 24.1079H16.9004C17.2524 24.1079 17.4284 24.2839 17.4284 24.6359V25.0199C17.4284 25.3719 17.2524 25.5479 16.9004 25.5479H7.6364C7.2844 25.5479 7.1084 25.3719 7.1084 25.0199V24.6359C7.1084 24.2839 7.2844 24.1079 7.6364 24.1079Z" fill="#70CAFF"/>
<path id="Vector_11" d="M24.8137 21.5857H11.1865V17.0881C11.1865 14.1217 13.3945 11.7073 16.1089 11.7073H19.8913C22.6033 11.7073 24.8137 14.1217 24.8137 17.0881V21.5857ZM13.1065 19.6657H22.8937V17.0881C22.8937 15.1681 21.5449 13.6273 19.8913 13.6273H16.1089C14.4553 13.6273 13.1065 15.1801 13.1065 17.0881V19.6657Z" fill="#5BC1F4"/>
<path id="Vector_12" d="M10.4782 19.6104H25.5214C26.5726 19.6104 27.0982 20.136 27.0982 21.1872V29.4912C27.0982 30.5424 26.5726 31.068 25.5214 31.068H10.4782C9.42697 31.068 8.90137 30.5424 8.90137 29.4912V21.1872C8.90137 20.136 9.42697 19.6104 10.4782 19.6104Z" fill="#70CAFF"/>
<path id="Vector_13" d="M19.7805 24.5977C19.7806 24.3595 19.7329 24.1238 19.6403 23.9043C19.5476 23.6849 19.4119 23.4863 19.2412 23.3203C19.0705 23.1543 18.8681 23.0242 18.6462 22.9377C18.4243 22.8512 18.1873 22.8101 17.9493 22.8169C17.5625 22.8284 17.19 22.9657 16.8882 23.2078C16.5863 23.4499 16.3716 23.7838 16.2764 24.1588C16.1812 24.5339 16.2108 24.9297 16.3606 25.2865C16.5105 25.6432 16.7724 25.9415 17.1069 26.1361C17.2254 26.2008 17.3246 26.2957 17.3946 26.4112C17.4646 26.5267 17.5027 26.6587 17.5053 26.7937V27.3937C17.5053 27.6889 17.6781 27.8593 17.8893 27.8593H18.1101C18.2119 27.8593 18.3096 27.8188 18.3816 27.7468C18.4536 27.6748 18.4941 27.5771 18.4941 27.4753V26.7913C18.4967 26.6575 18.5344 26.5268 18.6035 26.4122C18.6726 26.2976 18.7706 26.2032 18.8877 26.1385C19.1588 25.9828 19.3841 25.7584 19.5408 25.4879C19.6976 25.2174 19.7802 24.9103 19.7805 24.5977Z" fill="#F3F7FC"/>
<path id="Vector_14" d="M25.7157 29.6136C25.2745 29.5895 24.8482 29.446 24.4821 29.1984C24.1012 28.962 23.7499 28.6808 23.4358 28.3608C22.8938 27.7973 22.4796 27.1236 22.2213 26.3856L22.2021 26.3304V22.5216C22.2021 22.4843 22.2096 22.4472 22.2239 22.4127C22.2383 22.3782 22.2594 22.3469 22.2859 22.3205C22.3125 22.2942 22.344 22.2734 22.3786 22.2593C22.4133 22.2452 22.4504 22.2381 22.4878 22.2384C22.9295 22.243 23.3686 22.1715 23.7861 22.0272C24.4039 21.8232 24.9872 21.5271 25.5165 21.1488L25.7013 21.0168L25.8885 21.1416C26.4341 21.5036 27.0196 21.8016 27.6333 22.0296C27.9066 22.1219 28.1878 22.1886 28.4733 22.2288C28.5665 22.2404 28.6603 22.2468 28.7541 22.248H28.8429C28.8893 22.2402 28.9367 22.2422 28.9821 22.2541C29.0276 22.266 29.07 22.2874 29.1065 22.3169C29.1431 22.3464 29.1729 22.3833 29.1941 22.4252C29.2153 22.4672 29.2273 22.5131 29.2293 22.56V26.3208L29.2101 26.376C28.955 27.1115 28.5459 27.784 28.0101 28.3488C27.694 28.6685 27.3411 28.9496 26.9589 29.1864C26.5937 29.4341 26.1683 29.5784 25.7277 29.604L25.7157 29.6136Z" fill="#FF9600"/>
<path id="Vector_15" d="M25.1999 26.7623C25.0983 26.7625 25.0004 26.7239 24.9263 26.6543L23.6687 25.4975C23.5898 25.4249 23.5429 25.324 23.5384 25.2169C23.5339 25.1098 23.5722 25.0052 23.6447 24.9263C23.7173 24.8474 23.8183 24.8005 23.9254 24.796C24.0325 24.7915 24.137 24.8297 24.2159 24.9023L25.4735 26.0591C25.5128 26.0952 25.5446 26.1386 25.5671 26.187C25.5895 26.2353 25.6023 26.2877 25.6045 26.3409C25.6067 26.3942 25.5984 26.4474 25.5801 26.4975C25.5617 26.5475 25.5337 26.5935 25.4975 26.6327C25.4597 26.6739 25.4137 26.7067 25.3624 26.729C25.3112 26.7513 25.2558 26.7627 25.1999 26.7623Z" fill="#F3F7FC"/>
<path id="Vector_16" d="M25.2164 26.7624C25.1605 26.7627 25.1052 26.7514 25.0539 26.7291C25.0027 26.7068 24.9566 26.674 24.9188 26.6328C24.8827 26.5936 24.8546 26.5476 24.8363 26.4976C24.8179 26.4475 24.8096 26.3943 24.8119 26.341C24.8141 26.2877 24.8268 26.2354 24.8493 26.1871C24.8718 26.1387 24.9035 26.0953 24.9428 26.0592L27.2108 23.9712C27.291 23.9046 27.3937 23.8713 27.4977 23.8784C27.6017 23.8854 27.6989 23.9323 27.7693 24.0091C27.8397 24.086 27.8778 24.187 27.8757 24.2912C27.8736 24.3954 27.8315 24.4948 27.758 24.5688L25.49 26.6544C25.4159 26.724 25.3181 26.7626 25.2164 26.7624Z" fill="#F3F7FC"/>
</g>
<defs>
<clipPath id="clip0_802_6047">
<rect width="36" height="36" fill="white"/>
</clipPath>
</defs>
</svg>
