<svg width="36" height="36" viewBox="0 0 36 36" fill="none" xmlns="http://www.w3.org/2000/svg">
<g id="Frame" clip-path="url(#clip0_802_5912)">
<path id="Vector" opacity="0.2" d="M0 18C0 22.7739 1.89642 27.3523 5.27208 30.7279C8.64773 34.1036 13.2261 36 18 36C22.7739 36 27.3523 34.1036 30.7279 30.7279C34.1036 27.3523 36 22.7739 36 18C36 13.2261 34.1036 8.64773 30.7279 5.27208C27.3523 1.89642 22.7739 0 18 0C13.2261 0 8.64773 1.89642 5.27208 5.27208C1.89642 8.64773 0 13.2261 0 18Z" fill="#1990FF"/>
<path id="Vector_2" d="M3.59961 18.0001C3.59961 21.8192 5.11675 25.4819 7.81727 28.1824C10.5178 30.883 14.1805 32.4001 17.9996 32.4001C21.8187 32.4001 25.4814 30.883 28.1819 28.1824C30.8825 25.4819 32.3996 21.8192 32.3996 18.0001C32.3996 14.181 30.8825 10.5183 28.1819 7.81776C25.4814 5.11724 21.8187 3.6001 17.9996 3.6001C14.1805 3.6001 10.5178 5.11724 7.81727 7.81776C5.11675 10.5183 3.59961 14.181 3.59961 18.0001Z" fill="#1990FF"/>
<path id="Vector_3" d="M1.75797e-08 2.63996C-3.19002e-05 2.8606 0.043399 3.07909 0.127813 3.28294C0.212226 3.4868 0.335969 3.67203 0.491975 3.82806C0.64798 3.98408 0.833193 4.10785 1.03704 4.1923C1.24088 4.27674 1.45936 4.3202 1.68 4.3202C1.90064 4.3202 2.11912 4.27674 2.32296 4.1923C2.52681 4.10785 2.71202 3.98408 2.86803 3.82806C3.02403 3.67203 3.14777 3.4868 3.23219 3.28294C3.3166 3.07909 3.36003 2.8606 3.36 2.63996C3.36003 2.41932 3.3166 2.20083 3.23219 1.99698C3.14777 1.79312 3.02403 1.60789 2.86803 1.45186C2.71202 1.29584 2.52681 1.17207 2.32296 1.08762C2.11912 1.00318 1.90064 0.959717 1.68 0.959717C1.45936 0.959717 1.24088 1.00318 1.03704 1.08762C0.833193 1.17207 0.64798 1.29584 0.491975 1.45186C0.335969 1.60789 0.212226 1.79312 0.127813 1.99698C0.043399 2.20083 -3.19002e-05 2.41932 1.75797e-08 2.63996Z" fill="#1990FF"/>
<path id="Vector_4" d="M34.5596 32.3999C34.5596 32.5909 34.6354 32.774 34.7705 32.909C34.9055 33.0441 35.0886 33.1199 35.2796 33.1199C35.4705 33.1199 35.6537 33.0441 35.7887 32.909C35.9237 32.774 35.9996 32.5909 35.9996 32.3999C35.9996 32.209 35.9237 32.0258 35.7887 31.8908C35.6537 31.7558 35.4705 31.6799 35.2796 31.6799C35.0886 31.6799 34.9055 31.7558 34.7705 31.8908C34.6354 32.0258 34.5596 32.209 34.5596 32.3999Z" fill="#1990FF"/>
<path id="Vector_5" d="M23.6642 31.2001H10.3586C10.1113 31.2099 9.8649 31.1637 9.63789 31.065C9.41088 30.9663 9.20909 30.8176 9.04758 30.6301C8.88606 30.4425 8.769 30.2208 8.70511 29.9817C8.64122 29.7425 8.63217 29.492 8.67862 29.2489L11.1866 12.6361C11.2803 12.1012 11.5556 11.6149 11.9662 11.2595C12.3768 10.904 12.8974 10.7011 13.4402 10.6849H26.7458C26.9932 10.6751 27.2395 10.7212 27.4665 10.8199C27.6936 10.9186 27.8953 11.0673 28.0569 11.2549C28.2184 11.4425 28.3354 11.6641 28.3993 11.9033C28.4632 12.1425 28.4723 12.3929 28.4258 12.6361L25.9202 29.2489C25.8265 29.7842 25.5508 30.2707 25.1397 30.6262C24.7286 30.9818 24.2075 31.1845 23.6642 31.2001Z" fill="#5BC1F4"/>
<path id="Vector_6" d="M21.2906 27.84H6.48024C6.20682 27.8491 5.93483 27.7969 5.68425 27.6871C5.43367 27.5773 5.21087 27.4128 5.03223 27.2056C4.85358 26.9984 4.72363 26.7538 4.65192 26.4898C4.58021 26.2258 4.56856 25.9491 4.61784 25.68L7.40184 7.17599C7.51132 6.58239 7.82091 6.04423 8.27902 5.65119C8.73713 5.25815 9.31609 5.03396 9.91944 5.01599H24.7202C24.9949 5.00648 25.2681 5.05889 25.5197 5.16936C25.7714 5.27982 25.9949 5.4455 26.1738 5.65411C26.3526 5.86272 26.4823 6.10891 26.5531 6.37444C26.6238 6.63997 26.6339 6.91802 26.5826 7.18799L23.8082 25.68C23.6988 26.2736 23.3892 26.8117 22.9311 27.2048C22.4729 27.5978 21.894 27.822 21.2906 27.84Z" fill="#F3F7FC"/>
<path id="Vector_7" opacity="0.2" d="M19.649 25.8049H8.47938C7.56738 25.8049 6.92898 25.1593 7.05618 24.3649L9.00258 12.1009C9.12978 11.3041 9.96258 10.6609 10.8842 10.6609H22.0538C22.9658 10.6609 23.6042 11.3041 23.477 12.1009L21.5306 24.3649C21.4034 25.1593 20.561 25.8049 19.649 25.8049Z" fill="#70CAFF"/>
<path id="Vector_8" d="M24.7202 4.99194H9.90981C9.30476 5.01047 8.72445 5.23637 8.26611 5.63179C7.80777 6.02721 7.49924 6.56814 7.39221 7.16394L7.11621 9.00474H26.3162L26.5922 7.16394C26.6437 6.89315 26.6335 6.61422 26.5621 6.34796C26.4908 6.08169 26.3603 5.83496 26.1804 5.62617C26.0004 5.41737 25.7757 5.25189 25.5228 5.14208C25.27 5.03226 24.9956 4.98094 24.7202 4.99194Z" fill="#70CAFF"/>
<path id="Vector_9" d="M9.29027 12.5735L7.51667 13.7735C7.49884 13.7861 7.48429 13.8029 7.47426 13.8223C7.46422 13.8417 7.45898 13.8632 7.45898 13.8851C7.45898 13.907 7.46422 13.9285 7.47426 13.9479C7.48429 13.9673 7.49884 13.9841 7.51667 13.9967L9.21587 15.2903C9.23552 15.306 9.2592 15.3159 9.2842 15.3189C9.30921 15.3218 9.33453 15.3177 9.3573 15.3069C9.38006 15.2961 9.39935 15.2792 9.41295 15.258C9.42656 15.2369 9.43395 15.2123 9.43427 15.1871L9.45587 14.4671C9.45649 14.4491 9.46064 14.4315 9.46809 14.4151C9.47555 14.3987 9.48615 14.384 9.4993 14.3717C9.51246 14.3595 9.52789 14.3499 9.54474 14.3436C9.56158 14.3374 9.5795 14.3345 9.59747 14.3351L16.0775 14.5343C16.0954 14.5349 16.1134 14.532 16.1302 14.5257C16.147 14.5195 16.1625 14.5099 16.1756 14.4976C16.1888 14.4854 16.1994 14.4707 16.2068 14.4543C16.2143 14.4379 16.2184 14.4203 16.2191 14.4023L16.2335 13.9031C16.2341 13.8851 16.2312 13.8672 16.2249 13.8504C16.2186 13.8335 16.2091 13.8181 16.1968 13.8049C16.1846 13.7918 16.1698 13.7812 16.1535 13.7737C16.1371 13.7663 16.1194 13.7621 16.1015 13.7615L9.62147 13.5623C9.6035 13.5617 9.58583 13.5575 9.56947 13.5501C9.55311 13.5426 9.53837 13.532 9.52611 13.5189C9.51386 13.5057 9.50431 13.4903 9.49802 13.4734C9.49173 13.4566 9.48882 13.4387 9.48947 13.4207L9.50867 12.7007C9.51361 12.6735 9.51006 12.6455 9.49851 12.6204C9.48695 12.5953 9.46795 12.5744 9.44408 12.5605C9.42021 12.5466 9.39264 12.5404 9.36512 12.5427C9.3376 12.545 9.31146 12.5558 9.29027 12.5735ZM12.5807 16.5335L10.8095 17.7335C10.7921 17.7462 10.778 17.7628 10.7683 17.782C10.7585 17.8012 10.7535 17.8224 10.7535 17.8439C10.7535 17.8654 10.7585 17.8866 10.7683 17.9058C10.778 17.925 10.7921 17.9416 10.8095 17.9543L12.5111 19.2503C12.5311 19.2652 12.5549 19.2744 12.5798 19.2767C12.6047 19.2791 12.6298 19.2746 12.6523 19.2637C12.6748 19.2528 12.6939 19.236 12.7075 19.215C12.7211 19.194 12.7287 19.1697 12.7295 19.1447L12.7511 18.4247C12.7517 18.4067 12.7558 18.3891 12.7633 18.3727C12.7707 18.3563 12.7814 18.3416 12.7945 18.3293C12.8077 18.3171 12.8231 18.3075 12.8399 18.3013C12.8568 18.295 12.8747 18.2921 12.8927 18.2927L19.3727 18.4919C19.3906 18.4925 19.4086 18.4896 19.4254 18.4833C19.4422 18.4771 19.4577 18.4675 19.4708 18.4552C19.484 18.443 19.4946 18.4283 19.502 18.4119C19.5095 18.3955 19.5136 18.3779 19.5143 18.3599L19.5287 17.8607C19.5293 17.8427 19.5264 17.8248 19.5201 17.808C19.5138 17.7911 19.5043 17.7757 19.492 17.7625C19.4798 17.7494 19.465 17.7388 19.4487 17.7313C19.4323 17.7239 19.4146 17.7197 19.3967 17.7191L12.9167 17.5199C12.8986 17.5196 12.8808 17.5157 12.8643 17.5083C12.8477 17.501 12.8329 17.4904 12.8206 17.4772C12.8082 17.4639 12.7987 17.4484 12.7925 17.4314C12.7864 17.4144 12.7837 17.3963 12.7847 17.3783L12.8039 16.6583C12.8079 16.6309 12.8035 16.6028 12.7913 16.5779C12.779 16.5531 12.7595 16.5325 12.7353 16.5189C12.7111 16.5054 12.6833 16.4996 12.6557 16.5022C12.6281 16.5048 12.6019 16.5157 12.5807 16.5335ZM10.2023 20.7287L8.43107 21.9287C8.41324 21.9413 8.39869 21.9581 8.38866 21.9775C8.37862 21.9969 8.37338 22.0184 8.37338 22.0403C8.37338 22.0622 8.37862 22.0837 8.38866 22.1031C8.39869 22.1225 8.41324 22.1393 8.43107 22.1519L10.1303 23.4479C10.1506 23.4626 10.1744 23.4716 10.1994 23.4739C10.2244 23.4762 10.2495 23.4716 10.2721 23.4608C10.2947 23.45 10.314 23.4333 10.3279 23.4124C10.3418 23.3916 10.3498 23.3673 10.3511 23.3423L10.3727 22.6223C10.3739 22.5864 10.3892 22.5525 10.4153 22.5278C10.4413 22.5031 10.476 22.4896 10.5119 22.4903L16.9919 22.6895C17.028 22.6902 17.0629 22.6768 17.0894 22.6521C17.1158 22.6275 17.1316 22.5936 17.1335 22.5575L17.1479 22.0583C17.1485 22.0401 17.1455 22.022 17.1391 22.005C17.1326 21.988 17.1229 21.9725 17.1104 21.9593C17.0979 21.9461 17.0828 21.9356 17.0662 21.9282C17.0496 21.9209 17.0316 21.917 17.0135 21.9167L10.5335 21.7175C10.5153 21.7172 10.4974 21.7133 10.4807 21.7059C10.4641 21.6986 10.4491 21.6881 10.4366 21.6749C10.424 21.6617 10.4143 21.6462 10.4078 21.6292C10.4014 21.6122 10.3984 21.5941 10.3991 21.5759L10.4207 20.8559C10.4243 20.8291 10.4199 20.8018 10.408 20.7775C10.3961 20.7532 10.3773 20.733 10.3539 20.7194C10.3306 20.7057 10.3037 20.6994 10.2767 20.701C10.2497 20.7027 10.2238 20.7123 10.2023 20.7287Z" fill="#FF9600"/>
<path id="Vector_10" d="M10.9316 13.5935V14.3663L11.1716 14.3735V13.6007L10.9316 13.5935Z" fill="#FF9600"/>
<path id="Vector_11" d="M10.6924 13.5864V14.3592L10.9324 14.3664V13.5936L10.6924 13.5864ZM11.1724 13.6008V14.3736L11.6524 14.388V13.6152L11.1724 13.6008Z" fill="#F3F7FC"/>
<path id="Vector_12" d="M12.3721 21.7656V22.5384L12.6121 22.5456V21.7728L12.3721 21.7656Z" fill="#FF9600"/>
<path id="Vector_13" d="M12.6118 21.7727V22.5455L12.8518 22.5527V21.7799L12.6118 21.7727ZM12.1318 21.7583V22.5311L12.3718 22.5383V21.7655L12.1318 21.7583Z" fill="#F3F7FC"/>
<path id="Vector_14" d="M20.0518 6.99831C20.0518 7.12561 20.1023 7.2477 20.1923 7.33772C20.2824 7.42774 20.4045 7.47831 20.5318 7.47831C20.6591 7.47831 20.7812 7.42774 20.8712 7.33772C20.9612 7.2477 21.0118 7.12561 21.0118 6.99831C21.0118 6.87101 20.9612 6.74892 20.8712 6.6589C20.7812 6.56888 20.6591 6.51831 20.5318 6.51831C20.4045 6.51831 20.2824 6.56888 20.1923 6.6589C20.1023 6.74892 20.0518 6.87101 20.0518 6.99831Z" fill="#F3F7FC"/>
<path id="Vector_15" d="M21.4922 6.99831C21.4922 7.12561 21.5428 7.2477 21.6328 7.33772C21.7228 7.42774 21.8449 7.47831 21.9722 7.47831C22.0995 7.47831 22.2216 7.42774 22.3116 7.33772C22.4016 7.2477 22.4522 7.12561 22.4522 6.99831C22.4522 6.87101 22.4016 6.74892 22.3116 6.6589C22.2216 6.56888 22.0995 6.51831 21.9722 6.51831C21.8449 6.51831 21.7228 6.56888 21.6328 6.6589C21.5428 6.74892 21.4922 6.87101 21.4922 6.99831Z" fill="#F3F7FC"/>
<path id="Vector_16" d="M22.9316 6.99831C22.9316 7.12561 22.9822 7.2477 23.0722 7.33772C23.1622 7.42774 23.2843 7.47831 23.4116 7.47831C23.5389 7.47831 23.661 7.42774 23.7511 7.33772C23.8411 7.2477 23.8916 7.12561 23.8916 6.99831C23.8916 6.87101 23.8411 6.74892 23.7511 6.6589C23.661 6.56888 23.5389 6.51831 23.4116 6.51831C23.2843 6.51831 23.1622 6.56888 23.0722 6.6589C22.9822 6.74892 22.9316 6.87101 22.9316 6.99831Z" fill="#F3F7FC"/>
</g>
<defs>
<clipPath id="clip0_802_5912">
<rect width="36" height="36" fill="white"/>
</clipPath>
</defs>
</svg>
