<svg width="36" height="36" viewBox="0 0 36 36" fill="none" xmlns="http://www.w3.org/2000/svg">
<g id="Frame" clip-path="url(#clip0_802_6075)">
<path id="Vector" opacity="0.2" d="M0 18C0 22.7739 1.89642 27.3523 5.27208 30.7279C8.64773 34.1036 13.2261 36 18 36C22.7739 36 27.3523 34.1036 30.7279 30.7279C34.1036 27.3523 36 22.7739 36 18C36 13.2261 34.1036 8.64773 30.7279 5.27208C27.3523 1.89642 22.7739 0 18 0C13.2261 0 8.64773 1.89642 5.27208 5.27208C1.89642 8.64773 0 13.2261 0 18Z" fill="#1990FF"/>
<path id="Vector_2" d="M3.59961 18C3.59961 21.8191 5.11675 25.4818 7.81727 28.1823C10.5178 30.8828 14.1805 32.4 17.9996 32.4C21.8187 32.4 25.4814 30.8828 28.1819 28.1823C30.8825 25.4818 32.3996 21.8191 32.3996 18C32.3996 14.1809 30.8825 10.5182 28.1819 7.81764C25.4814 5.11711 21.8187 3.59998 17.9996 3.59998C14.1805 3.59998 10.5178 5.11711 7.81727 7.81764C5.11675 10.5182 3.59961 14.1809 3.59961 18Z" fill="#1990FF"/>
<path id="Vector_3" d="M1.75797e-08 2.63996C-3.19002e-05 2.8606 0.043399 3.07909 0.127813 3.28294C0.212226 3.4868 0.335969 3.67203 0.491975 3.82806C0.64798 3.98408 0.833193 4.10785 1.03704 4.1923C1.24088 4.27674 1.45936 4.3202 1.68 4.3202C1.90064 4.3202 2.11912 4.27674 2.32296 4.1923C2.52681 4.10785 2.71202 3.98408 2.86803 3.82806C3.02403 3.67203 3.14777 3.4868 3.23219 3.28294C3.3166 3.07909 3.36003 2.8606 3.36 2.63996C3.36003 2.41932 3.3166 2.20083 3.23219 1.99698C3.14777 1.79312 3.02403 1.60789 2.86803 1.45186C2.71202 1.29584 2.52681 1.17207 2.32296 1.08762C2.11912 1.00318 1.90064 0.959717 1.68 0.959717C1.45936 0.959717 1.24088 1.00318 1.03704 1.08762C0.833193 1.17207 0.64798 1.29584 0.491975 1.45186C0.335969 1.60789 0.212226 1.79312 0.127813 1.99698C0.043399 2.20083 -3.19002e-05 2.41932 1.75797e-08 2.63996Z" fill="#1990FF"/>
<path id="Vector_4" d="M34.5596 32.4001C34.5596 32.591 34.6354 32.7741 34.7705 32.9092C34.9055 33.0442 35.0886 33.1201 35.2796 33.1201C35.4705 33.1201 35.6537 33.0442 35.7887 32.9092C35.9237 32.7741 35.9996 32.591 35.9996 32.4001C35.9996 32.2091 35.9237 32.026 35.7887 31.8909C35.6537 31.7559 35.4705 31.6801 35.2796 31.6801C35.0886 31.6801 34.9055 31.7559 34.7705 31.8909C34.6354 32.026 34.5596 32.2091 34.5596 32.4001Z" fill="#1990FF"/>
<g id="Frame_2">
<path id="Vector_5" d="M5.47461 7.1156V27.6234C5.47461 28.5296 6.20908 29.264 7.11523 29.264H14.9082C15.5879 29.264 16.1387 29.8148 16.1387 30.4945C16.1387 31.1742 16.6895 31.725 17.3691 31.725H18.5996V9.57654C18.5996 7.3113 16.7633 5.47498 14.498 5.47498H7.11523C6.20908 5.47498 5.47461 6.20945 5.47461 7.1156Z" fill="#70CAFF"/>
<path id="Vector_6" d="M22.7012 5.47498C20.4359 5.47498 18.5996 7.3113 18.5996 9.57654V31.725H19.8301C20.5098 31.725 21.0605 31.1742 21.0605 30.4945C21.0605 29.8148 21.6113 29.264 22.291 29.264H30.084C30.9901 29.264 31.7246 28.5296 31.7246 27.6234V7.1156C31.7246 6.20945 30.9901 5.47498 30.084 5.47498H22.7012Z" fill="#F3F7FC"/>
<path id="Vector_7" d="M15.3184 10.3033H8.75586C8.52939 10.3033 8.3457 10.1197 8.3457 9.89319C8.3457 9.66672 8.52939 9.48303 8.75586 9.48303H15.3184C15.5448 9.48303 15.7285 9.66672 15.7285 9.89319C15.7285 10.1197 15.5448 10.3033 15.3184 10.3033ZM15.3184 13.9948H8.75586C8.52939 13.9948 8.3457 13.8111 8.3457 13.5846C8.3457 13.3581 8.52939 13.1744 8.75586 13.1744H15.3184C15.5448 13.1744 15.7285 13.3581 15.7285 13.5846C15.7285 13.8111 15.5448 13.9948 15.3184 13.9948ZM15.3184 17.6862H8.75586C8.52939 17.6862 8.3457 17.5025 8.3457 17.276C8.3457 17.0495 8.52939 16.8658 8.75586 16.8658H15.3184C15.5448 16.8658 15.7285 17.0495 15.7285 17.276C15.7285 17.5025 15.5448 17.6862 15.3184 17.6862ZM15.3184 21.3776H8.75586C8.52939 21.3776 8.3457 21.1939 8.3457 20.9674C8.3457 20.7409 8.52939 20.5573 8.75586 20.5573H15.3184C15.5448 20.5573 15.7285 20.7409 15.7285 20.9674C15.7285 21.1939 15.5448 21.3776 15.3184 21.3776ZM15.3184 25.069H8.75586C8.52939 25.069 8.3457 24.8853 8.3457 24.6588C8.3457 24.4323 8.52939 24.2487 8.75586 24.2487H15.3184C15.5448 24.2487 15.7285 24.4323 15.7285 24.6588C15.7285 24.8853 15.5448 25.069 15.3184 25.069Z" fill="#FFD600"/>
<path id="Vector_8" d="M28.4434 10.3033H21.8809C21.6544 10.3033 21.4707 10.1197 21.4707 9.89319C21.4707 9.66672 21.6544 9.48303 21.8809 9.48303H28.4434C28.6698 9.48303 28.8535 9.66672 28.8535 9.89319C28.8535 10.1197 28.6698 10.3033 28.4434 10.3033ZM28.4434 13.9948H21.8809C21.6544 13.9948 21.4707 13.8111 21.4707 13.5846C21.4707 13.3581 21.6544 13.1744 21.8809 13.1744H28.4434C28.6698 13.1744 28.8535 13.3581 28.8535 13.5846C28.8535 13.8111 28.6698 13.9948 28.4434 13.9948ZM28.4434 17.6862H21.8809C21.6544 17.6862 21.4707 17.5025 21.4707 17.276C21.4707 17.0495 21.6544 16.8658 21.8809 16.8658H28.4434C28.6698 16.8658 28.8535 17.0495 28.8535 17.276C28.8535 17.5025 28.6698 17.6862 28.4434 17.6862ZM28.4434 21.3776H21.8809C21.6544 21.3776 21.4707 21.1939 21.4707 20.9674C21.4707 20.7409 21.6544 20.5573 21.8809 20.5573H28.4434C28.6698 20.5573 28.8535 20.7409 28.8535 20.9674C28.8535 21.1939 28.6698 21.3776 28.4434 21.3776ZM28.4434 25.069H21.8809C21.6544 25.069 21.4707 24.8853 21.4707 24.6588C21.4707 24.4323 21.6544 24.2487 21.8809 24.2487H28.4434C28.6698 24.2487 28.8535 24.4323 28.8535 24.6588C28.8535 24.8853 28.6698 25.069 28.4434 25.069Z" fill="#FF9600"/>
</g>
</g>
<defs>
<clipPath id="clip0_802_6075">
<rect width="36" height="36" fill="white"/>
</clipPath>
</defs>
</svg>
