<svg width="50" height="50" viewBox="0 0 50 50" fill="none" xmlns="http://www.w3.org/2000/svg">
<g id="Group 1321314825">
<g id="icon">
<rect id="&#231;&#153;&#189;&#232;&#137;&#178;&#229;&#141;&#161;&#231;&#137;&#135;" width="50" height="50" rx="10" fill="#2474FF"/>
</g>
<path id="Vector" d="M41.1328 43.75H8.86719C7.14844 43.75 5.66406 42.2656 5.66406 40.5469C5.66406 38.8281 7.14844 37.3438 8.86719 37.3438H41.0547C42.7734 37.3438 44.2578 38.8281 44.2578 40.5469C44.3359 42.2656 42.8516 43.75 41.1328 43.75Z" fill="white"/>
<path id="Vector_2" d="M41.1328 6.25H8.86719C7.14844 6.25 5.66406 7.73438 5.66406 9.45313V32.0312C5.66406 33.75 7.14844 35.2344 8.86719 35.2344H41.0547C42.7734 35.2344 44.2578 33.75 44.2578 32.0312V9.45313C44.3359 7.73438 42.8516 6.25 41.1328 6.25ZM39.8828 16.4844L29.5703 26.0156C29.0234 26.5625 28.0859 26.5625 27.5391 26.0156L23.2422 22.0313C22.6172 21.4844 21.6797 21.4844 21.0547 22.0313L14.0234 28.5937C13.5547 28.9844 13.0078 29.2188 12.4609 29.2188C11.8359 29.2188 11.2109 28.9844 10.7422 28.5156C9.88281 27.5781 9.88281 26.0938 10.8203 25.2344L21.1328 15.625C21.6797 15.0781 22.6172 15.0781 23.1641 15.625L27.5391 19.6875C28.1641 20.2344 29.0234 20.2344 29.6484 19.6875L36.7578 13.125C37.7734 12.1875 39.4922 12.3437 40.3516 13.5937C40.8984 14.5312 40.6641 15.7812 39.8828 16.4844Z" fill="white"/>
</g>
</svg>
