<svg width="50" height="50" viewBox="0 0 50 50" fill="none" xmlns="http://www.w3.org/2000/svg">
<g id="Group 1321314826">
<g id="icon">
<rect id="&#231;&#153;&#189;&#232;&#137;&#178;&#229;&#141;&#161;&#231;&#137;&#135;" width="50" height="50" rx="10" fill="#2474FF"/>
</g>
<path id="Vector" d="M34.8406 10.4096C34.84 9.59484 34.5161 8.81366 33.94 8.23756C33.3639 7.66146 32.5827 7.33753 31.768 7.33691H9.32266C8.50793 7.33753 7.72675 7.66146 7.15065 8.23756C6.57455 8.81366 6.25062 9.59484 6.25 10.4096V39.5893C6.25062 40.4041 6.57465 41.1854 7.15092 41.7615C7.72719 42.3377 8.50857 42.6615 9.32344 42.6619H38.5109C37.5822 42.6607 36.6883 42.308 36.009 41.6746C35.3297 41.0413 34.9153 40.1743 34.8492 39.2479L34.8414 39.24V10.4096H34.8406ZM12.9672 28.0721H26.9141C27.7289 28.0721 28.3883 28.7314 28.3883 29.5463V29.6682C28.3884 29.8618 28.3503 30.0535 28.2763 30.2323C28.2022 30.4112 28.0936 30.5737 27.9567 30.7105C27.8197 30.8474 27.6572 30.9559 27.4783 31.0299C27.2994 31.1038 27.1077 31.1418 26.9141 31.1416H12.9672C12.7737 31.1417 12.582 31.1037 12.4032 31.0297C12.2244 30.9556 12.0619 30.8471 11.9251 30.7103C11.7882 30.5734 11.6797 30.411 11.6057 30.2321C11.5317 30.0533 11.4936 29.8617 11.4938 29.6682V29.5463C11.4938 28.7314 12.1531 28.0721 12.9672 28.0721ZM12.9672 22.6939H26.9141C27.7289 22.6939 28.3883 23.358 28.3883 24.1682V24.29C28.3884 24.4836 28.3503 24.6753 28.2763 24.8542C28.2022 25.0331 28.0936 25.1956 27.9567 25.3324C27.8197 25.4693 27.6572 25.5778 27.4783 25.6518C27.2994 25.7257 27.1077 25.7637 26.9141 25.7635H12.9672C12.7737 25.7636 12.582 25.7255 12.4032 25.6515C12.2244 25.5775 12.0619 25.469 11.9251 25.3321C11.7882 25.1953 11.6797 25.0328 11.6057 24.854C11.5317 24.6752 11.4936 24.4836 11.4938 24.29V24.1682C11.4938 23.3533 12.1531 22.6947 12.9672 22.6947V22.6939ZM12.9672 13.4791H19.2359C19.6271 13.4799 20.002 13.636 20.2783 13.913C20.5545 14.1899 20.7096 14.5652 20.7094 14.9564V17.3791C20.7095 17.5726 20.6714 17.7643 20.5974 17.9431C20.5234 18.1219 20.4149 18.2844 20.278 18.4212C20.1412 18.5581 19.9787 18.6666 19.7999 18.7406C19.6211 18.8146 19.4295 18.8526 19.2359 18.8525H12.9672C12.7737 18.8526 12.582 18.8146 12.4032 18.7406C12.2244 18.6666 12.0619 18.5581 11.9251 18.4212C11.7882 18.2844 11.6797 18.1219 11.6057 17.9431C11.5317 17.7643 11.4936 17.5726 11.4938 17.3791V14.9533C11.4938 14.1385 12.1531 13.4799 12.9672 13.4799V13.4791Z" fill="white"/>
<path id="Vector_2" d="M40.677 15.0156C41.4918 15.016 42.2732 15.3399 42.8495 15.916C43.4257 16.4921 43.7498 17.2734 43.7504 18.0883V38.8242C43.75 39.6392 43.426 40.4207 42.8497 40.997C42.2735 41.5733 41.492 41.8972 40.677 41.8977H39.141C38.3262 41.897 37.5449 41.573 36.9687 40.9967C36.3926 40.4205 36.0688 39.6391 36.0684 38.8242V15.0195H40.6777V15.0156H40.677Z" fill="white"/>
</g>
</svg>
