<svg width="50" height="50" viewBox="0 0 50 50" fill="none" xmlns="http://www.w3.org/2000/svg">
<g id="Group 1321314824">
<g id="icon">
<rect id="&#231;&#153;&#189;&#232;&#137;&#178;&#229;&#141;&#161;&#231;&#137;&#135;" width="50" height="50" rx="10" fill="#2474FF"/>
</g>
<g id="Group 1321314802">
<path id="Vector" d="M36.0464 5C39.1369 5 41.6865 7.54967 41.6865 10.7174L41.532 25.9382C39.2141 23.7748 36.2009 22.5386 33.0331 22.5386C26.1567 22.5386 20.5938 28.1788 20.5938 35.0552C20.5938 36.9868 21.0574 38.9183 21.9073 40.6954C22.7572 42.4724 23.9934 43.9404 25.6159 45.0993L13.6402 45.1766C10.5497 45.1766 8 42.6269 8 39.4592V10.7174C8 7.54967 10.4724 5 13.6402 5H36.0464ZM20.9029 21.2252H14.9536C14.5673 21.2252 14.181 21.3797 13.9492 21.6115C13.7947 21.766 13.7174 21.9205 13.6402 22.0751C13.5629 22.2296 13.5629 22.4614 13.5629 22.6159C13.5629 22.7704 13.5629 23.0022 13.6402 23.1567C13.7174 23.3113 13.7947 23.4658 13.9492 23.6203C14.181 24.0066 14.5673 24.1611 14.9536 24.1611H20.9029C21.6755 24.1611 22.3709 23.543 22.3709 22.6932C22.3709 21.9205 21.6755 21.2252 20.9029 21.2252ZM35.1192 13.5762H14.9536C14.181 13.5762 13.4857 14.1943 13.4857 15.0442C13.4857 15.894 14.181 16.5121 14.9536 16.5121H35.1192C35.8918 16.5121 36.5872 15.894 36.5872 15.0442C36.5872 14.1943 35.8918 13.5762 35.1192 13.5762Z" fill="white"/>
<path id="Vector_2" d="M33.0333 25.0884C27.5476 25.0884 23.0664 29.5696 23.0664 35.1325C23.0664 40.6954 27.5476 45.1767 33.0333 45.1767C38.5189 45.1767 43.0002 40.6954 43.0002 35.1325C43.0002 29.5696 38.5189 25.0884 33.0333 25.0884ZM36.8192 37.3731H34.424C34.0377 37.3731 33.7287 37.6822 33.7287 38.0685V39.382C33.7287 39.691 33.4969 40.0773 33.1878 40.0773C32.956 40.0773 32.8015 40.0773 32.647 39.9228C32.4925 39.7683 32.4152 39.6138 32.4152 39.382V37.9912C32.4152 37.6049 32.1061 37.2959 31.7198 37.2959H29.3247C29.0156 37.2959 28.6293 37.0641 28.6293 36.755C28.6293 36.5233 28.6293 36.3687 28.7838 36.2142C28.9384 36.0597 29.0929 35.9824 29.3247 35.9824H31.7198C32.1061 35.9824 32.4152 35.6734 32.4152 35.2871C32.4152 34.9007 32.1061 34.5917 31.7198 34.5917H29.3247C29.0156 34.5917 28.6293 34.3599 28.6293 34.0508C28.6293 33.8191 28.6293 33.6645 28.7838 33.51C28.9384 33.3555 29.0929 33.2782 29.3247 33.2782H30.6382C30.9472 33.2782 31.1017 32.8919 30.8699 32.6601L29.5565 31.3467C29.3247 31.1149 29.2474 30.7286 29.4792 30.4195C29.5565 30.265 29.7883 30.1105 29.9428 30.1105C30.1746 30.1105 30.3291 30.1877 30.4836 30.3422L32.647 32.5056C32.956 32.7374 33.3423 32.7374 33.6514 32.5056L35.7375 30.4195C35.9693 30.1877 36.3556 30.1105 36.6646 30.3422C36.8192 30.4195 36.9737 30.6513 36.9737 30.8058C36.9737 31.0376 36.8964 31.1921 36.7419 31.3467L35.4284 32.6601C35.1966 32.8919 35.3512 33.2782 35.6602 33.2782H36.8964C37.2055 33.2782 37.5918 33.51 37.5918 33.8191C37.5918 34.0509 37.5918 34.2054 37.4373 34.3599C37.2827 34.5144 37.1282 34.5917 36.8964 34.5917H34.5013C34.115 34.5917 33.8059 34.9007 33.8059 35.2871C33.8059 35.6734 34.115 35.9824 34.5013 35.9824H36.8964C37.1282 35.9824 37.2827 36.0597 37.4373 36.2142C37.5918 36.3687 37.5918 36.6005 37.5918 36.755C37.4373 37.1414 37.1282 37.3731 36.8192 37.3731Z" fill="white"/>
</g>
</g>
</svg>
