<svg width="50" height="50" viewBox="0 0 50 50" fill="none" xmlns="http://www.w3.org/2000/svg">
<g id="Group 1321314828">
<g id="icon">
<rect id="&#231;&#153;&#189;&#232;&#137;&#178;&#229;&#141;&#161;&#231;&#137;&#135;" width="50" height="50" rx="10" fill="#2474FF"/>
</g>
<path id="Vector" d="M36.875 27.3438C36.875 29.375 37.3438 30 37.8125 30.625C38.125 31.0938 38.4375 31.4844 38.4375 32.2656C38.4375 33.3594 37.7344 35.0781 37.1875 36.0938H42.9688C42.5 35.0781 41.7188 33.4375 41.7188 32.2656C41.7188 31.4844 42.0313 31.0156 42.3438 30.625C42.8125 30 43.2813 29.375 43.2813 27.3438C43.2813 26.4844 42.9688 25.625 42.3438 25C41.7188 24.375 40.8594 24.0625 40 24.0625C39.1406 24.0625 38.2813 24.375 37.6563 25C37.2656 25.625 36.875 26.4844 36.875 27.3438ZM46.7969 37.1094H32.8125C32.1094 37.1094 31.4844 37.5781 31.4844 38.2031V41.1719C31.4844 41.7188 32.0313 42.2656 32.8125 42.2656H46.7969C47.5 42.2656 48.125 41.7969 48.125 41.1719V38.2813C48.125 37.5781 47.5781 37.1094 46.7969 37.1094Z" fill="white"/>
<path id="Vector_2" d="M39.6875 22.1094L40.1562 17.8906C40.2344 17.5 40.1562 17.1875 40.0781 16.7969C39.9219 16.4844 39.7656 16.1719 39.5312 15.8594L32.3438 8.59375C32.1094 8.35938 31.875 8.20313 31.5625 8.04688C31.25 7.89063 30.9375 7.8125 30.5469 7.8125H11.5625C11.25 7.8125 10.9375 7.89062 10.625 7.96875C10.3125 8.125 10.0781 8.28125 9.84375 8.51562L2.73438 15.8594C2.5 16.0937 2.26562 16.4062 2.1875 16.7969C1.95312 17.1875 1.95313 17.5 1.95313 17.8906L4.375 40C4.45312 40.625 4.76562 41.1719 5.15625 41.5625C5.625 41.9531 6.17188 42.1875 6.79688 42.1875H29.7656C29.6094 41.875 29.5312 41.4844 29.5312 41.0938V38.125C29.5312 36.4844 31.0156 35.0781 32.8125 35.0781H35.4688C36.1719 33.6719 36.4844 32.5781 36.4844 32.1094C36.4844 32.0312 36.4844 31.9531 36.25 31.6406C35.5469 30.7812 34.9219 29.6875 34.9219 27.1875C34.9219 25.8594 35.3906 24.6094 36.3281 23.6719C37.1875 22.8125 38.3594 22.2656 39.6875 22.1094ZM22.5 34.7656H15.7031C15.2344 34.7656 14.8438 34.375 14.8438 33.9063C14.8438 33.4375 15.2344 33.0469 15.7031 33.0469H22.5C24.2188 33.0469 25.5469 31.7188 25.5469 30C25.5469 28.2813 24.1406 26.9531 22.5 26.9531H18.3594V29.2188C18.3594 29.4531 18.2031 29.5312 17.9688 29.4531L12.6563 26.4062C12.4219 26.3281 12.4219 26.0938 12.6563 26.0156L17.9688 22.9688C18.125 22.8906 18.3594 22.9688 18.3594 23.2031V25.4687H22.5C25.0781 25.4687 27.1875 27.5781 27.1875 30.1562C27.1875 32.7344 25.0781 34.7656 22.5 34.7656ZM4.45312 17.6562L11.5625 10.9375H30.625L37.7344 17.6562H4.45312Z" fill="white"/>
</g>
</svg>
