<svg width="50" height="50" viewBox="0 0 50 50" fill="none" xmlns="http://www.w3.org/2000/svg">
<g id="Group 1321314827">
<g id="icon">
<rect id="&#231;&#153;&#189;&#232;&#137;&#178;&#229;&#141;&#161;&#231;&#137;&#135;" width="50" height="50" rx="10" fill="#2474FF"/>
</g>
<path id="Vector" d="M20.2461 6.25015C20.8398 6.26344 21.4211 6.41187 21.9477 6.69078C22.4431 6.94078 22.8965 7.26657 23.2914 7.6564L26.343 11.4064C26.6656 11.8439 27.1414 12.1455 27.6766 12.2533H41.1633C41.5111 12.252 41.8557 12.3194 42.1774 12.4514C42.4992 12.5834 42.7918 12.7776 43.0385 13.0227C43.2852 13.2679 43.4811 13.5593 43.6151 13.8802C43.7492 14.2011 43.8186 14.5453 43.8195 14.8931V38.3767C43.8192 39.7326 43.3065 41.0382 42.3842 42.0321C41.4619 43.026 40.1982 43.6346 38.8461 43.7361L38.4422 43.7502H24.9187L10.4023 43.7447C9.8384 43.7391 9.28177 43.6165 8.76766 43.3846C8.25355 43.1528 7.79316 42.8168 7.41562 42.3978C6.63066 41.5516 6.19038 40.4426 6.18125 39.2884V10.6986C6.16232 9.5141 6.60501 8.36872 7.41562 7.50484C7.80251 7.10366 8.26708 6.78551 8.78099 6.56979C9.2949 6.35408 9.84736 6.24532 10.4047 6.25015H20.2461ZM21.1273 21.4611C19.9949 22.6019 19.271 24.0849 19.0683 25.6796C18.8656 27.2742 19.1953 28.8911 20.0062 30.2791L15.8398 34.4455C15.5006 34.7865 15.3102 35.248 15.3102 35.7291C15.3102 36.2101 15.5006 36.6716 15.8398 37.0127C16.1807 37.3502 16.641 37.5395 17.1207 37.5395C17.6004 37.5395 18.0607 37.3502 18.4016 37.0127L22.568 32.8431C23.9557 33.6541 25.5724 33.9839 27.1669 33.7813C28.7614 33.5787 30.2443 32.8551 31.3852 31.7228C32.5241 30.586 33.2526 29.1027 33.4559 27.5065C33.6593 25.9102 33.326 24.2917 32.5086 22.9056L27.8594 27.5548L25.2969 24.9877L29.9477 20.3377C28.5616 19.5202 26.943 19.1869 25.3468 19.3903C23.7505 19.5937 22.2673 20.3222 21.1305 21.4611H21.1281H21.1273ZM19.3484 12.0548H10.4297C10.0733 12.0548 9.73151 12.1964 9.47951 12.4484C9.22751 12.7004 9.08593 13.0422 9.08593 13.3986V13.6142C9.08593 13.9706 9.22751 14.3124 9.47951 14.5644C9.73151 14.8164 10.0733 14.958 10.4297 14.958H19.3492C19.7055 14.9578 20.0472 14.8161 20.2992 14.5642C20.5511 14.3122 20.6928 13.9705 20.693 13.6142V13.3986C20.693 13.0422 20.5514 12.7004 20.2994 12.4484C20.0474 12.1964 19.7056 12.0548 19.3492 12.0548H19.3484Z" fill="white"/>
<path id="Vector_2" d="M19.3484 12.0537H10.4297C10.0733 12.0537 9.73151 12.1953 9.47951 12.4473C9.22751 12.6993 9.08594 13.0411 9.08594 13.3975V13.6131C9.08594 13.9695 9.22751 14.3113 9.47951 14.5633C9.73151 14.8153 10.0733 14.9568 10.4297 14.9568H19.3492C19.7055 14.9566 20.0472 14.815 20.2992 14.563C20.5511 14.3111 20.6928 13.9694 20.693 13.6131V13.3975C20.693 13.0411 20.5514 12.6993 20.2994 12.4473C20.0474 12.1953 19.7056 12.0537 19.3492 12.0537H19.3484Z" fill="#2474FF"/>
</g>
</svg>
