<svg width="50" height="50" viewBox="0 0 50 50" fill="none" xmlns="http://www.w3.org/2000/svg">
<g id="Group 1321314823">
<g id="icon">
<rect id="&#231;&#153;&#189;&#232;&#137;&#178;&#229;&#141;&#161;&#231;&#137;&#135;" width="50" height="50" rx="10" fill="#2474FF"/>
</g>
<path id="Vector" d="M11.6301 6.25H35.9059C38.8926 6.25 40.3855 7.74297 40.3855 10.7297V38.2484C40.3855 41.2352 38.8926 42.7289 35.9059 42.7289H11.6301C8.64414 42.7289 7.15039 41.2352 7.15039 38.2492V10.7289C7.15039 7.74297 8.64414 6.25 11.6301 6.25Z" fill="white"/>
<path id="Vector_2" d="M25.2363 25.9921H14.8863C14.4088 25.9921 13.9509 25.8024 13.6133 25.4648C13.2756 25.1271 13.0859 24.6692 13.0859 24.1917C13.0859 23.7142 13.2756 23.2563 13.6133 22.9186C13.9509 22.581 14.4088 22.3913 14.8863 22.3913H25.2363C25.7137 22.3913 26.1716 22.581 26.5091 22.9185C26.8467 23.2561 27.0363 23.7139 27.0363 24.1913C27.0363 24.6687 26.8467 25.1265 26.5091 25.4641C26.1716 25.8017 25.7137 25.9913 25.2363 25.9913V25.9921ZM31.8176 18.0038H14.8879C14.4105 18.0038 13.9527 17.8142 13.6151 17.4766C13.2775 17.139 13.0879 16.6812 13.0879 16.2038C13.0879 15.7264 13.2775 15.2686 13.6151 14.931C13.9527 14.5935 14.4105 14.4038 14.8879 14.4038H31.8176C32.295 14.4038 32.7528 14.5935 33.0904 14.931C33.4279 15.2686 33.6176 15.7264 33.6176 16.2038C33.6176 16.6812 33.4279 17.139 33.0904 17.4766C32.7528 17.8142 32.295 18.0038 31.8176 18.0038Z" fill="#2474FF"/>
<path id="Vector_3" d="M25.0918 34.8703C25.0918 37.2249 26.0272 39.4831 27.6921 41.1481C29.3571 42.8131 31.6153 43.7484 33.9699 43.7484C36.3245 43.7484 38.5827 42.8131 40.2477 41.1481C41.9127 39.4831 42.848 37.2249 42.848 34.8703C42.848 32.5157 41.9127 30.2575 40.2477 28.5925C38.5827 26.9276 36.3245 25.9922 33.9699 25.9922C31.6153 25.9922 29.3571 26.9276 27.6921 28.5925C26.0272 30.2575 25.0918 32.5157 25.0918 34.8703Z" fill="#2474FF"/>
<path id="Vector_4" d="M32.9998 35.4173V34.1259C32.524 33.9175 32.1191 33.5751 31.8347 33.1404C31.5503 32.7058 31.3986 32.1977 31.3982 31.6782C31.3982 30.9699 31.6795 30.2905 32.1803 29.7895C32.681 29.2884 33.3602 29.0068 34.0686 29.0063C34.4194 29.0063 34.7669 29.0755 35.091 29.2097C35.4152 29.344 35.7098 29.5408 35.9579 29.7889C36.206 30.037 36.4028 30.3316 36.537 30.6557C36.6713 30.9799 36.7404 31.3273 36.7404 31.6782C36.7402 32.1979 36.5884 32.7063 36.3037 33.141C36.0189 33.5757 35.6136 33.918 35.1373 34.1259V35.4173H37.5389C38.2779 35.4173 38.8764 36.011 38.8764 36.7532V38.0892H29.2615V36.7532C29.2615 36.0157 29.8623 35.4173 30.599 35.4173H33.0006H32.9998ZM29.2615 38.6228H38.8779V39.6907H29.2607V38.6228H29.2615Z" fill="white"/>
</g>
</svg>
