<svg width="50" height="50" viewBox="0 0 50 50" fill="none" xmlns="http://www.w3.org/2000/svg">
<g id="Group 1321314822">
<g id="icon">
<rect id="&#231;&#153;&#189;&#232;&#137;&#178;&#229;&#141;&#161;&#231;&#137;&#135;" width="50" height="50" rx="10" fill="#2474FF"/>
</g>
<path id="Vector" d="M23.0152 23.9088L8.73008 17.0314C8.59727 17.0314 8.53164 16.965 8.46523 16.8986C8.39883 16.833 8.33242 16.7666 8.20117 16.7666C7.67148 16.7666 7.14258 17.2963 7.14258 17.8252V33.6979C7.14258 34.4916 7.40742 35.2854 8.20117 35.5494L22.4863 43.4869C22.7512 43.751 22.7512 43.751 23.0152 43.751C23.5449 43.751 24.0738 43.2221 24.0738 42.6924V25.7611C24.0738 24.9682 23.5449 24.1744 23.0152 23.9096V23.9088ZM11.898 25.4932C11.7869 25.4376 11.6878 25.3606 11.6063 25.2667C11.5249 25.1728 11.4628 25.0637 11.4235 24.9458C11.3442 24.7077 11.3627 24.4477 11.475 24.2232C11.5306 24.1121 11.6076 24.013 11.7015 23.9315C11.7954 23.8501 11.9044 23.788 12.0223 23.7487C12.2605 23.6694 12.5204 23.6879 12.7449 23.8002L19.3176 27.0861C19.5367 27.2015 19.7019 27.3981 19.7778 27.6338C19.8537 27.8695 19.8342 28.1256 19.7236 28.3471C19.6129 28.5687 19.4199 28.738 19.1858 28.8189C18.9518 28.8998 18.6953 28.8858 18.4715 28.7799L11.898 25.4924V25.4932ZM41.5348 13.0627L25.9254 6.44863C25.3965 6.18379 24.8676 6.18379 24.3387 6.44863L8.7293 13.0627C8.46523 13.0627 8.20117 13.3268 8.20117 13.5916C8.20117 14.1205 8.20117 14.6494 8.73008 14.6494L24.3387 21.2635C24.8676 21.5283 25.3965 21.5283 25.9254 21.2635L41.5348 14.6494C41.7988 14.6494 42.0637 14.3854 42.0637 14.1205C42.3277 13.8557 42.0637 13.3268 41.534 13.0627H41.5348Z" fill="white"/>
<path id="Vector_2" d="M41.5342 17.0307C42.0639 16.7658 42.5928 17.0307 42.8568 17.5596V33.6971C42.8568 34.4908 42.3279 35.2846 41.799 35.5486L27.7779 43.4861C27.249 43.7502 26.7193 43.4861 26.4553 42.9565C26.4553 42.6916 26.1904 42.6916 26.1904 42.4275V25.7604C26.1904 24.9674 26.7193 24.1736 27.5131 23.9088L41.5342 17.0315V17.0307Z" fill="white"/>
</g>
</svg>
